SplineFontDB: 3.0
FontName: CaslonItalic
FullName: CaslonItalic
FamilyName: Caslon
Weight: Medium
Copyright: The programs to generate the splines of this font are copyright 251 1992-1998 by George Williams
Version: 001.000
ItalicAngle: -23
UnderlinePosition: -133
UnderlineWidth: 20
Ascent: 800
Descent: 200
InvalidEm: 0
LayerCount: 2
Layer: 0 0 "Back" 1
Layer: 1 0 "Fore" 0
OS2Version: 0
OS2_WeightWidthSlopeOnly: 0
OS2_UseTypoMetrics: 0
CreationTime: 1400309090
ModificationTime: 1449082721
OS2TypoAscent: 0
OS2TypoAOffset: 1
OS2TypoDescent: 0
OS2TypoDOffset: 1
OS2TypoLinegap: 0
OS2WinAscent: 0
OS2WinAOffset: 1
OS2WinDescent: 0
OS2WinDOffset: 1
HheadAscent: 0
HheadAOffset: 1
HheadDescent: 0
HheadDOffset: 1
OS2CapHeight: 0
OS2XHeight: 0
OS2Vendor: 'PfEd'
Lookup: 4 0 1 "'liga' Standard Ligatures in Latin lookup 0" { "'liga' Standard Ligatures in Latin lookup 0 subtable"  } ['liga' ('latn' <'dflt' > ) ]
Lookup: 4 0 0 "'hlig' Historic Ligatures in Latin lookup 1" { "'hlig' Historic Ligatures in Latin lookup 1 subtable"  } ['hlig' ('latn' <'dflt' > ) ]
Lookup: 4 0 0 "'dlig' Discretionary Ligatures in Latin lookup 2" { "'dlig' Discretionary Ligatures in Latin lookup 2 subtable"  } ['dlig' ('latn' <'dflt' > ) ]
DEI: 91125
ShortTable: cvt  2
  33
  633
EndShort
Encoding: UnicodeBmp
UnicodeInterp: none
NameList: AGL For New Fonts
DisplaySize: -36
AntiAlias: 1
FitToEm: 1
WinInfo: 0 20 13
BeginPrivate: 21
BlueValues 47 [-17.170 0.000 436.000 457.000 661.000 687.000]
OtherBlues 19 [-213.071 -199.000]
BlueScale 11 0.307692308
UniqueID 7 4112765
StdHW 8 [19.607]
StdVW 8 [43.556]
StemSnapH 15 [19.607 29.502]
StemSnapV 15 [43.556 63.168]
ForceBoldThreshold 2 .5
ForceBold 5 false
reencodedict 7 10 dict
ReEncode 362 { reencodedict begin
/newencoding exch def
/newfontname exch def
findfont /basefontdict exch def
/newfont basefontdict maxlength dict def
basefontdict
{ exch dup dup /FID ne exch /Encoding ne and
{ exch newfont 3 1 roll put }
{ pop pop }
ifelse
} forall

StartChar: exclam
Encoding: 33 33 1
Width: 285
Flags: W
LayerCount: 2
Back
Fore
SplineSet
252 601 m 0
 259 622 284 637 300 637 c 0
 334 637 352 597 332 559 c 0
 248 397 196 286 127 150 c 0
 118 133 106 139 112 157 c 0
 159 309 201 446 252 601 c 0
75 -3 m 0
 14 -5 11 86 72 88 c 0
 133 90 136 -1 75 -3 c 0
EndSplineSet
EndChar

StartChar: quotedbl
Encoding: 34 34 2
Width: 210
Flags: W
HStem: 641 20G<285 355 370 440>
LayerCount: 2
Back
Fore
SplineSet
440 661 m 1
 244 498 l 1
 215 498 l 1
 370 661 l 1
 440 661 l 1
355 661 m 1
 159 498 l 1
 130 498 l 1
 285 661 l 1
 355 661 l 1
EndSplineSet
EndChar

StartChar: numbersign
Encoding: 35 35 3
Width: 513
Flags: W
HStem: 214 30<34 134 176 303 346 442> 422 30<133 221 264 391 433 542>
DStem2: 63 43 93 43 0.383465 0.923556<11.5039 185.154 229.111 410.618 454.777 631.615> 232 43 262 43 0.383465 0.923556<11.5039 185.154 229.494 411.001 454.913 632>
LayerCount: 2
Back
Fore
SplineSet
550 452 m 1
 542 422 l 1
 421 422 l 1
 346 244 l 1
 451 244 l 1
 442 214 l 1
 442 214 334 214 333 214 c 1
 262 43 l 1
 232 43 l 1
 303 214 l 1
 304 214 234 214 164 214 c 1
 93 43 l 1
 63 43 l 1
 134 214 l 1
 77 214 26 214 26 214 c 1
 34 244 l 1
 146 244 l 1
 221 422 l 1
 125 422 l 1
 134 452 l 1
 234 452 l 1
 306 626 l 1
 336 626 l 1
 264 452 l 1
 403 452 l 1
 476 626 l 1
 506 626 l 1
 433 452 l 1
 550 452 l 1
391 422 m 1
 251 422 l 1
 176 244 l 1
 316 244 l 1
 391 422 l 1
EndSplineSet
EndChar

StartChar: dollar
Encoding: 36 36 4
Width: 476
Flags: W
HStem: 568 23<345 351>
DStem2: 81 -69 113 -77 0.398726 0.91707<5.42268 66.3082 129.88 372.665 504.747 678.991 738.865 783.378>
LayerCount: 2
Back
Fore
SplineSet
282 394 m 0
 306 451 329 504 351 554 c 0
 354 561 354 568 347 568 c 0
 299 569 236 537 231 465 c 0
 229 432 240 410 258 390 c 0
 264 383 276 379 282 394 c 0
259 260 m 0
 229 189 198 117 163 37 c 0
 158 25 164 16 176 15 c 0
 244 8 320 60 325 133 c 0
 329 192 302 223 268 263 c 0
 265 267 262 266 259 260 c 0
392 650 m 2
 406 683 438 672 425 642 c 2
 405 596 l 2
 403 591 406 583 413 581 c 0
 436 573 455 560 468 545 c 0
 477 534 485 523 480 509 c 0
 476 498 469 493 458 489 c 0
 434 481 425 514 419 535 c 0
 415 546 408 552 399 558 c 0
 395 560 387 556 384 549 c 0
 354 481 328 419 302 358 c 0
 291 335 387 277 380 164 c 0
 372 56 256 -11 158 0 c 0
 150 1 146 -2 143 -8 c 2
 113 -77 l 2
 98 -112 65 -106 81 -69 c 2
 107 -8 l 1
 114 6 105 12 97 15 c 0
 54 31 18 56 15 75 c 0
 11 100 15 116 32 116 c 0
 62 116 72 104 88 62 c 0
 91 53 92 46 100 40 c 0
 104 38 107 36 112 34 c 0
 117 31 126 34 130 43 c 0
 167 127 202 208 235 285 c 0
 237 291 238 300 234 305 c 0
 204 346 180 387 184 446 c 0
 190 522 267 591 351 591 c 0
 360 591 367 592 371 601 c 2
 392 650 l 2
EndSplineSet
EndChar

StartChar: percent
Encoding: 37 37 5
Width: 596
Flags: W
HStem: 3 8<361 368> 250 8<199 205> 321 9<464 481> 568 8<301 318>
LayerCount: 2
Back
Fore
SplineSet
479 321 m 0
 393 321 332 121 329 74 c 0
 327 45 340 11 366 11 c 0
 419 11 508 198 513 269 c 0
 515 293 507 321 479 321 c 0
464 330 m 0
 528 330 556 302 551 233 c 0
 544 137 447 3 364 3 c 0
 312 3 280 44 285 108 c 0
 291 200 384 330 464 330 c 0
316 456 m 0
 282 463 258 483 249 512 c 0
 247 520 242 517 238 512 c 0
 195 449 168 352 166 321 c 0
 164 292 177 258 203 258 c 0
 242 258 299 356 330 437 c 0
 335 451 324 454 316 456 c 0
399 490 m 0
 474 500 534 523 605 576 c 0
 617 586 632 578 619 566 c 1
 398 340 265 208 50 -4 c 0
 32 -22 17 -7 35 10 c 0
 228 200 325 296 515 479 c 0
 528 492 538 500 548 513 c 0
 554 521 547 522 539 518 c 0
 497 496 441 472 397 461 c 0
 393 459 384 453 382 445 c 0
 358 354 274 250 201 250 c 0
 149 250 117 290 122 354 c 0
 128 447 221 576 301 576 c 0
 357 576 385 556 388 505 c 0
 389 497 389 488 399 490 c 0
285 560 m 1
 239 519 284 481 330 484 c 0
 343 485 347 493 347 497 c 0
 349 504 350 510 350 516 c 0
 352 540 344 568 316 568 c 0
 305 568 295 565 285 560 c 1
EndSplineSet
EndChar

StartChar: ampersand
Encoding: 38 38 6
Width: 710
Flags: W
HStem: -6 52<342 413> 156 21<469 487> 347 36<305 316> 383 70<522 567> 423 20G<656.5 711.5> 465 33<421 440> 514 146<693 749> 638 22<741 759> 667 18<393 415>
VStem: 186 63<492 496>
LayerCount: 2
Back
Fore
SplineSet
251 451 m 0
 258 416 284 383 316 383 c 0
 330 383 346 389 347 406 c 0
 350 443 292 462 262 462 c 0
 255 462 250 458 251 451 c 0
408 667 m 0
 327 667 255 594 249 512 c 0
 249 505 248 499 248 492 c 0
 249 484 256 481 267 481 c 0
 312 481 370 449 366 400 c 0
 364 374 334 347 305 347 c 0
 257 347 213 384 195 432 c 0
 192 438 187 438 182 434 c 0
 156 412 120 363 116 311 c 0
 104 141 228 46 413 46 c 0
 529 46 646 127 654 242 c 0
 660 320 590 383 522 383 c 0
 462 383 404 339 399 279 c 0
 396 227 426 177 478 177 c 0
 515 177 553 201 555 239 c 0
 558 274 541 291 512 291 c 0
 500 291 497 286 504 279 c 0
 509 273 510 265 509 255 c 0
 508 234 491 213 474 213 c 0
 451 213 435 232 437 255 c 0
 439 290 470 313 505 315 c 0
 541 316 576 281 574 247 c 0
 570 198 529 156 480 156 c 0
 414 156 372 216 377 280 c 0
 385 395 459 453 567 453 c 0
 611 453 635 443 678 443 c 0
 745 443 821 484 826 551 c 0
 829 599 805 638 752 638 c 0
 724 638 703 630 686 608 c 0
 681 602 690 594 697 595 c 0
 716 596 736 577 734 554 c 0
 733 533 717 514 693 514 c 0
 666 514 649 540 651 566 c 0
 654 614 703 660 749 660 c 0
 818 660 872 603 867 533 c 0
 859 417 737 363 637 369 c 0
 623 370 618 367 628 356 c 0
 651 330 675 287 672 236 c 0
 661 82 503 -6 342 -6 c 0
 195 -6 44 101 54 247 c 0
 61 343 108 421 179 457 c 0
 183 459 187 466 187 472 c 0
 186 480 186 487 186 495 c 0
 195 614 291 685 401 685 c 0
 472 685 533 635 528 564 c 0
 525 513 491 465 434 465 c 0
 385 465 338 496 342 545 c 0
 344 576 366 602 395 607 c 0
 407 609 425 595 398 585 c 0
 383 580 378 564 377 548 c 0
 375 520 402 498 431 498 c 0
 476 498 509 530 512 570 c 0
 516 626 465 667 408 667 c 0
EndSplineSet
EndChar

StartChar: quotesingle
Encoding: 39 39 7
Width: 210
Flags: W
HStem: 641 20G<285 355>
LayerCount: 2
Back
Fore
SplineSet
355 661 m 1
 159 498 l 1
 130 498 l 1
 285 661 l 1
 355 661 l 1
EndSplineSet
EndChar

StartChar: parenleft
Encoding: 40 40 8
Width: 330
Flags: W
LayerCount: 2
Back
Fore
SplineSet
468 648 m 0
 475 653 490 660 489 648 c 0
 488 639 481 636 473 629 c 0
 322 507 156 280 134 21 c 0
 128 -60 133 -118 155 -183 c 0
 157 -191 164 -194 158 -205 c 0
 152 -218 145 -207 142 -201 c 0
 100 -121 86 -34 94 77 c 0
 111 312 308 538 468 648 c 0
EndSplineSet
EndChar

StartChar: parenright
Encoding: 41 41 9
Width: 330
Flags: W
LayerCount: 2
Back
Fore
SplineSet
269 648 m 0
 265 653 255 660 248 648 c 0
 242 639 247 636 250 629 c 0
 314 507 318 280 155 21 c 0
 104 -60 57 -118 -11 -183 c 0
 -20 -191 -29 -194 -31 -205 c 0
 -33 -218 -19 -207 -11 -201 c 0
 87 -121 163 -34 235 77 c 0
 386 312 350 538 269 648 c 0
EndSplineSet
EndChar

StartChar: asterisk
Encoding: 42 42 10
Width: 506
Flags: W
LayerCount: 2
Back
Fore
SplineSet
507 449 m 0
 512 429 500 415 446 390 c 0
 387 361 347 359 309 339 c 1
 337 319 371 316 406 291 c 0
 441 266 442 246 423 227 c 0
 405 207 389 206 354 232 c 0
 315 260 309 293 282 311 c 1
 268 271 277 248 259 198 c 0
 241 147 221 130 199 130 c 0
 178 130 173 143 191 195 c 0
 211 252 236 274 248 311 c 1
 209 293 176 260 116 232 c 0
 63 206 48 207 44 227 c 0
 39 248 54 266 107 291 c 0
 159 316 198 318 240 338 c 1
 216 358 181 358 142 386 c 0
 107 412 105 429 124 449 c 0
 139 465 164 471 199 446 c 0
 233 421 242 389 270 369 c 1
 284 406 273 425 294 482 c 0
 312 533 324 546 347 546 c 0
 371 546 377 529 359 478 c 0
 341 428 317 408 303 368 c 1
 345 388 378 421 430 446 c 0
 483 471 503 467 507 449 c 0
EndSplineSet
EndChar

StartChar: plus
Encoding: 43 43 11
Width: 337
Flags: W
HStem: 274 42<61 174 229 344> 418 20G<220 262>
DStem2: 134 128 176 128 0.270364 0.962758<11.3553 151.377 206.921 321.708>
LayerCount: 2
Back
Fore
SplineSet
361 316 m 1
 344 274 l 1
 217 274 l 1
 176 128 l 1
 134 128 l 1
 174 274 l 1
 43 274 l 1
 61 316 l 1
 61 316 186 316 185 316 c 1
 220 438 l 1
 262 438 l 1
 229 316 l 1
 361 316 l 1
EndSplineSet
EndChar

StartChar: comma
Encoding: 44 44 12
Width: 188
Flags: W
LayerCount: 2
Back
Fore
SplineSet
92 0 m 0
 64 -30 26 -62 -13 -69 c 1
 -20 -56 l 1
 -2 -51 34 -25 28 -6 c 1
 -5 15 24 80 77 77 c 0
 123 74 112 23 92 0 c 0
EndSplineSet
EndChar

StartChar: hyphen
Encoding: 45 45 13
Width: 365
Flags: W
HStem: 276 42<73 357>
LayerCount: 2
Back
Fore
SplineSet
375 318 m 1
 357 276 l 1
 57 276 l 1
 74 318 l 1
 375 318 l 1
EndSplineSet
EndChar

StartChar: period
Encoding: 46 46 14
Width: 176
Flags: W
LayerCount: 2
Back
Fore
SplineSet
47 -31 m 0
 -14 -33 -17 58 43 60 c 0
 104 62 107 -29 47 -31 c 0
EndSplineSet
EndChar

StartChar: slash
Encoding: 47 47 15
Width: 370
Flags: W
DStem2: -20 -20 25 -20 0.618803 0.785546<27.8461 809.628>
LayerCount: 2
Back
Fore
SplineSet
526 616 m 1
 25 -20 l 1
 -20 -20 l 1
 481 616 l 1
 526 616 l 1
EndSplineSet
EndChar

StartChar: zero
Encoding: 48 48 16
Width: 522
Flags: W
LayerCount: 2
Back
Fore
SplineSet
445 600 m 0
 543 545 477 368 411 246 c 0
 335 106 134 -30 78 5 c 0
 -15 63 34 276 121 407 c 0
 202 530 340 659 445 600 c 0
429 590 m 0
 327 660 -18 144 71 34 c 0
 154 -70 560 500 429 590 c 0
EndSplineSet
EndChar

StartChar: one
Encoding: 49 49 17
Width: 522
Flags: W
HStem: 0 15<43 242>
LayerCount: 2
Back
Fore
SplineSet
487 611 m 1
 186 36 l 1
 183 32 181 28 183 23 c 0
 185 18 189 16 193 16 c 2
 251 16 l 1
 242 0 l 1
 36 0 l 1
 44 15 l 1
 90 15 l 2
 95 15 96 19 101 23 c 0
 106 27 109 28 111 33 c 1
 394 556 l 1
 309 530 l 1
 309 545 l 1
 487 611 l 1
EndSplineSet
EndChar

StartChar: two
Encoding: 50 50 18
Width: 522
Flags: W
HStem: 0 65<44 309>
DStem2: 314 65 309 0 0.447214 0.894427<0 54.1128>
LayerCount: 2
Back
Fore
SplineSet
553 483 m 0
 547 391 476 347 393 306 c 0
 319 269 158 244 79 128 c 0
 64 105 54 90 44 65 c 1
 314 65 l 1
 339 113 l 1
 364 110 l 1
 309 0 l 1
 -31 0 l 1
 -31 25 l 1
 13 98 44 137 106 195 c 0
 207 290 349 330 413 378 c 0
 472 421 504 509 443 553 c 0
 392 590 337 566 277 531 c 0
 252 516 241 501 225 476 c 1
 215 476 l 1
 217 493 l 1
 236 561 343 620 430 614 c 0
 499 609 557 553 553 483 c 0
EndSplineSet
EndChar

StartChar: three
Encoding: 51 51 19
Width: 522
Flags: W
LayerCount: 2
Back
Fore
SplineSet
495 509 m 0
 503 443 454 401 394 374 c 0
 372 364 357 361 333 360 c 1
 349 343 358 331 368 310 c 0
 416 218 401 117 322 50 c 0
 261 -2 191 -18 123 13 c 0
 64 40 22 85 26 151 c 0
 30 216 119 212 117 152 c 0
 116 124 89 101 61 107 c 1
 73 77 85 60 112 42 c 0
 191 -10 294 50 312 80 c 0
 352 143 357 210 315 271 c 0
 294 303 274 319 238 333 c 1
 242 354 l 1
 263 356 276 358 296 365 c 0
 370 390 439 442 432 514 c 0
 428 556 395 579 355 589 c 0
 307 602 254 584 227 538 c 1
 215 554 l 1
 253 604 300 619 361 616 c 0
 404 614 488 576 495 509 c 0
EndSplineSet
EndChar

StartChar: four
Encoding: 52 52 20
Width: 522
Flags: W
HStem: 0 21G<161 224> 180 63<79 255 347 394>
DStem2: -14 195 79 243 0.778976 0.627053<102.543 562.008> 161 0 224 0 0.462903 0.886409<29.1629 203.066 300.957 598.431>
LayerCount: 2
Back
Fore
SplineSet
537 616 m 1
 347 243 l 1
 452 243 l 1
 394 180 l 1
 316 180 l 1
 224 0 l 1
 161 0 l 1
 255 180 l 1
 -14 180 l 1
 -14 195 l 1
 509 616 l 1
 537 616 l 1
437 531 m 1
 79 243 l 1
 287 243 l 1
 437 531 l 1
EndSplineSet
EndChar

StartChar: five
Encoding: 53 53 21
Width: 522
Flags: W
HStem: 554 62<248 464>
DStem2: 101 344 163 404 0.475449 0.879743<82.2624 257.014>
LayerCount: 2
Back
Fore
SplineSet
539 639 m 1
 513 591 l 2
 507 579 501 572 490 564 c 0
 480 557 472 554 460 554 c 2
 253 554 l 1
 163 404 l 1
 191 407 207 405 234 399 c 0
 311 383 373 302 377 231 c 0
 384 102 277 -15 138 1 c 0
 61 10 -24 68 -17 137 c 0
 -10 202 87 194 79 125 c 0
 75 91 47 86 22 91 c 1
 25 83 29 79 33 73 c 0
 66 28 110 18 164 22 c 0
 261 29 336 128 312 222 c 0
 298 280 263 312 207 335 c 0
 176 347 156 351 121 347 c 0
 113 346 109 346 101 344 c 1
 248 616 l 1
 501 616 l 1
 519 639 l 1
 539 639 l 1
EndSplineSet
EndChar

StartChar: six
Encoding: 54 54 22
Width: 522
Flags: W
LayerCount: 2
Back
Fore
SplineSet
443 245 m 0
 437 187 391 75 297 24 c 0
 238 -8 179 -14 121 37 c 0
 25 123 110 302 152 367 c 0
 202 444 283 564 413 618 c 1
 409 590 l 1
 358 551 330 526 288 476 c 0
 254 435 236 409 209 362 c 1
 217 369 223 373 232 378 c 0
 265 397 287 410 324 407 c 0
 403 402 456 351 443 245 c 0
328 381 m 0
 175 431 46 102 174 32 c 0
 323 -50 499 325 328 381 c 0
EndSplineSet
EndChar

StartChar: seven
Encoding: 55 55 23
Width: 522
Flags: W
HStem: 0 21G<150 203> 553 63<222 492>
LayerCount: 2
Back
Fore
SplineSet
553 593 m 1
 440 447 383 358 297 195 c 0
 258 121 237 78 203 0 c 1
 150 0 l 1
 192 83 217 129 265 210 c 0
 346 349 396 425 492 553 c 1
 242 553 l 2
 232 553 224 553 216 548 c 0
 209 544 205 539 201 532 c 2
 184 501 l 1
 169 498 l 1
 222 616 l 1
 553 616 l 1
 553 593 l 1
EndSplineSet
EndChar

StartChar: eight
Encoding: 56 56 24
Width: 522
Flags: W
HStem: 0 13<202 228>
VStem: 43 41<154 174.866>
LayerCount: 2
Back
Fore
SplineSet
478 504 m 0
 489 437 453 390 384 355 c 0
 356 341 330 337 303 334 c 1
 315 321 326 309 338 290 c 0
 363 248 391 226 393 177 c 0
 396 71 315 1 218 0 c 0
 127 -1 44 63 43 154 c 0
 41 250 125 303 158 321 c 0
 182 334 203 340 224 343 c 1
 218 354 212 366 208 378 c 0
 182 447 172 487 225 558 c 0
 259 604 304 619 362 616 c 0
 430 613 468 567 478 504 c 0
438 513 m 0
 428 561 418 604 348 600 c 0
 307 598 280 581 256 547 c 0
 219 495 243 444 267 386 c 0
 273 372 281 361 289 351 c 1
 306 353 324 356 344 361 c 0
 411 380 451 444 438 513 c 0
339 119 m 0
 347 208 284 253 237 322 c 1
 232 320 226 318 221 316 c 0
 145 282 81 235 84 152 c 0
 86 80 121 14 214 13 c 0
 277 12 333 55 339 119 c 0
EndSplineSet
EndChar

StartChar: nine
Encoding: 57 57 25
Width: 522
Flags: W
HStem: 0 21G<120 141>
LayerCount: 2
Back
Fore
SplineSet
500 421 m 0
 481 343 392 179 265 78 c 0
 221 43 192 25 141 0 c 1
 120 0 l 1
 164 36 189 59 230 100 c 0
 301 172 338 217 395 301 c 1
 383 287 375 280 359 270 c 0
 302 234 239 205 182 255 c 0
 105 321 151 470 181 516 c 0
 243 608 333 621 390 616 c 0
 501 607 525 528 500 421 c 0
410 596 m 0
 252 654 102 340 233 269 c 0
 386 186 575 536 410 596 c 0
EndSplineSet
EndChar

StartChar: less
Encoding: 60 60 28
Width: 491
Flags: W
DStem2: 136 328 50 321 0.902134 -0.431455<0 323.945> 57 351 140 341 0.942428 0.33441<74.8774 460.999>
LayerCount: 2
Back
Fore
SplineSet
522 516 m 1
 505 467 l 1
 140 341 l 1
 136 328 l 1
 431 194 l 1
 418 145 l 1
 50 321 l 1
 57 351 l 1
 522 516 l 1
EndSplineSet
EndChar

StartChar: equal
Encoding: 61 61 29
Width: 365
Flags: W
HStem: 219 42<49 333> 334 42<89 373>
LayerCount: 2
Back
Fore
SplineSet
391 376 m 1
 373 334 l 1
 73 334 l 1
 90 376 l 1
 391 376 l 1
351 261 m 1
 333 219 l 1
 33 219 l 1
 50 261 l 1
 351 261 l 1
EndSplineSet
EndChar

StartChar: greater
Encoding: 62 62 30
Width: 526
Flags: W
DStem2: 44 174 30 125 0.934998 0.354654<0 389.733> 130 496 117 447 0.91371 -0.406367<8.03375 329.694>
LayerCount: 2
Back
Fore
SplineSet
501 331 m 1
 494 301 l 1
 30 125 l 1
 44 174 l 1
 410 308 l 1
 413 321 l 1
 117 447 l 1
 130 496 l 1
 501 331 l 1
EndSplineSet
EndChar

StartChar: question
Encoding: 63 63 31
Width: 350
Flags: HW
HStem: 106 20<156 174> 151 69<172 181> 471 23<213 229> 650 27<271 295>
LayerCount: 2
Back
Fore
SplineSet
204 172 m 0
 202 164 188 151 175 151 c 0
 156 151 142 167 144 187 c 0
 145 206 163 220 181 220 c 0
 212 220 232 193 230 163 c 0
 227 127 192 106 156 106 c 0
 101 106 64 157 68 208 c 0
 80 374 370 402 379 536 c 0
 384 599 346 650 271 650 c 0
 234 650 172 608 168 556 c 0
 166 526 184 494 214 494 c 0
 219 494 227 495 227 500 c 0
 227 504 227 506 224 509 c 0
 213 520 210 530 211 545 c 0
 213 571 231 595 256 595 c 0
 285 595 308 574 306 545 c 0
 303 506 269 471 229 471 c 0
 173 471 148 506 152 561 c 0
 157 631 225 677 295 677 c 0
 370 677 442 609 436 514 c 0
 424 344 118 299 110 185 c 0
 108 148 136 126 174 126 c 0
 194 126 213 147 214 164 c 0
 215 170 215 177 209 177 c 0
 205 177 206 176 204 172 c 0
72 -31 m 0
 11 -33 8 58 69 60 c 0
 130 62 133 -29 72 -31 c 0
EndSplineSet
EndChar

StartChar: at
Encoding: 64 64 32
Width: 746
Flags: W
HStem: 700 38<570 589>
DStem2: 486 265 588 287 0.258323 0.966059<47.6023 228.74>
LayerCount: 2
Back
Fore
SplineSet
771 355 m 0
 738 275 675 169 610 180 c 0
 568 187 546 219 532 260 c 1
 506 226 464 168 400 166 c 0
 74 156 264 587 542 577 c 0
 571 576 578 548 595 525 c 1
 661 560 l 1
 588 287 l 2
 580 257 596 222 627 219 c 256
 667 215 719 301 739 374 c 0
 794 575 714 698 570 700 c 0
 189 704 -122 62 402 33 c 0
 498 28 563 48 639 109 c 1
 710 128 l 1
 623 25 526 -11 391 -9 c 0
 -202 2 139 750 580 738 c 0
 747 734 852 549 771 355 c 0
545 486 m 1
 525 504 513 518 486 520 c 0
 366 528 267 211 417 219 c 256
 449 221 464 241 486 265 c 1
 545 486 l 1
EndSplineSet
EndChar

StartChar: A
Encoding: 65 65 33
Width: 618
Flags: W
HStem: 0 17<-16 209 354 530> 362 19<461 586>
DStem2: 148 107 461 381 0.729736 0.683729<415.749 748.965 30.1889 388.164> 595 381 507 78 0.431141 0.902285<0 252.715>
LayerCount: 2
Back
Fore
SplineSet
798 687 m 1
 507 78 l 2
 503 70 477 17 502 17 c 2
 534 17 l 1
 530 0 l 1
 353 0 l 1
 355 17 l 1
 394 17 l 2
 416 17 438 50 446 68 c 1
 446 68 587 362 586 362 c 2
 441 362 l 1
 180 117 l 2
 144 83 140 19 176 18 c 2
 211 17 l 1
 209 0 l 1
 -18 0 l 1
 -15 17 l 1
 5 17 l 2
 41 17 123 84 148 107 c 2
 719 642 l 1
 728 659 l 1
 798 687 l 1
704 609 m 1
 461 381 l 1
 595 381 l 1
 704 609 l 1
EndSplineSet
EndChar

StartChar: B
Encoding: 66 66 34
Width: 573
Flags: W
HStem: 0 18<25 311> 0 23<176.022 304> 363 19<323 431> 639 22<325 560> 644 17<324 368>
DStem2: 116 70 323 382 0.433164 0.901315<370.875 600.234 17.0817 349.852>
LayerCount: 2
Back
Fore
SplineSet
669 528 m 0
 650 432 578 385 486 369 c 1
 539 342 561 271 554 215 c 0
 536 87 440 0 311 0 c 2
 15 0 l 1
 26 18 l 1
 47 18 l 2
 79 18 102 43 116 70 c 1
 376 611 l 2
 385 630 385 644 360 644 c 2
 320 644 l 1
 325 661 l 1
 555 661 l 2
 625 661 685 617 669 528 c 0
624 561 m 0
 635 622 579 639 547 639 c 2
 479 639 l 2
 451 639 437 621 427 598 c 1
 323 382 l 1
 410 382 l 2
 518 382 605 457 624 561 c 0
505 252 m 0
 510 299 483 363 429 363 c 2
 314 363 l 1
 170 63 l 1
 155 33 156 23 192 23 c 2
 287 23 l 2
 411 23 497 189 505 252 c 0
EndSplineSet
EndChar

StartChar: C
Encoding: 67 67 35
Width: 436
Flags: W
HStem: -2 18<124 142> 673 21G<398.5 530>
LayerCount: 2
Back
Fore
SplineSet
633 637 m 1
 527 432 l 1
 516 432 l 1
 524 481 l 2
 535 548 537 653 492 651 c 0
 340 643 122 326 72 110 c 0
 62 68 96 16 140 16 c 0
 221 16 303 87 366 174 c 2
 412 237 l 1
 429 234 l 1
 323 7 l 1
 303 10 l 1
 306 27 l 2
 309 42 308 63 293 63 c 0
 270 62 248 -2 124 -2 c 0
 27 -2 15 76 25 144 c 0
 61 374 310 673 487 673 c 0
 573 673 548 612 563 612 c 0
 576 612 582 620 592 628 c 2
 615 645 l 1
 633 637 l 1
EndSplineSet
EndChar

StartChar: D
Encoding: 68 68 36
Width: 710
Flags: W
HStem: 0 18<28 327> 0 23<178.673 339> 639 22<328 611> 644 17<327 371>
DStem2: 119 70 173 63 0.433164 0.901315<17.0817 600.234>
LayerCount: 2
Back
Fore
SplineSet
751 411 m 0
 708 183 558 0 327 0 c 2
 18 0 l 1
 29 18 l 1
 49 18 l 2
 81 18 105 42 119 70 c 1
 379 611 l 1
 388 631 387 644 362 644 c 2
 322 644 l 1
 328 661 l 1
 592 661 l 2
 707 661 776 548 751 411 c 0
711 466 m 0
 728 549 679 639 599 639 c 2
 483 639 l 2
 456 639 440 620 430 598 c 1
 173 63 l 1
 158 33 158 23 195 23 c 2
 324 23 l 2
 553 23 677 307 711 466 c 0
EndSplineSet
EndChar

StartChar: E
Encoding: 69 69 37
Width: 584
Flags: W
HStem: 0 18<13 456> 0 23<165.469 366> 339 27<309 420> 639 22<313 644> 644 17<312 355>
DStem2: 104 70 156 63 0.433164 0.901315<16.2153 326.054> 104 70 309 366 0.433164 0.901315<355.588 600.234>
LayerCount: 2
Back
Fore
SplineSet
747 661 m 1
 677 496 l 1
 671 501 l 1
 677 536 l 2
 682 566 682 639 636 639 c 2
 467 639 l 2
 440 639 424 621 414 598 c 2
 309 366 l 1
 438 366 l 2
 482 366 501 384 526 416 c 2
 546 441 l 1
 559 446 l 1
 457 228 l 1
 446 223 l 1
 453 248 l 2
 465 292 464 339 406 339 c 2
 297 339 l 1
 156 63 l 2
 144 40 144 23 178 23 c 2
 353 23 l 2
 416 23 460 92 495 135 c 2
 532 180 l 1
 540 170 l 1
 456 0 l 1
 3 0 l 1
 14 18 l 1
 35 18 l 2
 68 18 91 43 104 70 c 2
 364 611 l 2
 373 630 373 644 348 644 c 2
 308 644 l 1
 313 661 l 1
 747 661 l 1
EndSplineSet
EndChar

StartChar: F
Encoding: 70 70 38
Width: 581
Flags: W
HStem: 0 18<-1 212> 359 22<314 426> 638 23<322 667> 643 18<321 360>
DStem2: 95 74 314 381 0.466292 0.884631<373.7 604.772 11.8144 349.109>
LayerCount: 2
Back
Fore
SplineSet
782 661 m 1
 708 487 l 1
 701 492 l 1
 708 528 l 2
 715 565 722 638 665 638 c 2
 481 638 l 2
 458 638 436 613 426 595 c 1
 314 381 l 1
 447 381 l 2
 490 381 515 406 540 437 c 2
 561 463 l 1
 575 468 l 1
 467 238 l 1
 456 233 l 1
 463 259 l 2
 475 303 473 359 413 359 c 2
 303 359 l 1
 145 61 l 2
 132 36 136 18 167 18 c 258
 218 18 l 1
 212 0 l 1
 -12 0 l 1
 0 18 l 1
 26 18 l 258
 59 18 81 48 95 74 c 2
 377 609 l 2
 388 630 384 643 358 643 c 2
 315 643 l 1
 322 661 l 1
 782 661 l 1
EndSplineSet
EndChar

StartChar: G
Encoding: 71 71 39
Width: 480
Flags: W
HStem: 322 22<411 452 412 568>
DStem2: 382 146 398 46 0.373129 0.92778<0 189.408>
LayerCount: 2
Back
Fore
SplineSet
647 637 m 1
 541 432 l 1
 530 432 l 1
 538 481 l 2
 549 548 552 652 507 654 c 0
 307 661 152 364 116 184 c 0
 101 107 142 9 220 9 c 0
 301 9 351 69 382 146 c 2
 452 322 l 1
 402 322 l 1
 412 344 l 1
 581 344 l 1
 568 322 l 1
 509 322 l 1
 398 46 l 1
 378 64 l 1
 358 38 295 -6 226 -8 c 0
 66 -14 48 119 69 227 c 0
 113 448 299 668 501 673 c 0
 564 674 563 612 578 612 c 0
 590 612 596 620 606 628 c 2
 629 645 l 1
 647 637 l 1
EndSplineSet
EndChar

StartChar: H
Encoding: 72 72 40
Width: 631
Flags: W
HStem: 0 18<14 210 365 562> 341 23<302 588> 644 17<313 358 314 500 665 709 666 853>
DStem2: 105 70 302 364 0.433164 0.901315<350.32 600.234 11.2756 325.258> 457 70 508 58 0.433964 0.90093<11.321 301.001 326.93 600.234>
LayerCount: 2
Back
Fore
SplineSet
858 661 m 1
 853 644 l 1
 829 644 l 258
 805 644 781 625 771 604 c 2
 508 58 l 2
 495 31 499 18 530 18 c 258
 568 18 l 1
 562 0 l 1
 356 0 l 1
 366 18 l 1
 391 18 l 258
 422 18 445 44 457 70 c 1
 588 341 l 1
 292 341 l 1
 156 58 l 2
 143 31 143 18 177 18 c 258
 216 18 l 1
 210 0 l 1
 4 0 l 1
 15 18 l 1
 31 18 l 258
 67 18 90 39 105 70 c 2
 365 611 l 2
 375 631 374 644 348 644 c 258
 308 644 l 1
 314 661 l 1
 506 661 l 1
 500 644 l 1
 474 644 l 258
 453 644 428 622 419 604 c 2
 302 364 l 1
 600 364 l 1
 717 611 l 2
 726 631 729 644 701 644 c 258
 661 644 l 1
 666 661 l 1
 858 661 l 1
EndSplineSet
EndChar

StartChar: I
Encoding: 73 73 41
Width: 312
Flags: W
HStem: 0 18<17 217> 644 17<317 360 318 509>
DStem2: 108 70 159 58 0.432624 0.901575<11.2449 600.234>
LayerCount: 2
Back
Fore
SplineSet
515 661 m 1
 509 644 l 1
 478 644 l 258
 457 644 430 623 421 604 c 2
 159 58 l 1
 147 31 149 18 181 18 c 258
 223 18 l 1
 217 0 l 1
 7 0 l 1
 18 18 l 1
 45 18 l 258
 74 18 97 46 108 70 c 1
 368 611 l 2
 378 631 380 644 352 644 c 258
 312 644 l 1
 318 661 l 1
 515 661 l 1
EndSplineSet
EndChar

StartChar: J
Encoding: 74 74 42
Width: 373
Flags: W
HStem: 644 17<406 443 407 598>
DStem2: 217 105 278 115 0.428547 0.90352<35.1766 560.032>
LayerCount: 2
Back
Fore
SplineSet
604 661 m 1
 598 644 l 1
 573 644 l 258
 547 644 522 627 511 604 c 2
 278 115 l 2
 245 45 194 4 116 0 c 0
 59 -3 13 12 7 60 c 0
 2 98 11 129 42 150 c 0
 98 188 143 115 100 75 c 0
 79 55 48 52 28 73 c 1
 38 46 48 20 78 20 c 0
 142 20 190 48 217 105 c 2
 457 611 l 2
 466 631 469 644 441 644 c 258
 401 644 l 1
 407 661 l 1
 604 661 l 1
EndSplineSet
EndChar

StartChar: K
Encoding: 75 75 43
Width: 656
Flags: W
HStem: 0 18<0 200 372 554> 644 17<299 492 617 650 618 864>
DStem2: 91 70 263 307 0.433164 0.901315<288.116 600.234 10.8424 260.385> 263 307 445 410 0.828079 0.560612<208.453 467.347 0 144.944> 445 410 392 375 0.111893 -0.99372<28.8499 343.689>
LayerCount: 2
Back
Fore
SplineSet
870 661 m 1
 864 644 l 1
 839 644 l 258
 802 644 708 583 677 563 c 2
 445 410 l 1
 487 37 l 2
 489 20 509 18 523 18 c 258
 562 18 l 1
 554 0 l 1
 365 0 l 1
 373 18 l 1
 398 18 l 258
 424 18 428 42 426 62 c 1
 392 375 l 1
 251 282 l 1
 141 58 l 2
 129 34 134 18 163 18 c 258
 206 18 l 1
 200 0 l 1
 -10 0 l 1
 1 18 l 1
 24 18 l 258
 55 18 78 44 91 70 c 2
 351 611 l 2
 360 630 360 644 335 644 c 258
 295 644 l 1
 300 661 l 1
 497 661 l 1
 492 644 l 1
 467 644 l 258
 440 644 416 628 405 604 c 2
 263 307 l 1
 650 569 l 2
 686 593 675 644 642 644 c 258
 612 644 l 1
 618 661 l 1
 870 661 l 1
EndSplineSet
EndChar

StartChar: L
Encoding: 76 76 44
Width: 547
Flags: W
HStem: 0 18<32 456> 644 17<341 376 342 542>
DStem2: 131 58 185 50 0.435302 0.900284<16.3041 606.475>
LayerCount: 2
Back
Fore
SplineSet
552 661 m 1
 542 644 l 1
 514 644 l 258
 480 644 459 619 446 591 c 1
 185 50 l 2
 175 29 176 18 202 18 c 258
 335 18 l 2
 392 18 461 93 493 135 c 2
 516 165 l 1
 536 172 l 1
 456 0 l 1
 23 0 l 1
 33 18 l 1
 80 18 l 258
 109 18 120 35 131 58 c 2
 395 604 l 2
 408 630 397 644 368 644 c 258
 336 644 l 1
 342 661 l 1
 552 661 l 1
EndSplineSet
EndChar

StartChar: M
Encoding: 77 77 45
Width: 805
Flags: W
HStem: 0 18<5 235 487 689> 644 17<431 490 849 969>
DStem2: 169 123 183 120 0.538662 0.842522<5.0137 547.101> 320 0 402 95 0.255893 0.966705<112.82 597.907> 402 95 346 0 0.62067 0.784072<0 680.224> 579 70 630 58 0.423969 0.905677<10.7543 606.177>
LayerCount: 2
Back
Fore
SplineSet
975 661 m 1
 969 644 l 1
 945 644 l 2
 921 644 897 625 887 604 c 2
 630 58 l 1
 618 31 620 18 652 18 c 258
 694 18 l 1
 689 0 l 1
 478 0 l 1
 488 18 l 1
 510 18 l 258
 543 18 566 42 579 70 c 2
 836 619 l 1
 346 0 l 1
 320 0 l 1
 473 578 l 1
 183 120 l 2
 163 88 168 18 214 18 c 258
 240 18 l 1
 235 0 l 1
 0 0 l 1
 6 18 l 1
 38 18 l 258
 87 18 146 86 169 123 c 2
 481 611 l 1
 490 644 l 1
 425 644 l 1
 432 661 l 1
 552 661 l 1
 402 95 l 1
 849 661 l 1
 975 661 l 1
EndSplineSet
EndChar

StartChar: N
Encoding: 78 78 46
Width: 696
Flags: W
HStem: 0 18<12 247> 644 17<359 425 700 723 701 929>
DStem2: 175 137 205 154 0.442253 0.89689<28.5147 544.609> 486 661 433 617 0.0951898 -0.995459<38.7551 565.584> 540 98 515 0 0.417575 0.908643<0 499.209>
LayerCount: 2
Back
Fore
SplineSet
935 661 m 1
 929 644 l 1
 900 644 l 258
 847 644 785 589 765 544 c 1
 515 0 l 1
 492 0 l 1
 433 617 l 1
 205 154 l 1
 188 121 170 18 226 18 c 258
 253 18 l 1
 247 0 l 1
 2 0 l 1
 13 18 l 1
 40 18 l 258
 96 18 152 92 175 137 c 1
 425 644 l 1
 356 644 l 1
 360 661 l 1
 486 661 l 1
 540 98 l 1
 749 553 l 2
 767 593 766 644 710 644 c 258
 697 644 l 1
 701 661 l 1
 935 661 l 1
EndSplineSet
EndChar

StartChar: O
Encoding: 79 79 47
Width: 523
Flags: W
LayerCount: 2
Back
Fore
SplineSet
526 298 m 0
 450 124 217 -63 109 10 c 0
 -15 94 74 311 175 453 c 0
 261 574 382 689 497 656 c 0
 650 612 582 427 526 298 c 0
491 646 m 0
 317 687 -10 115 117 23 c 0
 288 -102 689 599 491 646 c 0
EndSplineSet
EndChar

StartChar: P
Encoding: 80 80 48
Width: 509
Flags: W
HStem: 0 18<10 204> 361 20<307 413> 636 25<310 551> 644 17<309 353>
DStem2: 101 70 307 381 0.433164 0.901315<369.541 600.234 10.4093 347.183>
LayerCount: 2
Back
Fore
SplineSet
656 528 m 0
 641 424 512 361 389 361 c 2
 297 361 l 1
 150 58 l 2
 137 32 140 18 172 18 c 258
 210 18 l 1
 204 0 l 1
 0 0 l 1
 11 18 l 1
 33 18 l 258
 65 18 88 43 101 70 c 2
 361 611 l 2
 370 630 370 644 345 644 c 2
 305 644 l 1
 310 661 l 1
 536 661 l 2
 605 661 671 632 656 528 c 0
608 561 m 0
 614 598 586 636 549 636 c 2
 464 636 l 2
 451 636 443 633 433 625 c 0
 421 616 417 609 411 596 c 2
 307 381 l 1
 394 381 l 2
 503 381 590 462 608 561 c 0
EndSplineSet
EndChar

StartChar: Q
Encoding: 81 81 49
Width: 518
Flags: W
LayerCount: 2
Back
Fore
SplineSet
540 298 m 0
 482 163 330 22 214 -3 c 1
 257 -15 283 -43 341 -53 c 0
 372 -58 401 -43 411 -14 c 1
 421 -11 l 1
 415 -77 367 -95 307 -98 c 0
 232 -102 197 -24 130 -24 c 0
 113 -24 102 -30 94 -38 c 1
 116 -31 135 -48 132 -66 c 0
 123 -119 53 -116 62 -62 c 0
 68 -24 98 -3 135 3 c 1
 131 5 128 8 124 10 c 0
 -1 94 85 313 187 456 c 0
 273 577 396 689 512 656 c 0
 664 612 596 427 540 298 c 0
505 646 m 0
 332 687 5 115 131 23 c 0
 303 -102 704 599 505 646 c 0
EndSplineSet
EndChar

StartChar: R
Encoding: 82 82 50
Width: 614
Flags: W
HStem: 0 18<24 219 530 550> 366 16<321 410> 639 22<324 565> 644 17<323 367>
DStem2: 115 70 321 382 0.433164 0.901315<370.442 600.234 10.8424 352.556>
LayerCount: 2
Back
Fore
SplineSet
685 528 m 0
 668 435 578 382 476 369 c 1
 480 366 484 361 486 356 c 0
 496 326 489 205 500 110 c 0
 501 97 511 18 532 18 c 2
 559 18 l 1
 550 0 l 1
 464 0 l 1
 457 8 453 29 450 48 c 0
 431 156 440 270 431 329 c 0
 428 343 425 361 410 366 c 1
 313 366 l 1
 165 58 l 2
 152 31 156 18 187 18 c 258
 225 18 l 1
 219 0 l 1
 14 0 l 1
 25 18 l 1
 45 18 l 258
 77 18 101 43 115 70 c 1
 375 611 l 2
 384 630 384 644 359 644 c 2
 319 644 l 1
 324 661 l 1
 551 661 l 2
 624 661 704 638 685 528 c 0
629 561 m 0
 635 598 603 639 563 639 c 2
 477 639 l 2
 451 639 434 619 424 598 c 2
 321 382 l 1
 411 382 l 2
 520 382 611 452 629 561 c 0
EndSplineSet
EndChar

StartChar: S
Encoding: 83 83 51
Width: 417
Flags: W
HStem: 654 15<373 402>
LayerCount: 2
Back
Fore
SplineSet
575 639 m 1
 492 441 l 1
 473 443 l 1
 480 462 480 474 482 493 c 0
 490 575 457 654 388 654 c 0
 321 654 262 617 250 551 c 0
 218 378 429 301 397 161 c 0
 372 52 280 -3 180 -3 c 0
 77 -4 65 53 43 53 c 0
 29 53 17 48 6 35 c 2
 -13 13 l 1
 -26 15 l 1
 58 248 l 1
 73 248 l 1
 66 230 63 209 63 183 c 0
 63 104 74 11 184 19 c 0
 253 24 306 59 325 125 c 0
 371 283 153 376 182 508 c 0
 203 603 285 669 394 669 c 0
 488 669 503 602 519 603 c 0
 533 604 538 612 546 623 c 2
 560 641 l 1
 575 639 l 1
EndSplineSet
EndChar

StartChar: T
Encoding: 84 84 52
Width: 625
Flags: W
HStem: 0 18<27 224> 639 22<195 551>
DStem2: 119 70 170 58 0.433816 0.901002<11.3126 594.428>
LayerCount: 2
Back
Fore
SplineSet
670 661 m 1
 587 474 l 1
 570 486 l 1
 587 519 603 639 548 639 c 2
 482 639 l 258
 456 639 440 619 430 598 c 2
 170 58 l 2
 158 33 161 18 191 18 c 258
 230 18 l 1
 224 0 l 1
 18 0 l 1
 28 18 l 1
 53 18 l 258
 83 18 107 45 119 70 c 2
 376 606 l 2
 386 626 388 639 360 639 c 258
 312 639 l 2
 251 639 181 558 148 508 c 1
 124 498 l 1
 195 661 l 1
 670 661 l 1
EndSplineSet
EndChar

StartChar: U
Encoding: 85 85 53
Width: 544
Flags: W
HStem: 642 19<187 232 188 378 523 552 524 748>
DStem2: 45 197 84 160 0.42738 0.904072<0 456.244> 382 160 366 105 0.453457 0.891278<0 390.411>
LayerCount: 2
Back
Fore
SplineSet
756 661 m 1
 748 644 l 1
 716 644 l 258
 655 644 592 550 569 504 c 2
 366 105 l 2
 338 51 250 -5 146 0 c 0
 33 6 -4 94 45 197 c 2
 241 609 l 2
 252 632 249 642 222 642 c 2
 181 642 l 1
 188 661 l 1
 384 661 l 1
 378 644 l 1
 351 644 l 2
 323 644 303 623 292 600 c 2
 84 160 l 2
 49 86 114 35 198 28 c 0
 286 21 345 86 382 160 c 2
 557 509 l 2
 573 540 605 644 541 644 c 258
 517 644 l 1
 524 661 l 1
 756 661 l 1
EndSplineSet
EndChar

StartChar: V
Encoding: 86 86 54
Width: 485
Flags: W
HStem: 644 17<133 152 134 303 448 690>
DStem2: 2 0 81 83 0.280313 0.959909<101.817 613.6> 81 83 59 28 0.678675 0.734438<0 591.63>
LayerCount: 2
Back
Fore
SplineSet
693 661 m 1
 690 644 l 1
 670 644 l 258
 635 644 587 599 558 568 c 2
 59 28 l 1
 2 0 l 1
 174 589 l 2
 182 616 187 644 150 644 c 258
 132 644 l 1
 134 661 l 1
 305 661 l 1
 303 644 l 1
 280 644 l 258
 248 644 238 614 231 589 c 1
 81 83 l 1
 482 518 l 2
 519 559 537 644 460 644 c 258
 447 644 l 1
 449 661 l 1
 693 661 l 1
EndSplineSet
EndChar

StartChar: W
Encoding: 87 87 55
Width: 829
Flags: W
HStem: 0 21G<7 28> 644 17<140 168 141 303 360 380 361 531 645 680 646 886>
DStem2: 7 0 104 124 0.286303 0.958139<146.581 614.733> 104 124 28 0 0.623975 0.781445<0 363.712 409.176 560.417> 229 0 318 110 0.282383 0.959302<130.655 413.599>
LayerCount: 2
Back
Fore
SplineSet
888 661 m 1
 886 644 l 1
 864 644 l 2
 829 644 775 592 753 568 c 2
 242 3 l 1
 229 0 l 1
 345 397 l 1
 28 0 l 1
 7 0 l 1
 183 589 l 1
 191 614 192 644 158 644 c 258
 139 644 l 1
 141 661 l 1
 305 661 l 1
 303 644 l 1
 288 644 l 258
 263 644 244 609 238 589 c 2
 104 124 l 1
 359 444 l 1
 402 589 l 1
 410 614 413 644 378 644 c 258
 359 644 l 1
 361 661 l 1
 533 661 l 1
 531 644 l 1
 511 644 l 258
 486 644 465 609 459 589 c 2
 318 110 l 1
 678 518 l 2
 711 555 753 644 670 644 c 2
 643 644 l 1
 646 661 l 1
 888 661 l 1
EndSplineSet
EndChar

StartChar: X
Encoding: 88 88 56
Width: 553
Flags: W
HStem: 0 16<457 484> 0 21<318 484> 0 24<-67 175> 644 17<261 275 528 733> 647 14<262 430 527 545>
DStem2: 172 173 201 184 0.694292 0.719693<28.0511 226.085 311.178 489.875> 367 597 308 619 0.100931 -0.994893<0 201.098>
LayerCount: 2
Back
Fore
SplineSet
735 661 m 1
 732 645 l 1
 714 645 l 2
 663 645 552 550 521 517 c 2
 389 380 l 1
 390 380 422 57 422 57 c 1
 424 39 445 16 464 16 c 2
 486 16 l 1
 484 0 l 1
 315 0 l 1
 319 21 l 1
 339 21 l 2
 370 21 366 50 364 71 c 1
 338 327 l 1
 201 184 l 2
 177 159 40 24 153 24 c 2
 179 24 l 1
 175 0 l 1
 -70 0 l 1
 -66 24 l 1
 -35 24 l 2
 24 24 133 133 172 173 c 2
 336 343 l 1
 308 619 l 1
 306 634 287 644 273 644 c 2
 260 644 l 1
 262 661 l 1
 432 661 l 1
 430 647 l 1
 406 647 l 2
 375 647 364 626 367 597 c 2
 388 397 l 1
 512 526 l 2
 526 540 611 648 543 648 c 2
 526 648 l 1
 528 661 l 1
 735 661 l 1
EndSplineSet
EndChar

StartChar: Y
Encoding: 89 89 57
Width: 447
Flags: W
HStem: 0 22<-20 179> 0 25<137 179> 644 17<469 488 470 668>
VStem: 197 57<365 606>
DStem2: 73 60 137 77 0.376621 0.926367<39.852 289.245> 254 354 231 308 0.749124 0.66243<0 303.373>
LayerCount: 2
Back
Fore
SplineSet
674 661 m 1
 668 642 l 1
 649 642 l 2
 625 642 585 621 568 606 c 2
 231 308 l 1
 137 77 l 1
 135 71 115 25 144 25 c 2
 182 25 l 1
 179 0 l 1
 -25 0 l 1
 -19 22 l 1
 8 22 l 2
 40 22 59 25 73 60 c 2
 197 365 l 1
 199 598 l 1
 199 616 185 639 165 639 c 2
 140 639 l 1
 144 661 l 1
 323 661 l 1
 320 639 l 1
 301 639 l 2
 280 639 256 623 256 600 c 1
 254 354 l 1
 483 553 l 2
 511 578 520 644 481 644 c 2
 467 644 l 1
 470 661 l 1
 674 661 l 1
EndSplineSet
EndChar

StartChar: Z
Encoding: 90 90 58
Width: 520
Flags: W
HStem: 0 18<52 379> 642 19<316 612>
DStem2: -23 18 51 35 0.721028 0.692906<65.1354 881.218>
LayerCount: 2
Back
Fore
SplineSet
695 661 m 1
 692 651 l 1
 51 35 l 1
 42 28 45 18 60 18 c 2
 273 18 l 1
 474 183 l 1
 503 193 l 1
 379 0 l 1
 -27 0 l 1
 -23 18 l 1
 612 629 l 2
 618 635 616 642 607 642 c 2
 408 642 l 1
 232 492 l 1
 213 487 l 1
 316 661 l 1
 695 661 l 1
EndSplineSet
EndChar

StartChar: bracketleft
Encoding: 91 91 59
Width: 394
Flags: W
HStem: -200 30<81 218> 641 30<445 640>
DStem2: 9 -200 81 -170 0.447624 0.894222<59.0556 966.005>
LayerCount: 2
Back
Fore
SplineSet
655 671 m 1
 640 641 l 1
 487 641 l 1
 81 -170 l 1
 234 -170 l 1
 218 -200 l 1
 9 -200 l 1
 445 671 l 1
 655 671 l 1
EndSplineSet
EndChar

StartChar: backslash
Encoding: 92 92 60
Width: 348
Flags: W
DStem2: 172 582 130 582 0.245192 -0.969475<0 609.625>
LayerCount: 2
Back
Fore
SplineSet
324 -19 m 1
 282 -19 l 1
 130 582 l 1
 172 582 l 1
 324 -19 l 1
EndSplineSet
EndChar

StartChar: bracketright
Encoding: 93 93 61
Width: 382
Flags: W
HStem: -200 30<-155 40> 641 30<263 402>
DStem2: -2 -170 40 -200 0.446803 0.894633<0 906.055>
LayerCount: 2
Back
Fore
SplineSet
475 671 m 1
 40 -200 l 1
 -170 -200 l 1
 -154 -170 l 1
 -2 -170 l 1
 402 641 l 1
 249 641 l 1
 264 671 l 1
 475 671 l 1
EndSplineSet
EndChar

StartChar: asciicircum
Encoding: 94 94 62
Width: 333
Flags: W
LayerCount: 2
Back
Fore
SplineSet
352 471 m 1
 325 471 l 1
 265 586 l 1
 265 587 128 471 128 471 c 1
 100 471 l 1
 244 624 l 1
 310 624 l 1
 311 624 l 1
 352 471 l 1
EndSplineSet
EndChar

StartChar: underscore
Encoding: 95 95 63
Width: 694
Flags: W
HStem: -58 45<50 610>
LayerCount: 2
Back
Fore
SplineSet
622 -13 m 1
 610 -58 l 1
 39 -58 l 1
 51 -13 l 1
 622 -13 l 1
EndSplineSet
EndChar

StartChar: grave
Encoding: 96 96 64
Width: 184
Flags: W
LayerCount: 2
Back
Fore
SplineSet
181.75 518.375 m 5
 160 518.375 l 5
 90.25 640.625 l 5
 142 640.625 l 5
 181.75 518.375 l 5
EndSplineSet
EndChar

StartChar: a
Encoding: 97 97 65
Width: 380
Flags: W
HStem: -8 25<70 85> 416 20G<277.5 327.5>
DStem2: 270 62 267 37 0.550158 0.835061<0 79.262>
LayerCount: 2
Back
Fore
SplineSet
415 431 m 1
 230 77 l 2
 201 21 225 7 270 62 c 1
 315 129 l 1
 323 122 l 1
 267 37 l 2
 254 18 225 -8 199 -8 c 0
 165 -8 165 47 186 96 c 1
 162 61 112 -7 70 -8 c 0
 35 -8 19 31 20 65 c 0
 26 192 244 436 311 436 c 0
 344 436 349 410 349 410 c 1
 359 431 l 1
 415 431 l 1
333 380 m 1
 346 402 324 426 313 425 c 0
 259 422 64 107 64 54 c 0
 64 36 65 17 85 17 c 0
 114 17 187 115 209 146 c 0
 210 147 333 380 333 380 c 1
EndSplineSet
EndChar

StartChar: b
Encoding: 98 98 66
Width: 365
Flags: W
HStem: -8 21G<40 134.5> 438 21G<313 366> 644 17<272 317>
VStem: 345 41<357 377>
DStem2: 33 115 221 357 0.473007 0.881059<302.142 600.414 26.0803 255.139>
LayerCount: 2
Back
Fore
SplineSet
386 357 m 0
 386 242 186 -8 83 -8 c 0
 -3 -8 19 89 33 115 c 2
 317 644 l 1
 264 644 l 1
 273 661 l 1
 383 661 l 1
 221 357 l 1
 250 394 288 438 338 438 c 0
 394 438 386 383 386 357 c 0
345 377 m 0
 346 392 344 414 327 415 c 0
 292 418 220 348 198 316 c 1
 90 114 l 2
 68 73 46 11 88 8 c 0
 145 5 344 309 345 377 c 0
EndSplineSet
EndChar

StartChar: c
Encoding: 99 99 67
Width: 314
Flags: W
HStem: -8 31<90 125>
LayerCount: 2
Back
Fore
SplineSet
332 383 m 0
 323 348 287 326 276 326 c 0
 255 326 247 336 262 378 c 0
 267 392 283 418 308 422 c 1
 303 424 300 428 294 427 c 0
 214 416 72 172 77 68 c 0
 79 24 104 23 125 23 c 0
 157 23 197 68 216 97 c 0
 229 118 238 129 248 152 c 1
 258 147 l 1
 248 119 238 104 221 80 c 0
 187 32 137 -8 90 -8 c 0
 40 -8 22 42 20 88 c 0
 15 179 149 435 286 438 c 0
 324 439 343 424 332 383 c 0
EndSplineSet
EndChar

StartChar: d
Encoding: 100 100 68
Width: 396
Flags: W
HStem: -8 25<60 75> 416 20G<267.5 317.5> 644 17<417 462>
DStem2: 260 62 257 37 0.550158 0.835061<0 79.262> 339 410 220 77 0.465871 0.884853<0 264.358>
LayerCount: 2
Back
Fore
SplineSet
528 662 m 1
 220 77 l 2
 191 21 215 7 260 62 c 1
 305 129 l 1
 313 122 l 1
 257 37 l 2
 244 18 215 -8 189 -8 c 0
 155 -8 155 47 176 96 c 1
 152 61 102 -7 60 -8 c 0
 25 -8 9 31 10 65 c 0
 16 192 234 436 301 436 c 0
 334 436 339 410 339 410 c 1
 462 644 l 1
 406 644 l 1
 417 661 l 1
 528 662 l 1
323 380 m 1
 336 402 314 426 303 425 c 0
 249 422 54 107 54 54 c 0
 54 36 55 17 75 17 c 0
 104 17 177 115 199 146 c 0
 200 147 323 380 323 380 c 1
EndSplineSet
EndChar

StartChar: e
Encoding: 101 101 69
Width: 325
Flags: W
HStem: 423 15<281 296>
VStem: 310 37<382 396>
LayerCount: 2
Back
Fore
SplineSet
347 382 m 0
 346 331 229 279 141 238 c 0
 131 233 119 230 112 226 c 1
 78 163 59 101 62 76 c 0
 64 61 65 22 116 22 c 0
 143 22 181 57 212 92 c 0
 229 110 235 122 245 144 c 1
 256 141 l 1
 245 114 237 100 217 77 c 0
 179 33 128 -12 77 -9 c 0
 31 -7 7 43 10 88 c 0
 20 238 164 438 296 438 c 0
 336 438 349 427 347 382 c 0
310 396 m 0
 310 407 305 423 286 423 c 0
 235 423 170 332 121 243 c 1
 146 251 169 263 196 278 c 0
 260 312 310 359 310 396 c 0
EndSplineSet
EndChar

StartChar: f
Encoding: 102 102 70
Width: 312
Flags: W
HStem: -211 21G<-186 -88.5> 409 22<185 227 295 344>
LayerCount: 2
Back
Fore
SplineSet
496 588 m 0
 490 566 482 549 462 552 c 0
 442 554 434 577 442 600 c 0
 447 614 457 622 471 624 c 1
 468 629 480 653 451 653 c 0
 419 653 372 573 337 512 c 0
 321 483 307 457 295 431 c 1
 356 431 l 1
 344 409 l 1
 344 409 285 409 284 409 c 0
 226 288 193 189 114 52 c 0
 39 -80 -15 -211 -162 -211 c 0
 -210 -211 -227 -169 -218 -131 c 0
 -213 -109 -204 -93 -185 -95 c 0
 -164 -97 -156 -116 -163 -144 c 0
 -166 -159 -178 -166 -193 -168 c 1
 -196 -189 -177 -201 -158 -199 c 0
 -45 -185 5 -61 66 68 c 2
 66 68 171 293 227 409 c 1
 174 409 l 1
 186 431 l 1
 238 431 l 1
 303 553 389 672 461 666 c 0
 494 663 506 619 496 588 c 0
EndSplineSet
EndChar

StartChar: g
Encoding: 103 103 71
Width: 472
Flags: W
VStem: -10 42<-102 -94> 304 41<-61 -25>
LayerCount: 2
Back
Fore
SplineSet
537 456 m 1
 536 433 521 409 499 400 c 0
 474 390 456 408 431 400 c 1
 437 386 440 371 439 356 c 0
 431 251 323 142 258 137 c 0
 246 136 235 137 224 143 c 0
 205 154 134 150 132 122 c 0
 129 78 345 78 345 -25 c 0
 345 -136 214 -211 131 -213 c 0
 45 -216 -10 -149 -10 -96 c 0
 -10 -28 67 19 121 49 c 1
 102 62 88 78 88 105 c 0
 88 146 138 158 174 163 c 0
 186 164 194 164 204 162 c 1
 191 182 188 212 188 239 c 0
 190 333 287 434 361 440 c 0
 390 442 411 431 424 413 c 1
 429 427 439 440 451 447 c 0
 474 460 495 436 519 445 c 0
 525 447 527 452 531 457 c 1
 537 456 l 1
397 394 m 0
 396 407 395 428 372 427 c 0
 326 426 222 275 219 194 c 0
 218 179 224 153 243 153 c 0
 306 154 401 331 397 394 c 0
304 -61 m 0
 302 15 193 13 130 44 c 1
 89 3 30 -27 32 -94 c 0
 33 -155 104 -198 160 -192 c 0
 219 -186 305 -114 304 -61 c 0
EndSplineSet
EndChar

StartChar: h
Encoding: 104 104 72
Width: 430
Flags: W
HStem: 0 21G<24 81> 426 20G<364 437.5> 644 17<300 421>
DStem2: 24 0 251 331 0.45713 0.8894<398.16 724.084 26.0564 314.973> 246 123 282 81 0.457865 0.889022<0 240.772> 331 73 328 48 0.635707 0.77193<0 44.8628>
LayerCount: 2
Back
Fore
SplineSet
399 446 m 0
 329 446 278 363 251 331 c 1
 421 661 l 1
 309 661 l 1
 300 644 l 1
 355 644 l 1
 24 0 l 1
 81 0 l 1
 213 257 l 1
 237 285 333 429 375 423 c 0
 401 419 370 365 366 356 c 1
 246 123 l 2
 158 -48 262 -31 328 48 c 2
 370 99 l 1
 368 116 l 1
 331 73 l 2
 269 1 246 11 282 81 c 2
 401 314 l 2
 424 360 476 446 399 446 c 0
EndSplineSet
EndChar

StartChar: j
Encoding: 106 106 74
Width: 265
Flags: W
HStem: 542 85
VStem: 308 90
DStem2: -26 -122 56 -74 0.460534 0.887642<80.3706 517.343> 134 338 136 321 0.635707 0.77193<0 44.8628>
LayerCount: 2
Back
Fore
SplineSet
-101 -196 m 0
 -136 -196 -132 -183 -141 -166 c 1
 -125 -172 -104 -159 -99 -147 c 0
 -81 -92 -152 -78 -163 -133 c 0
 -172 -172 -147 -215 -95 -210 c 0
 2 -202 51 -83 56 -74 c 2
 257 314 l 2
 345 485 241 468 176 389 c 2
 134 338 l 1
 136 321 l 1
 173 364 l 2
 235 436 258 426 222 356 c 2
 -26 -122 l 2
 -44 -156 -68 -196 -101 -196 c 0
EndSplineSet
Refer: 532 729 N 1 0 0 1 270 36 2
EndChar

StartChar: k
Encoding: 107 107 75
Width: 398
Flags: W
HStem: 0 21G<10 67> 644 17<294 340>
VStem: 265 117<203 401>
DStem2: 10 0 167 196 0.456036 0.889961<246.03 306.857 25.9941 229.922> 273 59 260 20 0.571793 0.820398<0 81.2443>
LayerCount: 2
Back
Fore
SplineSet
423 388 m 0
 421 352 343 286 260 234 c 1
 263 222 265 215 265 203 c 0
 268 139 204 30 237 30 c 0
 253 30 269 53 273 59 c 2
 320 126 l 1
 329 119 l 1
 260 20 l 2
 256 14 234 -9 209 -8 c 0
 186 -8 174 13 176 41 c 0
 178 68 204 114 204 164 c 0
 204 177 201 185 199 199 c 1
 186 191 171 186 159 182 c 1
 67 0 l 1
 10 0 l 1
 340 644 l 1
 287 644 l 1
 295 661 l 1
 406 661 l 1
 406 661 224 308 224 307 c 1
 227 311 229 314 232 317 c 0
 273 376 322 434 376 436 c 0
 417 438 425 413 423 388 c 0
382 401 m 0
 382 402 385 417 375 417 c 0
 306 417 265 341 214 275 c 0
 207 265 201 258 195 250 c 1
 167 196 l 1
 174 199 180 202 189 206 c 0
 285 253 382 344 382 401 c 0
EndSplineSet
EndChar

StartChar: l
Encoding: 108 108 76
Width: 270
Flags: W
HStem: 644 17<268 385>
DStem2: 49 123 85 81 0.459423 0.888218<0 587.265> 134 73 131 48 0.635707 0.77193<0 44.8628>
LayerCount: 2
Back
Fore
SplineSet
274 661 m 1
 268 644 l 1
 320 644 l 1
 49 123 l 2
 -40 -48 66 -31 131 48 c 2
 173 99 l 1
 171 116 l 1
 134 73 l 2
 72 1 49 11 85 81 c 2
 385 661 l 1
 274 661 l 1
EndSplineSet
EndChar

StartChar: m
Encoding: 109 109 77
Width: 566
Flags: W
HStem: 0 21G<15 73 164 221> 446 21G<335 401.5 484 553>
DStem2: 15 0 73 0 0.44922 0.893421<26.0548 306.895> 111 338 113 321 0.60745 0.794358<0 43.129> 164 0 221 0 0.435032 0.900415<24.7968 305.676> 373 123 411 81 0.436368 0.899768<0 237.311> 457 73 454 48 0.61714 0.786853<0 43.2924>
LayerCount: 2
Back
Fore
SplineSet
221 0 m 1
 164 0 l 1
 336 356 l 1
 341 365 369 419 345 423 c 0
 306 429 215 282 195 253 c 1
 73 0 l 1
 15 0 l 1
 194 356 l 1
 228 425 206 436 148 364 c 2
 113 321 l 1
 111 338 l 1
 150 389 l 2
 212 468 309 478 232 331 c 1
 259 363 302 446 368 446 c 0
 435 446 399 371 381 331 c 1
 407 363 451 446 517 446 c 0
 589 446 545 360 523 314 c 2
 411 81 l 2
 377 11 399 1 457 73 c 2
 492 116 l 1
 494 99 l 1
 454 48 l 2
 393 -31 290 -48 373 123 c 2
 486 356 l 2
 490 365 519 419 494 423 c 0
 456 429 364 282 343 253 c 1
 221 0 l 1
EndSplineSet
EndChar

StartChar: n
Encoding: 110 110 78
Width: 452
Flags: W
HStem: 0 21G<20 77> 426 20G<360 433.5>
DStem2: 20 0 77 0 0.470845 0.882216<26.8382 311.249> 122 338 124 321 0.635707 0.77193<0 44.8628> 242 123 278 81 0.457865 0.889022<0 240.772> 327 73 324 48 0.635707 0.77193<0 44.8628>
LayerCount: 2
Back
Fore
SplineSet
395 446 m 0
 472 446 421 360 397 314 c 2
 278 81 l 2
 242 11 265 1 327 73 c 2
 364 116 l 1
 366 99 l 1
 324 48 l 2
 259 -31 154 -48 242 123 c 2
 362 356 l 2
 367 365 397 419 371 423 c 0
 330 429 229 282 207 253 c 1
 77 0 l 1
 20 0 l 1
 210 356 l 2
 247 425 223 436 161 364 c 2
 124 321 l 1
 122 338 l 1
 164 389 l 2
 229 468 329 478 247 331 c 1
 275 363 325 446 395 446 c 0
EndSplineSet
EndChar

StartChar: o
Encoding: 111 111 79
Width: 386
Flags: W
LayerCount: 2
Back
Fore
SplineSet
340 429 m 0
 411 389 368 256 320 167 c 0
 264 64 131 -38 64 -10 c 0
 -19 24 29 189 94 287 c 0
 155 379 263 472 340 429 c 0
327 422 m 0
 253 467 2 86 59 12 c 0
 114 -59 421 365 327 422 c 0
EndSplineSet
EndChar

StartChar: p
Encoding: 112 112 80
Width: 433
Flags: W
HStem: -199 14<-129 31>
DStem2: -76 -185 123 81 0.469887 0.882727<328.313 666.118 26.7835 294.313 732.709 782.882>
LayerCount: 2
Back
Fore
SplineSet
420 350 m 0
 425 174 296 -11 147 -8 c 0
 118 -8 105 19 107 51 c 1
 -19 -185 l 1
 31 -185 l 1
 31 -199 l 1
 -130 -199 l 1
 -128 -185 l 1
 -76 -185 l 1
 237 403 l 1
 201 383 174 366 143 340 c 1
 136 351 l 1
 171 381 210 409 251 429 c 1
 292 506 l 1
 363 532 l 1
 313 438 l 1
 389 448 418 402 420 350 c 0
373 362 m 0
 373 410 344 424 302 417 c 1
 123 81 l 1
 118 50 121 9 157 10 c 0
 294 15 373 321 373 362 c 0
EndSplineSet
EndChar

StartChar: q
Encoding: 113 113 81
Width: 401
Flags: W
HStem: -200 12<112 159> -8 25<51 78> 413 18<383 476>
DStem2: 49 -200 112 -188 0.468833 0.883287<40.1359 344.47 455.826 681.296>
LayerCount: 2
Back
Fore
SplineSet
488 431 m 1
 476 413 l 1
 431 413 l 1
 112 -188 l 1
 159 -188 l 1
 159 -200 l 1
 49 -200 l 1
 211 104 l 1
 186 75 135 -8 51 -8 c 0
 24 -8 15 20 15 44 c 0
 13 221 239 440 338 438 c 0
 355 438 370 435 380 424 c 1
 383 431 l 1
 488 431 l 1
368 402 m 1
 364 413 353 424 340 423 c 0
 286 420 68 155 61 66 c 0
 59 45 56 17 78 17 c 0
 125 17 232 163 262 203 c 1
 368 402 l 1
EndSplineSet
EndChar

StartChar: r
Encoding: 114 114 82
Width: 344
Flags: W
HStem: 0 21G<15 72> 439 21G<225.5 275>
DStem2: 15 0 72 0 0.469155 0.883116<26.7418 284.391> 102 312 109 306 0.62852 0.777793<0 85.4866>
LayerCount: 2
Back
Fore
SplineSet
393 423 m 0
 410 385 356 351 336 369 c 0
 326 378 326 389 329 402 c 1
 323 396 317 392 311 386 c 0
 268 339 229 281 192 228 c 1
 72 0 l 1
 15 0 l 1
 202 352 l 2
 234 412 206 418 165 371 c 2
 109 306 l 1
 102 312 l 1
 182 411 l 2
 195 427 213 439 238 439 c 0
 312 439 251 342 238 313 c 1
 267 351 299 396 334 427 c 0
 355 445 383 444 393 423 c 0
EndSplineSet
EndChar

StartChar: s
Encoding: 115 115 83
Width: 342
Flags: W
HStem: -8 21G<61 145> 422 16<278 297>
VStem: 136 54<298 328> 203 57<111 134>
LayerCount: 2
Back
Fore
SplineSet
364 386 m 0
 365 342 309 332 298 368 c 0
 292 386 297 406 314 414 c 1
 305 419 298 422 288 422 c 0
 236 428 190 381 190 328 c 0
 189 274 261 210 260 134 c 0
 259 51 187 -8 103 -8 c 0
 19 -8 14 54 15 68 c 0
 18 124 92 118 89 70 c 0
 87 44 65 29 43 34 c 1
 59 17 71 9 95 5 c 0
 152 -5 203 40 203 111 c 0
 203 180 136 219 136 298 c 0
 136 376 202 438 278 438 c 0
 322 438 364 425 364 386 c 0
EndSplineSet
EndChar

StartChar: t
Encoding: 116 116 84
Width: 270
Flags: W
HStem: 412 19<162 208 275 316>
DStem2: 52 120 87 78 0.470314 0.882499<0 331.059 379.292 530.588>
LayerCount: 2
Back
Fore
SplineSet
367 604 m 1
 275 431 l 1
 326 431 l 1
 316 412 l 1
 265 412 l 1
 87 78 l 2
 54 17 98 27 130 58 c 2
 177 104 l 1
 184 99 l 1
 111 18 l 2
 106 13 90 -7 56 -8 c 0
 -8 -9 29 78 52 120 c 2
 208 412 l 1
 153 412 l 1
 163 431 l 1
 218 431 l 1
 302 588 l 1
 367 604 l 1
EndSplineSet
EndChar

StartChar: u
Encoding: 117 117 85
Width: 417
Flags: W
HStem: -17 21G<22.5 96>
DStem2: 59 115 94 73 0.457865 0.889022<0 240.772> 90 330 92 313 0.635707 0.77193<0 44.8628> 249 176 246 73 0.470845 0.882216<0 284.41> 295 65 292 40 0.635707 0.77193<0 44.8628>
LayerCount: 2
Back
Fore
SplineSet
61 -17 m 0
 -16 -17 35 68 59 115 c 2
 178 348 l 2
 214 418 191 428 129 356 c 2
 92 313 l 1
 90 330 l 1
 132 381 l 2
 197 460 302 477 214 306 c 2
 94 73 l 2
 89 64 59 9 85 6 c 0
 126 0 227 147 249 176 c 1
 379 429 l 1
 436 429 l 1
 246 73 l 2
 209 3 233 -7 295 65 c 2
 332 108 l 1
 334 91 l 1
 292 40 l 2
 226 -40 127 -49 209 98 c 1
 181 66 131 -17 61 -17 c 0
EndSplineSet
EndChar

StartChar: v
Encoding: 118 118 86
Width: 417
Flags: W
LayerCount: 2
Back
Fore
SplineSet
432 390 m 0
 439 300 276 -7 119 -8 c 0
 75 -8 47 35 46 79 c 0
 43 207 158 265 229 351 c 0
 239 363 240 372 246 386 c 1
 229 379 219 377 200 375 c 0
 158 372 130 417 93 394 c 0
 83 387 80 377 78 364 c 1
 84 376 90 387 109 381 c 0
 146 368 130 308 81 326 c 0
 58 335 53 366 69 388 c 0
 133 472 190 421 233 420 c 0
 248 420 256 427 270 433 c 1
 269 420 268 412 265 398 c 0
 245 290 107 190 101 68 c 0
 100 43 119 16 147 19 c 0
 239 30 353 208 386 300 c 0
 394 321 396 332 400 355 c 1
 380 354 354 370 354 397 c 0
 354 425 379 452 411 440 c 0
 434 432 430 420 432 390 c 0
EndSplineSet
EndChar

StartChar: w
Encoding: 119 119 87
Width: 556
Flags: W
HStem: -8 41<325 338> 329 58<90 100>
VStem: 43 53<68 89>
LayerCount: 2
Back
Fore
SplineSet
573 399 m 0
 576 350 458 -9 325 -8 c 0
 275 -7 251 34 241 84 c 1
 192 29 148 -7 122 -8 c 0
 70 -10 42 33 43 78 c 0
 46 225 171 278 221 355 c 0
 230 368 235 377 242 391 c 1
 177 364 164 398 112 402 c 0
 82 404 75 384 73 369 c 1
 78 381 84 387 100 387 c 0
 133 386 135 329 91 329 c 0
 69 329 59 347 58 363 c 0
 56 416 130 444 173 431 c 0
 213 419 222 422 266 438 c 1
 265 425 266 416 261 403 c 0
 221 301 97 205 96 70 c 0
 96 50 104 18 134 19 c 0
 155 20 195 58 237 109 c 1
 235 119 235 129 235 140 c 0
 232 240 331 440 394 438 c 0
 415 437 421 414 419 390 c 0
 413 331 353 226 286 140 c 1
 281 112 296 33 338 33 c 0
 402 34 451 136 492 222 c 0
 516 272 525 304 533 358 c 1
 520 359 496 386 497 402 c 0
 503 462 570 458 573 399 c 0
391 387 m 0
 391 397 391 412 381 412 c 0
 347 415 305 262 289 177 c 1
 345 258 393 350 391 387 c 0
EndSplineSet
EndChar

StartChar: x
Encoding: 120 120 88
Width: 430
Flags: W
HStem: -8 18<68 83> -8 97<65 74> 386 52<210 239>
DStem2: 285 322 234 345 0.0410612 -0.999157<0 57.0751 135.552 230.683> 351 94 356 45 0.160919 0.986968<0 45.658>
LayerCount: 2
Back
Fore
SplineSet
432 438 m 0
 484 434 457 358 415 356 c 0
 403 355 396 364 392 375 c 0
 391 380 390 383 391 388 c 1
 385 380 381 375 376 366 c 1
 346 324 314 281 289 248 c 1
 298 73 l 1
 301 9 341 24 351 94 c 2
 360 156 l 1
 371 137 l 1
 356 45 l 2
 355 38 349 -4 312 -7 c 0
 260 -12 248 54 246 89 c 1
 241 184 l 1
 211 145 179 105 142 56 c 0
 118 26 96 -8 68 -8 c 0
 12 -8 7 88 67 89 c 0
 108 90 111 38 88 23 c 0
 83 20 80 19 74 18 c 1
 78 15 77 10 83 10 c 0
 93 10 163 97 240 199 c 1
 234 345 l 1
 233 355 233 386 210 386 c 0
 195 386 194 352 189 329 c 2
 180 287 l 1
 170 276 l 1
 183 379 l 2
 185 394 194 438 239 438 c 0
 285 438 283 360 285 322 c 2
 288 265 l 1
 315 303 348 347 371 381 c 0
 381 396 411 440 432 438 c 0
EndSplineSet
EndChar

StartChar: y
Encoding: 121 121 89
Width: 345
Flags: W
HStem: -139 66<-76 -61> 432 20G<338.5 392.5>
DStem2: 99 276 113 263 0.170917 0.985285<0 51.2248> 106 77 163 73 0.215358 0.976535<8.36924 269.32>
LayerCount: 2
Back
Fore
SplineSet
350 452 m 0
 435 452 309 269 218 129 c 0
 136 3 30 -140 -61 -139 c 0
 -119 -138 -102 -73 -76 -73 c 0
 -44 -74 -44 -103 -19 -100 c 0
 22 -96 76 -57 106 77 c 1
 164 340 l 2
 166 350 169 384 150 383 c 0
 132 382 123 331 122 324 c 2
 113 263 l 1
 99 276 l 1
 116 374 l 2
 120 397 140 431 172 433 c 0
 219 435 228 371 219 329 c 2
 163 73 l 1
 209 134 233 169 270 236 c 0
 296 284 310 311 331 361 c 1
 328 366 325 370 323 375 c 0
 310 404 327 452 350 452 c 0
EndSplineSet
EndChar

StartChar: z
Encoding: 122 122 90
Width: 413
Flags: W
HStem: 220 40<179 215 180 306>
DStem2: 255 260 281 260 0.704914 0.709293<18.3278 160.519>
LayerCount: 2
Back
Fore
SplineSet
442 422 m 1
 281 260 l 1
 331 260 l 1
 306 220 l 1
 240 220 l 2
 241 220 98 77 98 77 c 1
 119 85 133 88 156 87 c 0
 205 84 240 30 271 32 c 0
 282 33 290 35 298 43 c 0
 312 55 314 63 314 78 c 1
 306 62 293 52 275 56 c 0
 235 65 250 131 293 131 c 0
 355 131 346 -3 224 -8 c 0
 170 -10 142 48 89 35 c 0
 66 30 53 23 35 9 c 1
 20 21 l 1
 20 21 216 220 215 220 c 2
 151 220 l 1
 180 260 l 1
 255 260 l 1
 367 375 l 1
 346 370 331 367 311 371 c 0
 277 378 260 402 228 404 c 0
 212 405 204 390 195 376 c 0
 197 378 204 386 210 388 c 0
 242 399 255 362 245 344 c 0
 237 328 176 301 177 371 c 0
 178 408 227 439 282 440 c 0
 325 441 354 407 389 410 c 0
 405 411 412 420 424 431 c 1
 442 422 l 1
EndSplineSet
EndChar

StartChar: braceleft
Encoding: 123 123 91
Width: 320
Flags: W
HStem: -213 31<83 110> 641 30<492 535>
DStem2: 3 -92 69 -58 0.445318 0.895373<59.8336 211.085 528.606 701.027>
LayerCount: 2
Back
Fore
SplineSet
550 671 m 1
 535 641 l 1
 494 641 l 2
 468 641 453 633 432 620 c 0
 389 593 377 561 355 516 c 2
 277 360 l 2
 256 319 245 291 208 263 c 0
 187 247 174 239 149 230 c 1
 163 226 173 221 181 208 c 1
 196 178 174 154 159 123 c 2
 69 -58 l 2
 50 -96 22 -131 49 -164 c 0
 59 -177 71 -182 88 -182 c 2
 125 -183 l 1
 110 -213 l 1
 73 -213 l 2
 42 -213 17 -208 0 -182 c 0
 -19 -152 -13 -124 3 -92 c 2
 97 97 l 2
 115 134 149 171 120 201 c 0
 109 212 100 215 85 215 c 1
 100 244 l 1
 120 250 132 255 150 267 c 0
 198 297 214 331 239 381 c 2
 324 553 l 2
 345 595 370 615 411 640 c 0
 445 661 468 671 509 671 c 2
 550 671 l 1
EndSplineSet
EndChar

StartChar: bar
Encoding: 124 124 92
Width: 262
Flags: W
DStem2: -10 -19 36 -19 0.466629 0.884453<21.4649 839.601>
LayerCount: 2
Back
Fore
SplineSet
428 724 m 1
 36 -19 l 1
 -10 -19 l 1
 381 724 l 1
 428 724 l 1
EndSplineSet
EndChar

StartChar: braceright
Encoding: 125 125 93
Width: 373
Flags: W
HStem: -213 21G<-150 -114> 651 20G<289 331>
DStem2: 43 -58 75 -92 0.445318 0.895373<0 194.893 512.301 641.303>
LayerCount: 2
Back
Fore
SplineSet
398 640 m 0
 416 611 411 583 396 553 c 2
 311 381 l 2
 291 340 262 306 285 267 c 0
 292 255 300 250 314 244 c 1
 300 215 l 1
 280 214 267 210 250 201 c 0
 204 178 192 143 169 97 c 2
 75 -92 l 1
 53 -135 30 -156 -12 -182 c 0
 -48 -204 -73 -213 -114 -213 c 2
 -150 -213 l 1
 -135 -183 l 1
 -99 -182 l 2
 -76 -181 -63 -175 -43 -164 c 0
 3 -138 20 -105 43 -58 c 2
 133 123 l 2
 151 160 161 185 196 208 c 0
 215 220 227 225 250 230 c 1
 236 240 228 247 224 263 c 0
 213 301 234 325 251 360 c 2
 329 516 l 2
 347 553 381 585 357 620 c 0
 348 634 333 641 315 641 c 2
 274 641 l 1
 289 671 l 1
 331 671 l 2
 360 671 382 665 398 640 c 0
EndSplineSet
EndChar

StartChar: asciitilde
Encoding: 126 126 94
Width: 369
Flags: W
LayerCount: 2
Back
Fore
SplineSet
527 614 m 1
 525 553 475 504 414 506 c 0
 353 508 357 558 319 558 c 0
 280 557 240 543 214 506 c 1
 200 506 l 1
 207 576 285 619 340 620 c 0
 381 621 401 568 428 570 c 0
 467 573 496 583 519 614 c 1
 527 614 l 1
EndSplineSet
EndChar

StartChar: exclamdown
Encoding: 161 161 95
Width: 319
Flags: W
HStem: 525 91<344.063 346.937>
LayerCount: 2
Back
Fore
SplineSet
168 13 m 0
 161 -9 136 -24 120 -24 c 0
 85 -24 68 16 87 54 c 0
 171 217 224 327 293 463 c 0
 301 480 314 475 308 456 c 0
 260 304 219 167 168 13 c 0
344 616 m 0
 405 618 408 527 347 525 c 0
 287 524 284 614 344 616 c 0
EndSplineSet
EndChar

StartChar: cent
Encoding: 162 162 96
Width: 333
Flags: W
DStem2: 53 -61 81 -68 0.447214 0.894427<6.26099 62.6099 561.253 606.869>
LayerCount: 2
Back
Fore
SplineSet
47 92 m 0
 53 177 173 376 280 409 c 0
 287 411 293 416 296 421 c 2
 326 481 l 2
 334 498 363 492 354 474 c 2
 330 428 l 2
 326 420 326 412 333 410 c 0
 352 404 369 391 368 371 c 0
 367 353 355 338 338 338 c 0
 313 338 310 353 309 374 c 0
 308 384 303 393 294 393 c 0
 245 393 118 174 110 63 c 0
 109 44 117 23 136 23 c 0
 168 23 210 75 234 104 c 0
 242 113 246 108 240 99 c 0
 209 58 177 10 125 0 c 0
 118 -1 112 -7 108 -15 c 2
 81 -68 l 2
 68 -94 42 -82 53 -61 c 2
 81 -5 l 2
 83 -2 80 6 77 8 c 0
 56 24 45 59 47 92 c 0
EndSplineSet
EndChar

StartChar: sterling
Encoding: 163 163 97
Width: 620
Flags: W
HStem: 0 37<409 455> 92 75<501 513> 231 34<202 251 343 391> 690 12<568 577>
LayerCount: 2
Back
Fore
SplineSet
204 265 m 2
 263 265 l 2
 266 265 276 269 279 275 c 0
 320 384 364 513 441 615 c 0
 482 669 520 703 572 702 c 0
 613 701 648 695 664 658 c 0
 673 638 654 616 635 616 c 0
 615 616 603 631 600 650 c 0
 598 669 590 690 570 690 c 0
 539 690 499 634 474 585 c 0
 415 470 392 382 336 279 c 0
 333 273 333 265 345 265 c 2
 403 265 l 2
 410 265 416 259 416 251 c 0
 415 238 402 231 389 231 c 2
 321 231 l 2
 307 231 303 222 292 206 c 0
 277 183 253 147 233 125 c 0
 210 101 208 97 235 100 c 0
 254 102 271 108 293 108 c 0
 373 108 384 37 455 37 c 0
 483 37 512 51 514 79 c 0
 514 86 512 92 503 92 c 0
 484 92 464 99 466 134 c 0
 468 161 491 167 513 167 c 0
 520 167 526 166 529 159 c 0
 537 143 540 135 539 117 c 0
 535 60 472 0 409 0 c 0
 331 0 308 78 230 78 c 0
 199 78 178 72 162 64 c 1
 154 58 147 52 140 46 c 0
 111 22 90 4 76 4 c 0
 59 4 47 18 48 34 c 0
 50 58 76 72 100 71 c 0
 124 70 145 72 163 76 c 1
 168 79 172 83 177 87 c 0
 208 116 233 162 256 217 c 0
 258 224 253 231 249 231 c 2
 195 231 l 2
 188 231 180 234 181 241 c 0
 182 254 191 265 204 265 c 2
EndSplineSet
EndChar

StartChar: currency
Encoding: 164 164 98
Width: 605
Flags: W
HStem: 115 50<233 260> 465 50<419 446>
DStem2: 40 134 51 106 0.841586 0.540123<0 71.56 627.936 703.365>
LayerCount: 2
Back
Fore
SplineSet
646 492 m 1
 582 452 l 1
 617 376 550 251 434 177 c 1
 455 134 l 1
 413 106 l 1
 391 153 l 1
 343 129 290 115 233 115 c 0
 179 115 141 128 118 149 c 1
 51 106 l 1
 40 134 l 1
 100 173 l 1
 59 249 127 379 248 455 c 1
 230 492 l 1
 272 520 l 1
 291 479 l 1
 338 502 390 515 446 515 c 0
 504 515 543 501 566 477 c 1
 633 520 l 1
 646 492 l 1
419 465 m 0
 193 465 34 165 260 165 c 0
 486 165 646 465 419 465 c 0
EndSplineSet
EndChar

StartChar: yen
Encoding: 165 165 99
Width: 447
Flags: W
HStem: 0 22<-20 152> 0 25<129 152> 326 38<67 181 255 488> 445 37<99 198 257 359 257 520> 639 22<143 167 144 323> 644 17<469 668>
VStem: 197 58<364 445 482 600> 199 60<598 608>
DStem2: 73 60 136 77 0.37619 0.926542<39.4512 287.089> 266 364 295 364 0.754082 0.656781<21.8684 123.329 200.203 287.764>
LayerCount: 2
Back
Fore
SplineSet
674 661 m 1
 668 642 l 1
 649 642 l 2
 635 642 629 639 616 634 c 0
 598 625 584 620 568 606 c 2
 568 606 498 543 429 482 c 1
 530 482 l 1
 520 445 l 1
 386 445 l 1
 336 400 295 364 295 364 c 1
 498 364 l 1
 488 326 l 1
 253 326 l 1
 232 308 l 1
 136 77 l 2
 130 62 121 53 125 38 c 0
 127 33 126 25 131 25 c 2
 155 25 l 1
 152 0 l 1
 -25 0 l 1
 -19 22 l 1
 8 22 l 2
 18 22 23 19 33 22 c 0
 53 28 65 41 73 60 c 2
 181 326 l 1
 58 326 l 1
 68 364 l 1
 197 364 l 1
 197 365 l 1
 198 445 l 1
 89 445 l 1
 99 482 l 1
 99 482 199 482 198 482 c 1
 199 598 l 1
 199 609 197 616 189 625 c 1
 183 634 176 639 165 639 c 2
 140 639 l 1
 144 661 l 1
 326 661 l 1
 323 639 l 1
 304 639 l 2
 292 639 285 636 275 629 c 0
 266 621 259 613 259 600 c 1
 257 482 l 1
 402 482 l 1
 446 521 483 553 483 553 c 2
 500 568 505 588 507 606 c 0
 508 622 498 644 481 644 c 2
 467 644 l 1
 470 661 l 1
 674 661 l 1
359 445 m 1
 256 445 l 1
 255 364 l 1
 266 364 l 1
 266 364 311 402 359 445 c 1
EndSplineSet
EndChar

StartChar: brokenbar
Encoding: 166 166 100
Width: 316
Flags: W
DStem2: 0 -19 47 -19 0.404926 0.914349<19.0315 382.786 475.234 811.668>
LayerCount: 2
Back
Fore
SplineSet
376 723 m 1
 232 398 l 1
 185 398 l 1
 329 723 l 1
 376 723 l 1
202 331 m 1
 47 -19 l 1
 0 -19 l 1
 155 331 l 1
 202 331 l 1
EndSplineSet
EndChar

StartChar: section
Encoding: 167 167 101
Width: 435
Flags: W
LayerCount: 2
Back
Fore
SplineSet
405 432 m 0
 470 387 380 244 264 215 c 1
 310 199 324 148 283 88 c 0
 250 40 180 3 162 -3 c 1
 136 -9 103 -17 55 -9 c 0
 7 -2 1 45 20 75 c 0
 51 124 119 116 94 75 c 0
 83 58 71 46 51 46 c 0
 46 46 43 46 38 47 c 1
 33 34 27 19 44 12 c 0
 56 7 68 3 84 3 c 0
 133 3 194 47 219 88 c 0
 261 154 240 193 193 213 c 1
 88 239 173 408 303 441 c 1
 265 460 259 510 297 566 c 0
 330 614 401 650 418 654 c 0
 445 661 477 669 526 661 c 0
 574 654 578 607 559 578 c 0
 528 530 462 537 487 577 c 0
 497 594 509 607 529 607 c 0
 534 607 538 608 543 607 c 1
 546 619 552 632 535 639 c 0
 524 644 512 649 496 649 c 0
 447 649 386 606 361 565 c 0
 313 487 367 456 405 432 c 0
337 415 m 0
 254 415 139 248 232 241 c 0
 326 233 412 415 337 415 c 0
EndSplineSet
EndChar

StartChar: dieresis
Encoding: 168 168 102
Width: 273
Flags: W
HStem: 659 20G<64 118 234 288.5>
LayerCount: 2
Back
Fore
SplineSet
261 679 m 0
 316 679 293 599 239 599 c 0
 184 599 207 679 261 679 c 0
91 679 m 0
 145 679 124 599 69 599 c 0
 15 599 37 679 91 679 c 0
EndSplineSet
EndChar

StartChar: copyright
Encoding: 169 169 103
Width: 485
Flags: W
HStem: 309 28<300 326> 371 7<294 301> 397 -19<295 365> 685 29<397 425>
LayerCount: 2
Back
Fore
SplineSet
423 714 m 0
 703 711 591 306 311 309 c 0
 32 311 144 716 423 714 c 0
416 685 m 0
 175 688 79 340 319 337 c 0
 559 334 656 683 416 685 c 0
507 637 m 1
 463 552 l 1
 458 552 l 1
 462 572 l 2
 468 600 467 644 448 643 c 0
 385 640 298 508 275 417 c 0
 271 400 283 378 301 378 c 0
 335 378 370 408 396 444 c 2
 415 470 l 1
 422 469 l 1
 377 374 l 1
 369 376 l 1
 371 382 l 1
 372 389 372 398 365 397 c 0
 356 397 347 371 295 371 c 0
 254 371 250 403 254 432 c 0
 268 528 372 652 446 652 c 0
 482 652 472 627 478 627 c 0
 483 627 485 630 489 634 c 1
 499 640 l 1
 507 637 l 1
EndSplineSet
EndChar

StartChar: ordfeminine
Encoding: 170 170 104
Width: 361
Flags: W
HStem: 133 37<72 323> 513 7<304 310>
DStem2: 273 259 263 228 0.54134 0.840804<0 55.3433>
LayerCount: 2
Back
Fore
SplineSet
377 517 m 1
 249 269 l 1
 245 263 236 237 246 235 c 0
 260 234 270 255 273 259 c 2
 305 306 l 1
 310 301 l 1
 263 228 l 2
 260 224 244 210 225 210 c 0
 191 210 204 254 219 288 c 1
 212 279 205 269 197 259 c 0
 178 235 162 211 135 210 c 0
 111 210 99 237 100 261 c 0
 104 350 257 520 304 520 c 0
 326 520 330 503 330 503 c 1
 337 517 l 1
 377 517 l 1
333 170 m 1
 323 133 l 1
 63 133 l 1
 73 170 l 1
 333 170 l 1
320 497 m 0
 317 505 313 513 305 513 c 0
 269 511 135 282 135 253 c 0
 135 245 135 227 145 227 c 0
 167 227 193 269 218 300 c 0
 224 306 229 312 232 317 c 0
 233 318 322 487 319 481 c 1
 319 481 321 491 320 497 c 0
EndSplineSet
EndChar

StartChar: guillemotleft
Encoding: 171 171 105
Width: 762
Flags: W
DStem2: 160 328 74 321 0.902134 -0.431455<0 323.945> 81 351 164 341 0.942428 0.33441<74.8774 460.999> 430 328 344 321 0.902134 -0.431455<0 323.945> 351 351 434 341 0.942428 0.33441<74.8774 460.999>
LayerCount: 2
Back
Fore
SplineSet
546 516 m 1
 81 351 l 1
 74 321 l 1
 442 145 l 1
 455 194 l 1
 160 328 l 1
 164 341 l 1
 529 467 l 1
 546 516 l 1
816 516 m 1
 351 351 l 1
 344 321 l 1
 712 145 l 1
 725 194 l 1
 430 328 l 1
 434 341 l 1
 799 467 l 1
 816 516 l 1
EndSplineSet
EndChar

StartChar: logicalnot
Encoding: 172 172 106
Width: 616
Flags: W
HStem: 210 40<40 531>
DStem2: 485 40 525 40 0.261951 0.965081<10.478 176.114>
LayerCount: 2
Back
Fore
SplineSet
582 250 m 1
 525 40 l 1
 485 40 l 1
 531 210 l 1
 30 210 l 1
 41 250 l 1
 582 250 l 1
EndSplineSet
EndChar

StartChar: uni00AD
Encoding: 173 173 107
Width: 365
Flags: W
HStem: 276 42<73 357>
LayerCount: 2
Back
Fore
SplineSet
375 318 m 1
 357 276 l 1
 57 276 l 1
 74 318 l 1
 375 318 l 1
EndSplineSet
EndChar

StartChar: registered
Encoding: 174 174 108
Width: 519
Flags: W
HStem: 300 28<301 338> 386 6<227 303 417 427> 523 6<341 378> 627 7<339 358 340 438> 676 29<397 434>
DStem2: 262 412 341 529 0.432876 0.901453<139.667 224.083 4.15026 132.96>
LayerCount: 2
Back
Fore
SplineSet
424 705 m 0
 703 703 591 298 312 300 c 0
 32 303 144 708 424 705 c 0
416 676 m 0
 176 679 79 330 319 328 c 0
 560 325 656 673 416 676 c 0
478 583 m 0
 472 548 437 529 399 524 c 1
 401 523 402 521 403 519 c 0
 407 508 407 462 411 427 c 0
 413 416 409 408 416 398 c 0
 417 396 417 392 420 392 c 2
 430 392 l 1
 427 386 l 1
 393 386 l 1
 391 393 391 396 389 404 c 0
 383 444 386 487 383 509 c 1
 381 514 381 518 377 522 c 0
 376 522 375 523 374 523 c 2
 338 523 l 1
 282 407 l 2
 280 403 278 399 282 395 c 1
 283 392 287 392 291 392 c 2
 305 392 l 1
 303 386 l 1
 224 386 l 1
 228 392 l 1
 236 392 l 2
 242 392 246 394 251 398 c 0
 257 402 258 406 262 412 c 1
 359 614 l 1
 362 619 363 621 361 624 c 0
 359 627 356 627 353 627 c 2
 338 627 l 1
 340 634 l 1
 428 634 l 2
 455 634 485 624 478 583 c 0
456 596 m 0
 459 609 447 625 432 625 c 2
 399 625 l 2
 395 625 393 624 388 621 c 0
 384 618 383 614 380 610 c 1
 341 529 l 1
 375 529 l 2
 416 529 449 555 456 596 c 0
EndSplineSet
EndChar

StartChar: macron
Encoding: 175 175 109
Width: 248
Flags: W
HStem: 586 45<50 254>
LayerCount: 2
Back
Fore
SplineSet
266 631 m 1
 254 586 l 1
 39 586 l 1
 51 631 l 1
 266 631 l 1
EndSplineSet
EndChar

StartChar: degree
Encoding: 176 176 110
Width: 121
Flags: W
LayerCount: 2
Back
Fore
SplineSet
246 715 m 0
 357 719 333 554 222 551 c 0
 111 548 135 712 246 715 c 0
239 684 m 0
 176 688 170 581 234 588 c 0
 297 594 303 679 239 684 c 0
EndSplineSet
EndChar

StartChar: plusminus
Encoding: 177 177 111
Width: 389
Flags: W
HStem: 219 42<75 359> 334 42<115 223 279 399>
DStem2: 200 261 243 261 0.300506 0.95378<12.9218 76.5376 133.307 234.683>
LayerCount: 2
Back
Fore
SplineSet
417 376 m 1
 399 334 l 1
 265 334 l 1
 243 261 l 1
 376 261 l 1
 359 219 l 1
 58 219 l 1
 76 261 l 1
 200 261 l 1
 223 334 l 1
 98 334 l 1
 116 376 l 1
 236 376 l 1
 270 485 l 1
 312 485 l 1
 279 376 l 1
 417 376 l 1
EndSplineSet
EndChar

StartChar: twosuperior
Encoding: 178 178 112
Width: 292
Flags: W
HStem: 406 33<174 307>
DStem2: 309 439 307 406 0.440673 0.897668<0 27.2728>
LayerCount: 2
Back
Fore
SplineSet
429 648 m 0
 426 602 390 580 349 559 c 0
 312 541 231 528 192 470 c 0
 184 459 179 451 174 439 c 1
 309 439 l 1
 322 463 l 1
 334 461 l 1
 307 406 l 1
 137 406 l 1
 137 419 l 1
 159 455 174 475 205 504 c 0
 256 551 327 571 359 595 c 0
 388 617 404 661 374 683 c 0
 348 701 321 689 291 672 c 0
 278 664 273 657 265 644 c 1
 260 644 l 1
 261 653 l 1
 270 687 324 716 367 713 c 0
 402 711 431 683 429 648 c 0
EndSplineSet
EndChar

StartChar: threesuperior
Encoding: 179 179 113
Width: 247
Flags: W
LayerCount: 2
Back
Fore
SplineSet
351 659 m 0
 355 626 331 605 301 592 c 0
 290 587 282 585 270 585 c 1
 278 576 283 570 288 560 c 0
 312 514 304 463 265 430 c 0
 234 404 199 396 165 411 c 0
 136 425 115 447 117 480 c 0
 119 513 164 511 162 481 c 0
 162 467 148 455 134 458 c 1
 140 443 146 435 160 426 c 0
 199 400 251 430 260 445 c 0
 280 476 282 510 261 540 c 0
 251 556 241 564 223 571 c 1
 225 582 l 1
 235 583 242 584 252 587 c 0
 289 600 323 626 320 662 c 0
 318 683 301 694 281 699 c 0
 257 706 231 697 217 674 c 1
 211 682 l 1
 230 707 254 714 284 713 c 0
 306 712 348 693 351 659 c 0
EndSplineSet
EndChar

StartChar: acute
Encoding: 180 180 114
Width: 193
Flags: W
LayerCount: 2
Back
Fore
SplineSet
184.25 640.625 m 1
 69.5 518.375 l 1
 47.75 518.375 l 1
 131.75 640.625 l 1
 184.25 640.625 l 1
EndSplineSet
EndChar

StartChar: mu
Encoding: 181 181 115
Width: 575
Flags: W
HStem: 0 19<163 182>
DStem2: -57 -109 134 191 0.387352 0.921932<350.564 570.541 25.5652 230.411> 290 93 358 117 0.38047 0.924793<48.067 360.081> 486 112 505 96 0.613941 0.789352<0 66.2179>
LayerCount: 2
Back
Fore
SplineSet
547 150 m 1
 505 96 l 2
 460 39 414 -14 343 2 c 0
 322 7 280 28 285 68 c 1
 252 31 216 0 171 0 c 0
 114 0 97 48 88 80 c 1
 9 -109 l 2
 1 -129 -13 -142 -33 -142 c 0
 -49 -142 -63 -124 -57 -109 c 2
 164 417 l 2
 173 439 184 459 209 459 c 0
 230 459 231 427 223 407 c 2
 134 191 l 1
 119 140 l 2
 105 91 121 20 173 19 c 0
 219 18 244 44 276 78 c 2
 290 93 l 1
 427 426 l 2
 435 446 452 467 473 459 c 0
 490 453 492 432 486 417 c 2
 358 117 l 2
 348 93 363 66 387 55 c 0
 427 36 458 77 486 112 c 2
 527 164 l 1
 547 150 l 1
EndSplineSet
EndChar

StartChar: paragraph
Encoding: 182 182 116
Width: 541
Flags: W
HStem: 353 32<258 330> 630 31<359 477 493 589 605 692>
DStem2: 217 -69 273 -69 0.469801 0.882772<26.3089 791.824>
LayerCount: 2
Back
Fore
SplineSet
709 661 m 1
 692 630 l 1
 644 630 l 1
 273 -69 l 1
 217 -69 l 1
 589 630 l 1
 533 630 l 1
 162 -69 l 1
 106 -69 l 1
 106 -69 331 353 330 353 c 2
 211 353 l 2
 136 353 60 420 124 526 c 0
 174 610 253 661 359 661 c 2
 493 661 l 1
 549 661 l 1
 605 661 l 1
 661 661 l 1
 709 661 l 1
477 630 m 2
 403 630 l 2
 352 630 262 579 228 510 c 0
 185 422 206 385 274 385 c 2
 347 385 l 1
 347 385 478 630 477 630 c 2
EndSplineSet
EndChar

StartChar: periodcentered
Encoding: 183 183 117
Width: 202
Flags: W
LayerCount: 2
Back
Fore
SplineSet
167 315 m 0
 232 246 124 156 58 225 c 0
 -7 293 102 383 167 315 c 0
EndSplineSet
EndChar

StartChar: cedilla
Encoding: 184 184 118
Width: 237
Flags: W
DStem2: 73 -68 122 -38 0.52145 0.853282<51.1495 84.3801>
LayerCount: 2
Back
Fore
SplineSet
193 -112 m 0
 180 -201 108 -194 58 -194 c 2
 30 -194 l 1
 39 -165 l 1
 73 -164 l 2
 102 -163 141 -164 157 -120 c 0
 165 -94 137 -68 110 -68 c 2
 73 -68 l 1
 117 4 l 1
 152 13 l 1
 122 -38 l 1
 138 -41 l 2
 166 -46 198 -73 193 -112 c 0
EndSplineSet
EndChar

StartChar: onesuperior
Encoding: 185 185 119
Width: 235
Flags: W
HStem: 406 8<140 240>
DStem2: 174 423 212 424 0.461934 0.886914<18.4404 297.079>
LayerCount: 2
Back
Fore
SplineSet
362 712 m 1
 212 424 l 1
 210 422 209 420 210 418 c 0
 211 415 213 414 215 414 c 2
 244 414 l 1
 240 406 l 1
 137 406 l 1
 141 414 l 1
 164 414 l 2
 166 414 167 416 169 418 c 0
 172 420 173 420 174 423 c 1
 316 684 l 1
 273 671 l 1
 273 679 l 1
 362 712 l 1
EndSplineSet
EndChar

StartChar: ordmasculine
Encoding: 186 186 120
Width: 352
Flags: W
HStem: 133 37<57 309>
LayerCount: 2
Back
Fore
SplineSet
349 516 m 0
 398 488 370 395 336 332 c 0
 297 260 203 190 156 209 c 0
 98 233 131 348 177 417 c 0
 220 481 295 547 349 516 c 0
319 170 m 1
 309 133 l 1
 49 133 l 1
 58 170 l 1
 319 170 l 1
340 510 m 0
 288 541 113 276 153 224 c 0
 192 175 406 470 340 510 c 0
EndSplineSet
EndChar

StartChar: guillemotright
Encoding: 187 187 121
Width: 746
Flags: W
DStem2: 54 174 40 125 0.934998 0.354654<0 389.733> 140 496 127 447 0.91371 -0.406367<8.03375 330.608> 329 174 316 125 0.934743 0.355324<0 390.664> 415 496 403 447 0.914115 -0.405454<8.89788 330.563>
LayerCount: 2
Back
Fore
SplineSet
787 331 m 1
 779 301 l 1
 316 125 l 1
 329 174 l 1
 696 308 l 1
 699 321 l 1
 403 447 l 1
 415 496 l 1
 787 331 l 1
511 331 m 1
 504 301 l 1
 40 125 l 1
 54 174 l 1
 420 308 l 1
 424 321 l 1
 127 447 l 1
 140 496 l 1
 511 331 l 1
EndSplineSet
EndChar

StartChar: onequarter
Encoding: 188 188 122
Width: 375
Flags: W
HStem: 93 32<47 135 181 204> 331 25<145 372> 406 8<252 352>
DStem2: 0 101 47 125 0.780287 0.625421<51.6836 281.416> 88 3 119 3 0.462903 0.886409<14.35 101.533 150.951 299.66> 286 423 324 424 0.461934 0.886914<18.4404 297.079>
LayerCount: 2
Back
Fore
SplineSet
372 331 m 1
 145 331 l 1
 145 356 l 1
 372 356 l 1
 372 331 l 1
474 712 m 1
 324 424 l 1
 322 422 321 420 322 418 c 0
 323 415 325 414 327 414 c 2
 356 414 l 1
 352 406 l 1
 249 406 l 1
 253 414 l 1
 276 414 l 2
 278 414 279 416 281 418 c 0
 284 420 285 420 286 423 c 1
 428 684 l 1
 385 671 l 1
 385 679 l 1
 474 712 l 1
276 311 m 1
 181 125 l 1
 233 125 l 1
 204 93 l 1
 165 93 l 1
 119 3 l 1
 88 3 l 1
 135 93 l 1
 0 93 l 1
 0 101 l 1
 262 311 l 1
 276 311 l 1
226 269 m 1
 47 125 l 1
 151 125 l 1
 226 269 l 1
EndSplineSet
EndChar

StartChar: onehalf
Encoding: 189 189 123
Width: 375
Flags: W
HStem: 1 32<31 164> 331 25<132 359> 406 8<212 312>
DStem2: 166 33 164 1 0.440673 0.897668<0 27.2728> 246 423 284 424 0.461934 0.886914<18.4404 297.079>
LayerCount: 2
Back
Fore
SplineSet
359 331 m 1
 132 331 l 1
 132 356 l 1
 359 356 l 1
 359 331 l 1
434 712 m 1
 284 424 l 1
 282 422 281 420 282 418 c 0
 283 415 285 414 287 414 c 2
 316 414 l 1
 312 406 l 1
 209 406 l 1
 213 414 l 1
 236 414 l 2
 238 414 239 416 241 418 c 0
 244 420 245 420 246 423 c 1
 388 684 l 1
 345 671 l 1
 345 679 l 1
 434 712 l 1
286 242 m 0
 283 196 247 174 206 154 c 0
 169 135 88 123 49 65 c 0
 41 53 36 46 31 33 c 1
 166 33 l 1
 179 57 l 1
 191 56 l 1
 164 1 l 1
 -6 1 l 1
 -6 13 l 1
 16 50 31 69 62 98 c 0
 113 146 184 166 216 190 c 0
 245 211 261 255 231 277 c 0
 205 296 178 284 148 266 c 0
 135 259 130 251 122 239 c 1
 117 239 l 1
 118 247 l 1
 127 281 181 311 224 308 c 0
 259 305 288 277 286 242 c 0
EndSplineSet
EndChar

StartChar: threequarters
Encoding: 190 190 124
Width: 375
Flags: W
HStem: 93 32<47 135 181 204> 331 25<148 375>
DStem2: 0 101 47 125 0.780287 0.625421<51.6836 281.416> 88 3 119 3 0.462903 0.886409<14.35 101.533 150.951 299.66>
LayerCount: 2
Back
Fore
SplineSet
375 331 m 1
 148 331 l 1
 148 356 l 1
 375 356 l 1
 375 331 l 1
458 659 m 0
 462 626 437 605 407 592 c 0
 396 587 389 585 377 585 c 1
 385 576 389 570 394 560 c 0
 418 514 411 463 371 430 c 0
 341 404 305 396 272 411 c 0
 242 425 221 447 223 480 c 0
 225 513 270 511 269 481 c 0
 268 467 255 455 241 458 c 1
 247 443 252 435 266 426 c 0
 305 400 357 430 366 445 c 0
 386 476 388 510 368 540 c 0
 357 556 347 564 329 571 c 1
 331 582 l 1
 342 583 348 584 358 587 c 0
 395 600 430 626 426 662 c 0
 424 683 408 694 388 699 c 0
 364 706 337 697 324 674 c 1
 318 682 l 1
 337 707 360 714 391 713 c 0
 412 712 454 693 458 659 c 0
276 311 m 1
 181 125 l 1
 233 125 l 1
 204 93 l 1
 165 93 l 1
 119 3 l 1
 88 3 l 1
 135 93 l 1
 0 93 l 1
 0 101 l 1
 262 311 l 1
 276 311 l 1
226 269 m 1
 47 125 l 1
 151 125 l 1
 226 269 l 1
EndSplineSet
EndChar

StartChar: questiondown
Encoding: 191 191 125
Width: 413
Flags: W
HStem: -9 28<185 210> 73 125<224 252> 174 24<252 267> 448 69<298 307> 542 20<307 325>
LayerCount: 2
Back
Fore
SplineSet
276 497 m 0
 279 504 292 517 305 517 c 0
 325 517 338 501 337 482 c 0
 335 463 318 448 299 448 c 0
 269 448 249 475 251 505 c 0
 253 541 289 562 325 562 c 0
 379 562 416 511 412 460 c 0
 401 294 111 267 101 133 c 0
 97 69 135 19 210 19 c 0
 246 19 309 60 312 113 c 0
 314 143 297 174 267 174 c 0
 261 174 254 174 253 168 c 0
 253 165 254 162 256 160 c 0
 267 148 270 139 269 123 c 0
 267 98 249 73 224 73 c 0
 196 73 172 95 174 123 c 0
 177 163 211 198 252 198 c 0
 308 198 332 162 328 108 c 0
 324 38 255 -9 185 -9 c 0
 110 -9 38 59 45 154 c 0
 56 325 362 370 370 484 c 0
 373 521 345 542 307 542 c 0
 286 542 267 522 266 504 c 0
 266 499 265 491 271 491 c 0
 275 491 275 492 276 497 c 0
408 699 m 0
 469 701 472 611 411 609 c 0
 350 607 347 698 408 699 c 0
EndSplineSet
EndChar

StartChar: Aring
Encoding: 197 197 131
Width: 618
Flags: W
HStem: 0 17<-16 209 354 530> 362 19<461 586>
DStem2: 148 107 461 381 0.729736 0.683729<415.749 748.965 30.1889 388.164> 595 381 507 78 0.430552 0.902566<0 252.715>
LayerCount: 2
Back
Fore
SplineSet
777 644 m 1
 507 78 l 2
 503 70 477 17 502 17 c 2
 534 17 l 1
 530 0 l 1
 353 0 l 1
 355 17 l 1
 394 17 l 2
 416 17 438 50 446 68 c 1
 446 68 587 362 586 362 c 2
 441 362 l 1
 180 117 l 2
 144 83 140 19 176 18 c 2
 211 17 l 1
 209 0 l 1
 -18 0 l 1
 -15 17 l 1
 5 17 l 2
 41 17 123 84 148 107 c 2
 719 642 l 1
 720 644 l 1
 656 668 684 784 771 787 c 0
 856 790 859 677 777 644 c 1
765 759 m 0
 709 757 700 669 760 673 c 0
 811 676 829 761 765 759 c 0
704 609 m 1
 461 381 l 1
 595 381 l 1
 704 609 l 1
EndSplineSet
EndChar

StartChar: AE
Encoding: 198 198 132
Width: 882
Flags: W
HStem: 0 17<-15 185 312 755> 0 23<461 755> 339 27<602 719> 639 22<613 943> 644 17<612 657>
DStem2: 141 107 431 366 0.725879 0.687823<388.651 679.376 27.9287 344.1> 403 70 455 63 0.439385 0.898299<16.5599 293.851 352.89 550.567>
LayerCount: 2
Back
Fore
SplineSet
1046 661 m 1
 977 496 l 1
 970 501 l 1
 977 536 l 2
 983 565 980 639 936 639 c 2
 766 639 l 2
 739 639 724 620 713 598 c 2
 602 366 l 1
 737 366 l 2
 781 366 799 384 825 416 c 2
 845 441 l 1
 858 446 l 1
 756 228 l 1
 745 223 l 1
 752 248 l 2
 764 292 763 339 705 339 c 2
 590 339 l 1
 455 63 l 2
 440 32 438 23 476 23 c 2
 653 23 l 2
 715 23 759 93 794 135 c 2
 831 180 l 1
 840 170 l 1
 755 0 l 1
 302 0 l 1
 313 18 l 1
 335 18 l 2
 368 18 390 43 403 70 c 2
 530 335 l 1
 399 335 l 1
 170 117 l 2
 145 93 118 19 158 18 c 2
 189 17 l 1
 185 0 l 1
 -18 0 l 1
 -14 17 l 1
 3 17 l 2
 38 17 117 85 141 107 c 2
 656 595 l 1
 663 611 l 1
 674 631 673 644 647 644 c 2
 607 644 l 1
 613 661 l 1
 1046 661 l 1
642 566 m 1
 431 366 l 1
 545 366 l 1
 642 566 l 1
EndSplineSet
EndChar

StartChar: Eth
Encoding: 208 208 142
Width: 710
Flags: W
HStem: 0 18<28 327> 0 23<178.673 339> 319 45<163 238 317 390> 639 22<328 611> 644 17<327 371>
DStem2: 119 70 173 63 0.433074 0.901358<17.0765 275.974 350.803 600.234>
LayerCount: 2
Back
Fore
SplineSet
751 411 m 0
 708 183 558 0 327 0 c 2
 18 0 l 1
 29 18 l 1
 49 18 l 2
 81 18 105 42 119 70 c 1
 238 319 l 1
 146 319 l 1
 164 364 l 1
 260 364 l 1
 379 611 l 1
 388 631 387 644 362 644 c 2
 322 644 l 1
 328 661 l 1
 592 661 l 2
 707 661 776 548 751 411 c 0
711 466 m 0
 728 549 679 639 599 639 c 2
 483 639 l 2
 456 639 440 620 430 598 c 1
 317 364 l 1
 408 364 l 1
 390 319 l 1
 296 319 l 1
 173 63 l 1
 158 33 158 23 195 23 c 2
 324 23 l 2
 553 23 677 307 711 466 c 0
EndSplineSet
EndChar

StartChar: multiply
Encoding: 215 215 149
Width: 262
Flags: W
DStem2: 20 213 37 181 0.825514 0.564382<0 114.687 173.358 287.872> 125 378 79 346 0.49334 -0.869837<5.14112 77.026 117.654 189.032>
LayerCount: 2
Back
Fore
SplineSet
278 346 m 1
 181 279 l 1
 219 214 l 1
 173 182 l 1
 135 248 l 1
 37 181 l 1
 20 213 l 1
 117 279 l 1
 79 346 l 1
 125 378 l 1
 163 311 l 1
 260 377 l 1
 278 346 l 1
EndSplineSet
EndChar

StartChar: Oslash
Encoding: 216 216 150
Width: 565
Flags: W
DStem2: -3 -30 48 -30 0.607119 0.794611<30.9631 93.7641 144.807 836.202>
LayerCount: 2
Back
Fore
SplineSet
605 694 m 1
 605 694 566 642 565 642 c 0
 620 558 555 392 490 273 c 0
 404 113 174 -43 111 -3 c 0
 102 3 93 11 86 20 c 1
 48 -30 l 1
 -3 -30 l 1
 65 59 l 1
 30 160 81 338 160 456 c 0
 253 596 410 744 529 676 c 0
 533 674 535 673 538 671 c 1
 555 694 l 1
 605 694 l 1
523 652 m 1
 519 657 515 661 510 664 c 0
 407 736 81 274 85 85 c 1
 523 652 l 1
539 608 m 1
 98 36 l 1
 99 34 100 33 102 31 c 0
 186 -73 555 419 539 608 c 1
EndSplineSet
EndChar

StartChar: Thorn
Encoding: 222 222 156
Width: 639
Flags: W
HStem: -200 24<-5 218> 124 25<291 433> 387 30<419 530> 626 24<386 610> 629 21<386 435>
LayerCount: 2
Back
Fore
SplineSet
661 294 m 0
 615 170 525 124 433 124 c 2
 278 124 l 1
 158 -139 l 2
 153 -149 153 -156 157 -164 c 0
 160 -172 166 -176 177 -176 c 2
 229 -176 l 1
 218 -200 l 1
 -15 -200 l 1
 -4 -176 l 1
 49 -176 l 2
 59 -176 69 -171 78 -164 c 0
 88 -156 96 -149 100 -139 c 0
 168 13 421 534 447 592 c 0
 451 602 450 609 447 617 c 0
 444 624 438 629 428 629 c 2
 375 629 l 1
 386 653 l 1
 621 650 l 1
 610 626 l 1
 558 626 l 2
 547 626 539 622 528 614 c 0
 517 606 512 599 507 589 c 2
 419 417 l 1
 557 418 l 2
 632 419 698 393 661 294 c 0
596 292 m 0
 624 355 580 389 519 388 c 2
 406 387 l 1
 291 149 l 1
 411 149 l 2
 494 149 552 192 596 292 c 0
EndSplineSet
EndChar

StartChar: germandbls
Encoding: 223 223 157
Width: 599
Flags: W
HStem: 409 22<190 228>
LayerCount: 2
Back
Fore
SplineSet
557 475 m 0
 578 568 576 646 462 646 c 0
 390 646 370 573 336 512 c 0
 239 337 211 226 112 52 c 0
 37 -80 -16 -221 -162 -225 c 0
 -200 -226 -227 -181 -218 -144 c 0
 -213 -121 -204 -107 -185 -108 c 0
 -164 -110 -157 -129 -163 -156 c 0
 -167 -171 -178 -179 -193 -180 c 1
 -193 -188 -193 -192 -188 -199 c 0
 -182 -210 -178 -217 -160 -215 c 0
 -46 -201 8 -61 70 68 c 0
 122 179 151 240 202 351 c 0
 211 371 219 390 228 409 c 1
 179 409 l 1
 191 431 l 1
 237 431 l 1
 293 555 358 680 488 670 c 0
 686 654 638 392 497 341 c 1
 496 329 l 1
 645 192 541 1 341 0 c 0
 287 0 234 53 251 104 c 0
 275 178 365 177 353 114 c 0
 347 83 323 65 291 70 c 1
 296 50 301 38 316 23 c 0
 351 -12 477 41 502 144 c 0
 518 212 468 300 418 300 c 2
 394 300 l 1
 402 328 l 1
 418 331 425 335 440 341 c 0
 503 370 545 423 557 475 c 0
EndSplineSet
EndChar

StartChar: ae
Encoding: 230 230 164
Width: 482
Flags: W
LayerCount: 2
Back
Fore
SplineSet
505 376 m 0
 504 324 397 275 318 231 c 0
 308 226 301 222 293 219 c 1
 263 155 243 94 246 69 c 0
 248 54 248 15 294 15 c 0
 319 15 354 50 383 85 c 0
 398 104 403 115 412 138 c 1
 422 134 l 1
 412 108 404 93 387 70 c 0
 353 25 306 -19 259 -16 c 0
 217 -14 198 36 199 81 c 0
 199 93 200 104 202 116 c 1
 193 104 184 91 171 76 c 0
 138 37 109 -8 70 -9 c 0
 35 -10 19 31 20 66 c 0
 26 193 239 437 306 439 c 0
 320 440 328 437 333 431 c 1
 392 431 l 1
 379 405 l 1
 405 422 432 432 459 432 c 0
 495 432 506 421 505 376 c 0
471 389 m 0
 470 400 476 412 459 413 c 0
 412 416 349 327 303 239 c 1
 327 246 344 256 369 271 c 0
 426 306 475 352 471 389 c 0
323 414 m 1
 320 421 313 426 305 425 c 0
 253 422 71 97 71 55 c 0
 71 39 70 16 85 17 c 0
 116 19 151 77 185 123 c 0
 197 138 198 148 207 162 c 1
 212 178 227 219 227 219 c 1
 323 414 l 1
EndSplineSet
EndChar

StartChar: eth
Encoding: 240 240 174
Width: 452
Flags: W
HStem: 493 43<372 430 488 551>
LayerCount: 2
Back
Fore
SplineSet
570 536 m 1
 551 493 l 1
 486 493 l 1
 470 388 393 252 324 167 c 0
 249 73 119 0 59 3 c 0
 -32 8 55 189 131 280 c 0
 200 362 376 482 404 395 c 1
 427 445 427 457 430 493 c 1
 426 493 352 493 352 493 c 1
 372 536 l 1
 431 536 l 1
 437 576 385 635 334 616 c 2
 305 605 l 1
 321 631 l 1
 358 641 l 2
 440 663 498 598 488 536 c 1
 570 536 l 1
364 386 m 0
 273 413 -1 51 68 35 c 0
 154 15 463 357 364 386 c 0
EndSplineSet
EndChar

StartChar: divide
Encoding: 247 247 181
Width: 313
Flags: W
HStem: 126 71<124 143> 274 42<33 317>
LayerCount: 2
Back
Fore
SplineSet
225 450 m 0
 274 447 252 376 203 379 c 0
 153 382 176 453 225 450 c 0
335 316 m 1
 317 274 l 1
 17 274 l 1
 34 316 l 1
 335 316 l 1
143 197 m 0
 191 197 173 126 124 126 c 0
 76 126 94 197 143 197 c 0
EndSplineSet
EndChar

StartChar: oslash
Encoding: 248 248 182
Width: 386
Flags: W
DStem2: 56 33 84 4 0.532978 0.846129<0 458.658>
LayerCount: 2
Back
Fore
SplineSet
380 473 m 1
 350 426 l 1
 412 381 371 254 324 167 c 0
 270 67 143 -32 74 -12 c 1
 67 -24 l 1
 20 -24 l 1
 42 10 l 1
 -2 68 42 203 98 287 c 0
 151 366 239 447 311 440 c 1
 332 473 l 1
 380 473 l 1
341 412 m 1
 84 4 l 1
 168 15 393 336 341 412 c 1
299 422 m 1
 211 387 43 126 56 33 c 1
 299 422 l 1
EndSplineSet
EndChar

StartChar: thorn
Encoding: 254 254 188
Width: 534
Flags: W
HStem: -147 18<-123 66> -9 17<173 185> 550 18<187 227 188 376>
DStem2: -40 -102 250 424 0.40641 0.913691<598.46 684.039 261.365 496.418 22.7589 165.111>
LayerCount: 2
Back
Fore
SplineSet
485 243 m 0
 428 109 278 -7 177 -9 c 0
 131 -10 94 2 74 28 c 1
 16 -102 l 2
 12 -110 13 -114 16 -120 c 0
 17 -126 22 -129 29 -129 c 2
 74 -129 l 1
 66 -147 l 1
 -130 -147 l 1
 -122 -129 l 1
 -77 -129 l 2
 -70 -129 -64 -126 -56 -120 c 0
 -47 -114 -44 -110 -40 -102 c 2
 238 523 l 1
 241 531 241 535 238 541 c 0
 235 547 232 550 225 550 c 2
 180 550 l 1
 188 568 l 1
 384 568 l 1
 376 550 l 1
 331 550 l 2
 324 550 316 547 310 541 c 1
 301 535 297 531 294 523 c 1
 250 424 l 1
 256 428 264 432 272 436 c 0
 319 461 348 470 391 472 c 0
 515 476 557 412 485 243 c 0
413 239 m 0
 485 399 411 459 376 454 c 0
 285 442 235 391 208 331 c 2
 113 116 l 1
 96 55 104 6 185 8 c 0
 265 10 362 123 413 239 c 0
EndSplineSet
EndChar

StartChar: dcroat
Encoding: 273 273 207
Width: 396
Flags: W
HStem: -8 25<60 75> 416 20G<267.5 317.5> 506 45<323 389 469 527> 644 17<417 462>
DStem2: 260 62 257 37 0.550158 0.835061<0 79.262> 339 410 220 77 0.466086 0.884739<0 108.239 185.522 264.357>
LayerCount: 2
Back
Fore
SplineSet
323 380 m 2
 335 403 314 426 303 425 c 0
 249 422 54 107 54 54 c 0
 54 36 55 17 75 17 c 0
 104 17 177 115 199 146 c 0
 200 147 323 380 323 380 c 2
539 551 m 1
 527 506 l 1
 446 506 l 1
 220 77 l 2
 191 21 215 7 260 62 c 1
 305 129 l 1
 313 122 l 1
 257 37 l 2
 244 18 215 -8 189 -8 c 0
 155 -8 155 47 176 96 c 1
 152 61 102 -7 60 -8 c 0
 25 -8 9 31 10 65 c 0
 16 192 234 436 301 436 c 0
 334 436 339 410 339 410 c 1
 389 506 l 1
 312 506 l 1
 324 551 l 1
 413 551 l 1
 462 644 l 1
 406 644 l 1
 417 661 l 1
 528 662 l 1
 469 551 l 1
 539 551 l 1
EndSplineSet
EndChar

StartChar: Hbar
Encoding: 294 294 228
Width: 631
Flags: W
HStem: 0 18<14 210 365 562> 341 23<302 588> 528 32<292 325 398 678 750 766> 528 133<314 678 666 766> 644 17<313 358 314 500 665 709 666 853>
DStem2: 105 70 302 364 0.432987 0.9014<350.31 508.098 11.2655 325.248> 457 70 508 58 0.433354 0.901224<11.2864 301.001 326.929 508.532>
LayerCount: 2
Back
Fore
SplineSet
678 528 m 1
 382 528 l 1
 302 364 l 1
 600 364 l 1
 678 528 l 1
293 560 m 1
 341 560 l 1
 365 611 l 2
 375 631 374 644 348 644 c 2
 308 644 l 1
 314 661 l 1
 506 661 l 1
 500 644 l 1
 474 644 l 2
 453 644 428 622 419 604 c 2
 398 560 l 1
 693 560 l 1
 717 611 l 2
 726 631 729 644 701 644 c 2
 661 644 l 1
 666 661 l 1
 858 661 l 1
 853 644 l 1
 829 644 l 2
 805 644 781 625 771 604 c 2
 750 560 l 1
 780 560 l 1
 766 528 l 1
 734 528 l 1
 508 58 l 2
 495 31 499 18 530 18 c 258
 568 18 l 1
 562 0 l 1
 356 0 l 1
 366 18 l 1
 391 18 l 258
 422 18 445 44 457 70 c 1
 588 341 l 1
 292 341 l 1
 156 58 l 2
 143 31 143 18 177 18 c 258
 216 18 l 1
 210 0 l 1
 4 0 l 1
 15 18 l 1
 31 18 l 258
 67 18 90 39 105 70 c 2
 325 528 l 1
 273 528 l 1
 293 560 l 1
EndSplineSet
EndChar

StartChar: hbar
Encoding: 295 295 229
Width: 430
Flags: W
HStem: 0 21G<24 81> 426 20G<364 437.5> 528 32<255 295 369 412> 644 17<308 355>
DStem2: 24 0 251 331 0.456624 0.88966<398.131 593.485 26.0276 314.945 655.809 724.083> 246 123 282 81 0.457865 0.889022<0 240.772> 331 73 328 48 0.635707 0.77193<0 44.8628>
LayerCount: 2
Back
Fore
SplineSet
256 560 m 1
 312 560 l 1
 355 644 l 1
 300 644 l 1
 309 661 l 1
 421 661 l 1
 369 560 l 1
 426 560 l 1
 412 528 l 1
 352 528 l 1
 251 331 l 1
 278 363 329 446 399 446 c 0
 476 446 424 360 401 314 c 2
 282 81 l 2
 246 11 269 1 331 73 c 2
 368 116 l 1
 370 99 l 1
 328 48 l 2
 262 -31 158 -48 246 123 c 2
 366 356 l 1
 370 365 401 419 375 423 c 0
 333 429 237 285 213 257 c 1
 81 0 l 1
 24 0 l 1
 295 528 l 1
 236 528 l 1
 256 560 l 1
EndSplineSet
EndChar

StartChar: dotlessi
Encoding: 305 305 239
Width: 250
Flags: W
DStem2: 54 123 90 81 0.457865 0.889022<0 240.772> 86 338 88 321 0.635707 0.77193<0 44.8628> 139 73 136 48 0.635707 0.77193<0 44.8628>
LayerCount: 2
Back
Fore
SplineSet
90 81 m 2
 54 11 77 1 139 73 c 2
 176 116 l 1
 178 99 l 1
 136 48 l 2
 70 -31 -34 -48 54 123 c 2
 174 356 l 2
 210 426 187 436 125 364 c 2
 88 321 l 1
 86 338 l 1
 128 389 l 2
 193 468 296 485 209 314 c 2
 90 81 l 2
EndSplineSet
EndChar

StartChar: kgreenlandic
Encoding: 312 312 246
Width: 476
Flags: W
HStem: 0 13<-1 157 277 422> 415 12<190 218 191 343 397 422 398 570>
DStem2: 63 49 201 215 0.431362 0.902179<209.29 380.191 15.2134 189.168> 201 215 345 297 0.828542 0.559928<165.224 264.32 0 100.885> 345 297 291 262 0.110029 -0.993928<28.8459 249.157>
LayerCount: 2
Back
Fore
SplineSet
574 427 m 1
 570 415 l 1
 553 415 l 258
 527 415 461 373 439 358 c 2
 345 297 l 1
 375 26 l 1
 376 14 390 13 400 13 c 258
 427 13 l 1
 422 0 l 1
 272 0 l 1
 278 13 l 1
 295 13 l 258
 314 13 316 29 315 43 c 1
 291 262 l 1
 192 197 l 1
 115 41 l 2
 107 24 111 13 131 13 c 258
 161 13 l 1
 157 0 l 1
 -7 0 l 1
 0 13 l 1
 17 13 l 258
 39 13 55 31 63 49 c 1
 227 392 l 2
 233 405 233 415 216 415 c 258
 188 415 l 1
 191 427 l 1
 346 427 l 1
 343 415 l 1
 325 415 l 258
 306 415 289 404 282 387 c 1
 201 215 l 1
 420 363 l 2
 446 380 438 415 415 415 c 258
 394 415 l 1
 398 427 l 1
 574 427 l 1
EndSplineSet
EndChar

StartChar: Lslash
Encoding: 321 321 255
Width: 547
Flags: W
HStem: 0 18<32 456> 644 17<341 380 342 542>
DStem2: 131 58 185 50 0.433294 0.901252<16.1879 273.27 352.6 606.474>
LayerCount: 2
Back
Fore
SplineSet
185 298 m 1
 205 341 l 1
 271 347 l 1
 395 604 l 2
 408 630 397 644 368 644 c 258
 336 644 l 1
 342 661 l 1
 552 661 l 1
 542 644 l 1
 514 644 l 258
 480 644 459 619 446 591 c 2
 331 353 l 1
 396 359 l 1
 378 316 l 1
 310 310 l 1
 185 50 l 2
 175 29 176 18 202 18 c 258
 335 18 l 2
 392 18 461 93 493 135 c 2
 516 165 l 1
 536 172 l 1
 456 0 l 1
 23 0 l 1
 33 18 l 1
 80 18 l 258
 109 18 120 35 131 58 c 2
 250 304 l 1
 185 298 l 1
EndSplineSet
EndChar

StartChar: lslash
Encoding: 322 322 256
Width: 270
Flags: W
HStem: 644 17<273 320>
DStem2: 49 123 85 81 0.458808 0.888536<0 255.837 337.412 587.264> 134 73 131 48 0.635707 0.77193<0 44.8628>
LayerCount: 2
Back
Fore
SplineSet
101 344 m 1
 121 387 l 1
 190 393 l 1
 320 644 l 1
 268 644 l 1
 274 661 l 1
 385 661 l 1
 250 399 l 1
 312 405 l 1
 294 362 l 1
 227 356 l 1
 85 81 l 2
 49 11 72 1 134 73 c 2
 171 116 l 1
 173 99 l 1
 131 48 l 2
 66 -31 -40 -48 49 123 c 2
 167 350 l 1
 101 344 l 1
EndSplineSet
EndChar

StartChar: napostrophe
Encoding: 329 329 263
Width: 452
Flags: W
HStem: 0 21G<20 77> 426 20G<360 433.5>
DStem2: 20 0 77 0 0.470845 0.882216<26.8382 311.249> 122 338 124 321 0.635707 0.77193<0 44.8628> 242 123 278 81 0.457865 0.889022<0 240.772> 327 73 324 48 0.635707 0.77193<0 44.8628>
LayerCount: 2
Back
Fore
SplineSet
395 446 m 0
 472 446 421 360 397 314 c 2
 278 81 l 2
 242 11 265 1 327 73 c 2
 364 116 l 1
 366 99 l 1
 324 48 l 2
 259 -31 154 -48 242 123 c 2
 362 356 l 2
 367 365 397 419 371 423 c 0
 330 429 229 282 207 253 c 1
 77 0 l 1
 20 0 l 1
 210 356 l 2
 247 425 223 436 161 364 c 2
 124 321 l 1
 122 338 l 1
 164 389 l 2
 229 468 329 478 247 331 c 1
 275 363 325 446 395 446 c 0
466 668 m 4
 512 665 494 612 456 589 c 5
 447 579 439 573 427 563 c 4
 406 547 392 538 368 528 c 4
 355 523 346 520 333 517 c 5
 329 531 l 5
 340 533 347 537 357 543 c 4
 369 549 376 554 384 566 c 4
 388 572 392 578 392 583 c 5
 364 604 413 672 466 668 c 4
EndSplineSet
EndChar

StartChar: Eng
Encoding: 330 330 264
Width: 724
Flags: W
HStem: 0 18<12 247> 644 17<359 425 730 922>
DStem2: 175 137 205 154 0.442253 0.89689<28.5147 544.609> 486 661 433 617 0.0947333 -0.995503<38.7813 565.584> 540 98 554 10 0.427628 0.903955<0 566.787>
LayerCount: 2
Back
Fore
SplineSet
433 617 m 1
 205 154 l 1
 188 121 170 18 226 18 c 258
 253 18 l 1
 247 0 l 1
 2 0 l 1
 13 18 l 1
 40 18 l 258
 96 18 152 92 175 137 c 1
 425 644 l 1
 356 644 l 1
 360 661 l 1
 486 661 l 1
 540 98 l 1
 781 611 l 2
 790 631 793 644 765 644 c 258
 725 644 l 1
 731 661 l 1
 928 661 l 1
 922 644 l 1
 897 644 l 258
 871 644 846 627 835 604 c 2
 554 10 l 2
 521 -60 470 -101 392 -105 c 0
 335 -108 289 -93 283 -45 c 0
 278 -7 287 24 318 45 c 0
 374 83 419 10 376 -30 c 0
 355 -50 324 -53 304 -32 c 1
 314 -59 324 -85 354 -85 c 0
 418 -85 465 -57 492 -3 c 1
 433 617 l 1
EndSplineSet
EndChar

StartChar: eng
Encoding: 331 331 265
Width: 452
Flags: W
HStem: 0 21G<20 77> 426 20G<360 433.5>
DStem2: 20 0 77 0 0.470845 0.882216<26.8382 311.249> 116 -122 198 -74 0.4576 0.889158<80.2028 516.259> 122 338 124 321 0.635707 0.77193<0 44.8628>
LayerCount: 2
Back
Fore
SplineSet
77 0 m 1
 20 0 l 1025
397 314 m 0
 421 360 472 446 395 446 c 0
 325 446 275 363 247 331 c 1
 329 478 229 468 164 389 c 2
 122 338 l 1
 124 321 l 1
 161 364 l 2
 223 436 247 425 210 356 c 2
 20 0 l 1
 77 0 l 1
 207 253 l 1
 229 282 330 429 371 423 c 0
 397 419 367 365 362 356 c 0
 219 79 266 169 116 -122 c 0
 98 -156 74 -196 41 -196 c 0
 6 -196 10 -183 1 -166 c 1
 17 -172 39 -159 43 -147 c 0
 62 -92 -9 -78 -21 -133 c 0
 -29 -172 -5 -215 47 -210 c 0
 144 -202 193 -83 198 -74 c 0
 293 110 256 37 397 314 c 0
EndSplineSet
EndChar

StartChar: OE
Encoding: 338 338 272
Width: 676
Flags: W
HStem: 0 19<125 133.448> 0 23<254 539> 339 27<392 500> 639 22<451 721>
DStem2: 192 79 239 63 0.432235 0.901761<5.88687 315.718> 192 79 392 366 0.432235 0.901761<345.252 589.957>
LayerCount: 2
Back
Fore
SplineSet
830 661 m 1
 760 496 l 1
 754 501 l 1
 760 536 l 2
 765 565 765 639 719 639 c 2
 550 639 l 2
 523 639 507 621 497 598 c 2
 392 366 l 1
 521 366 l 2
 565 366 583 384 609 416 c 2
 629 441 l 1
 642 446 l 1
 540 228 l 1
 529 223 l 1
 536 248 l 2
 548 292 547 339 489 339 c 2
 380 339 l 1
 239 63 l 2
 227 40 227 23 261 23 c 2
 436 23 l 2
 499 23 543 92 578 135 c 2
 615 180 l 1
 623 170 l 1
 539 0 l 1
 125 0 l 1
 -25 79 73 311 174 453 c 0
 260 574 351 655 451 661 c 1
 830 661 l 1
447 611 m 0
 456 630 456 637 442 643 c 1
 280 603 -18 103 125 19 c 1
 136 19 166 25 192 79 c 2
 192 79 378 469 447 611 c 0
EndSplineSet
EndChar

StartChar: oe
Encoding: 339 339 273
Width: 558
Flags: W
HStem: 423 15<514 530>
VStem: 544 37<382 402>
LayerCount: 2
Back
Fore
SplineSet
544 396 m 0
 544 407 539 423 520 423 c 0
 469 423 404 332 355 243 c 1
 380 251 403 263 430 278 c 0
 494 312 544 359 544 396 c 0
340 429 m 0
 365 415 376 391 377 360 c 1
 424 407 478 438 530 438 c 0
 570 438 582 427 581 382 c 0
 579 331 463 279 375 238 c 0
 366 234 356 231 349 227 c 1
 340 206 330 186 320 167 c 0
 318 163 316 160 314 156 c 0
 301 121 294 91 296 76 c 0
 298 61 299 22 350 22 c 0
 377 22 415 57 446 92 c 0
 463 110 469 122 479 144 c 1
 490 141 l 1
 479 114 470 100 451 77 c 0
 413 33 362 -12 311 -9 c 0
 271 -7 248 31 244 70 c 1
 183 11 109 -29 64 -10 c 0
 -19 24 29 189 94 287 c 0
 155 379 263 472 340 429 c 0
327 422 m 0
 253 467 2 86 59 12 c 0
 90 -28 203 91 277 212 c 1
 288 237 301 261 316 284 c 1
 346 349 357 404 327 422 c 0
EndSplineSet
EndChar

StartChar: Tbar
Encoding: 358 358 292
Width: 625
Flags: W
HStem: 0 18<27 224> 419 32<216 286 359 427> 639 22<195 551>
DStem2: 119 70 170 58 0.434191 0.900821<11.3339 386.896 447.227 594.428>
LayerCount: 2
Back
Fore
SplineSet
217 451 m 1
 302 451 l 1
 376 606 l 2
 386 626 388 639 360 639 c 258
 312 639 l 2
 251 639 181 558 148 508 c 1
 124 498 l 1
 195 661 l 1
 670 661 l 1
 587 474 l 1
 570 486 l 1
 587 519 603 639 548 639 c 2
 482 639 l 258
 456 639 440 619 430 598 c 2
 359 451 l 1
 441 451 l 1
 427 419 l 1
 344 419 l 1
 170 58 l 2
 158 33 161 18 191 18 c 258
 230 18 l 1
 224 0 l 1
 18 0 l 1
 28 18 l 1
 53 18 l 258
 83 18 107 45 119 70 c 2
 286 419 l 1
 197 419 l 1
 217 451 l 1
EndSplineSet
EndChar

StartChar: tbar
Encoding: 359 359 293
Width: 270
Flags: W
HStem: 412 19<162 208 275 316> 507 32<219 258 332 376>
DStem2: 52 120 87 78 0.470314 0.882499<0 331.059 379.077 438.413 501.671 530.591>
LayerCount: 2
Back
Fore
SplineSet
220 539 m 1
 275 539 l 1
 302 588 l 1
 367 604 l 1
 332 539 l 1
 390 539 l 1
 376 507 l 1
 315 507 l 1
 275 431 l 1
 326 431 l 1
 316 412 l 1
 265 412 l 1
 87 78 l 2
 54 17 98 27 130 58 c 2
 177 104 l 1
 184 99 l 1
 111 18 l 2
 106 13 90 -7 56 -8 c 0
 -9 -9 29 78 52 120 c 2
 208 412 l 1
 153 412 l 1
 163 431 l 1
 218 431 l 1
 258 507 l 1
 200 507 l 1
 220 539 l 1
EndSplineSet
EndChar

StartChar: longs
Encoding: 383 383 317
Width: 312
Flags: W
HStem: -211 21G<-186 -88.5> 409 22<185 227>
LayerCount: 2
Back
Fore
SplineSet
496 588 m 0
 490 566 482 549 462 552 c 0
 442 554 434 577 442 600 c 0
 447 614 457 622 471 624 c 1
 468 629 480 653 451 653 c 0
 419 653 372 573 337 512 c 0
 253 363 199 200 114 52 c 0
 39 -80 -15 -211 -162 -211 c 0
 -210 -211 -227 -169 -218 -131 c 0
 -213 -109 -204 -93 -185 -95 c 0
 -164 -97 -156 -116 -163 -144 c 0
 -166 -159 -178 -166 -193 -168 c 1
 -196 -189 -177 -201 -158 -199 c 0
 -45 -185 5 -61 66 68 c 2
 66 68 171 293 227 409 c 1
 174 409 l 1
 186 431 l 1
 238 431 l 1
 303 553 389 672 461 666 c 0
 494 663 506 619 496 588 c 0
EndSplineSet
EndChar

StartChar: uni0180
Encoding: 384 384 318
Width: 489
Flags: W
HStem: -9 17<92 114> 513 21<93 141 206 247>
DStem2: -70 -9 163 428 0.374757 0.927123<492.471 563.032 160.073 378.082 606.792 654.58>
LayerCount: 2
Back
Fore
SplineSet
120 322 m 2
 38 120 l 1
 22 58 31 6 114 8 c 0
 194 10 287 123 333 239 c 0
 398 399 321 459 286 454 c 0
 191 441 146 386 120 322 c 2
-70 -9 m 1
 141 513 l 1
 85 513 l 1
 94 534 l 1
 150 534 l 1
 175 598 l 1
 134 607 l 1
 139 619 l 1
 266 683 l 1
 206 534 l 1
 256 534 l 1
 247 513 l 1
 197 513 l 1
 163 428 l 1
 205 456 252 470 302 472 c 0
 425 476 470 411 405 243 c 0
 354 109 208 -7 107 -9 c 0
 58 -10 17 3 -4 32 c 1
 -3 32 -70 -9 -70 -9 c 1
EndSplineSet
EndChar

StartChar: uni0181
Encoding: 385 385 319
Width: 553
Flags: W
HStem: 0 24<-112 -47> 0 30<-112 161> 361 27<177 306> 631 30<319 449> 642 19<143.363 209>
DStem2: 1 61 188 388 0.374914 0.92706<373.257 581.423 41.2337 344.103>
LayerCount: 2
Back
Fore
SplineSet
201 642 m 2
 213 642 217 637 220 630 c 0
 224 622 225 615 221 605 c 2
 1 61 l 2
 -3 51 -10 44 -20 36 c 0
 -29 29 -39 24 -49 24 c 2
 -102 24 l 1
 -112 0 l 1
 147 0 l 2
 263 0 395 103 439 220 c 0
 470 300 457 357 397 382 c 1
 460 412 513 462 543 535 c 0
 581 630 536 661 449 661 c 2
 156 661 l 1
 156 661 106 663 75 616 c 0
 51 578 53 547 81 539 c 0
 115 528 159 599 115 612 c 0
 108 613 101 613 93 611 c 1
 94 616 95 619 99 625 c 0
 110 642 143 642 143 642 c 1
 201 642 l 2
177 361 m 1
 321 361 l 2
 393 361 411 279 382 206 c 0
 353 135 246 30 153 30 c 2
 81 30 l 2
 69 30 62 35 59 43 c 0
 54 54 58 65 64 80 c 2
 177 361 l 1
188 388 m 1
 266 581 l 2
 274 600 284 615 304 625 c 0
 312 629 316 631 323 631 c 2
 431 631 l 2
 487 631 518 593 495 535 c 0
 463 456 378 388 300 388 c 2
 188 388 l 1
EndSplineSet
EndChar

StartChar: uni0182
Encoding: 386 386 320
Width: 583
Flags: W
HStem: 0 18<23 293> 0 23<174.462 270> 341 23<312 398> 483 178<324 729> 639 22<324 622> 644 17<323 366>
DStem2: 114 70 312 364 0.433164 0.901315<350.753 600.234 17.0817 325.258>
LayerCount: 2
Back
Fore
SplineSet
767 661 m 1
 729 483 l 1
 714 483 l 1
 723 528 716 551 698 585 c 0
 679 621 654 639 602 639 c 2
 482 639 l 2
 475 639 469 637 461 633 c 0
 441 623 429 608 420 589 c 2
 312 364 l 1
 377 364 l 2
 522 364 542 255 536 212 c 0
 518 84 422 0 293 0 c 2
 13 0 l 1
 24 18 l 1
 51 18 l 2
 80 18 103 46 114 70 c 1
 374 611 l 2
 384 631 386 644 358 644 c 2
 318 644 l 1
 324 661 l 1
 767 661 l 1
480 244 m 0
 486 291 448 341 393 341 c 2
 301 341 l 1
 168 63 l 2
 154 33 155 23 190 23 c 2
 262 23 l 2
 386 23 473 181 480 244 c 0
EndSplineSet
EndChar

StartChar: uni0183
Encoding: 387 387 321
Width: 583
Flags: W
HStem: 0 34<63 156> 333 25<194 285> 470 191<263 602> 626 35<263 476>
DStem2: -5 0 194 358 0.375738 0.926726<406.54 641.631 57.0588 379.614>
LayerCount: 2
Back
Fore
SplineSet
263 661 m 1
 629 661 l 1
 602 470 l 1
 587 470 l 1
 593 515 583 539 563 572 c 0
 541 609 514 626 462 626 c 2
 340 626 l 2
 333 626 328 624 320 620 c 0
 300 610 290 595 282 576 c 0
 194 358 194 358 194 358 c 1
 313 358 l 2
 405 358 463 282 404 158 c 0
 341 24 231 0 122 0 c 2
 -5 0 l 1
 263 661 263 661 263 661 c 1
63 34 m 1
 163 34 l 2
 224 34 318 97 344 160 c 0
 385 260 365 333 283 333 c 2
 184 333 l 1
 63 34 l 1
EndSplineSet
EndChar

StartChar: uni0184
Encoding: 388 388 322
Width: 365
Flags: W
HStem: -9 17<91.2971 114>
DStem2: -70 -9 163 428 0.375091 0.926988<492.49 605.186 160.091 378.1>
LayerCount: 2
Back
Fore
SplineSet
120 322 m 2
 38 120 l 1
 22 58 31 6 114 8 c 0
 194 10 287 123 333 239 c 0
 398 399 321 459 286 454 c 0
 191 441 146 386 120 322 c 2
-4 32 m 1
 -3 32 -70 -9 -70 -9 c 1
 157 552 l 1
 157 552 132 592 107 603 c 1
 144 615 266 683 266 683 c 1
 163 428 l 1
 205 456 252 470 302 472 c 0
 425 476 470 411 405 243 c 0
 354 109 208 -7 107 -9 c 0
 58 -10 17 3 -4 32 c 1
EndSplineSet
EndChar

StartChar: uni0185
Encoding: 389 389 323
Width: 365
Flags: W
HStem: -9 17<103 114>
DStem2: -40 64 163 428 0.373486 0.927636<413.477 575.657 81.0795 299.088>
LayerCount: 2
Back
Fore
SplineSet
120 322 m 2
 38 120 l 1
 22 58 31 6 114 8 c 0
 194 10 287 123 333 239 c 0
 398 399 321 459 286 454 c 0
 191 441 146 386 120 322 c 2
-40 64 m 1
 175 598 l 1
 134 607 l 1
 139 619 l 1
 266 683 l 1
 163 428 l 1
 205 456 252 470 302 472 c 0
 425 476 470 411 405 243 c 0
 354 109 208 -7 107 -9 c 0
 24 -11 0 18 -40 64 c 1
EndSplineSet
EndChar

StartChar: uni0186
Encoding: 390 390 324
Width: 601
Flags: W
HStem: 661 -47<307 464> 661 18<460 476>
LayerCount: 2
Back
Fore
SplineSet
-33 40 m 1
 73 245 l 1
 84 245 l 1
 76 196 l 2
 65 129 63 23 108 26 c 0
 260 33 478 351 528 567 c 0
 538 609 504 661 460 661 c 0
 379 661 297 589 234 503 c 2
 188 440 l 1
 171 443 l 1
 277 670 l 1
 297 667 l 1
 294 650 l 2
 291 634 292 613 307 614 c 0
 330 614 352 679 476 679 c 0
 573 679 585 601 575 533 c 0
 539 303 290 4 113 4 c 0
 27 4 52 65 37 65 c 0
 24 65 18 56 8 49 c 2
 -15 32 l 1
 -33 40 l 1
EndSplineSet
EndChar

StartChar: uni0187
Encoding: 391 391 325
Width: 578
Flags: W
HStem: 17 29<177 342> 446 21G<539 552> 665 14<425 443> 697 13<663 680>
LayerCount: 2
Back
Fore
SplineSet
552 446 m 1
 539 446 l 1
 541 461 541 470 541 484 c 0
 539 580 519 665 432 665 c 0
 319 665 186 494 126 336 c 0
 72 192 55 17 177 17 c 0
 242 17 340 65 414 143 c 0
 444 174 460 193 481 228 c 1
 494 228 l 1
 376 9 l 1
 358 9 l 1
 361 17 362 22 361 30 c 0
 360 40 353 46 342 46 c 0
 293 45 238 0 182 -2 c 0
 -16 -11 14 184 64 323 c 0
 116 465 253 681 439 679 c 0
 531 678 523 617 551 621 c 0
 562 623 570 629 579 636 c 0
 592 645 599 653 611 665 c 1
 611 665 631 710 680 710 c 0
 715 710 732 692 721 660 c 0
 708 620 643 623 661 673 c 0
 664 681 668 687 674 694 c 1
 670 696 668 697 663 697 c 0
 647 697 625 675 621 665 c 1
 552 446 l 1
EndSplineSet
EndChar

StartChar: uni0188
Encoding: 392 392 326
Width: 408
Flags: W
HStem: -9 21G<71 156.5> 459 13<442 468>
LayerCount: 2
Back
Fore
SplineSet
390 441 m 1
 404 454 428 472 459 472 c 0
 494 472 525 454 514 422 c 0
 500 382 435 385 454 435 c 0
 457 443 462 451 468 458 c 1
 465 460 447 459 442 459 c 0
 430 459 406 444 394 434 c 1
 418 387 391 313 344 310 c 0
 308 308 312 361 335 400 c 0
 342 413 348 420 359 430 c 1
 356 436 355 439 349 444 c 0
 339 452 328 451 314 452 c 0
 236 455 158 361 124 276 c 0
 82 169 67 58 164 53 c 0
 213 51 254 80 301 125 c 0
 314 137 320 144 331 157 c 1
 314 110 l 1
 300 92 291 82 274 66 c 0
 224 20 182 -9 131 -9 c 0
 11 -9 2 108 44 226 c 0
 88 352 221 472 321 472 c 0
 355 472 377 459 390 441 c 1
EndSplineSet
EndChar

StartChar: uni0189
Encoding: 393 393 327
Width: 710
Flags: W
HStem: 0 18<28 327> 0 23<178.673 339> 319 45<163 238 317 390> 639 22<328 611> 644 17<327 371>
DStem2: 119 70 173 63 0.433074 0.901358<17.0765 275.974 350.803 600.234>
LayerCount: 2
Back
Fore
SplineSet
751 411 m 0
 708 183 558 0 327 0 c 2
 18 0 l 1
 29 18 l 1
 49 18 l 2
 81 18 105 42 119 70 c 1
 238 319 l 1
 146 319 l 1
 164 364 l 1
 260 364 l 1
 379 611 l 1
 388 631 387 644 362 644 c 2
 322 644 l 1
 328 661 l 1
 592 661 l 2
 707 661 776 548 751 411 c 0
711 466 m 0
 728 549 679 639 599 639 c 2
 483 639 l 2
 456 639 440 620 430 598 c 1
 317 364 l 1
 408 364 l 1
 390 319 l 1
 296 319 l 1
 173 63 l 1
 158 33 158 23 195 23 c 2
 324 23 l 2
 553 23 677 307 711 466 c 0
EndSplineSet
EndChar

StartChar: uni018A
Encoding: 394 394 328
Width: 650
Flags: W
HStem: 0 24<26 273> 0 30<202 290> 631 30<284 610> 642 19<272 338>
DStem2: 130 61 193 80 0.374914 0.92706<41.2337 581.423>
LayerCount: 2
Back
Fore
SplineSet
595 631 m 2
 452 631 l 2
 445 631 440 629 433 625 c 0
 414 616 403 600 395 581 c 2
 193 80 l 2
 185 61 184 46 195 36 c 256
 199 32 202 30 209 30 c 2
 303 30 l 2
 466 30 641 196 696 359 c 0
 742 493 729 631 595 631 c 2
130 61 m 2
 350 605 l 2
 354 615 353 622 349 630 c 0
 346 637 342 642 330 642 c 2
 272 642 l 1
 272 642 239 642 228 625 c 0
 224 619 223 616 222 611 c 1
 230 613 237 613 244 612 c 0
 287 599 244 528 209 539 c 0
 182 547 179 578 204 616 c 0
 235 663 284 661 284 661 c 1
 640 661 l 2
 820 661 808 484 753 347 c 0
 684 172 469 0 273 0 c 2
 17 0 l 1
 27 24 l 1
 80 24 l 2
 90 24 100 29 109 36 c 256
 119 44 126 51 130 61 c 2
EndSplineSet
EndChar

StartChar: uni018B
Encoding: 395 395 329
Width: 583
Flags: W
HStem: 0 24<360 411> 0 34<173 283> 333 25<293 404> 637 24<225 670>
DStem2: 283 34 348 61 0.375048 0.927005<49.4073 322.555 349.481 584.572>
LayerCount: 2
Back
Fore
SplineSet
560 585 m 1
 560 585 559 583 348 61 c 0
 344 51 345 44 349 36 c 0
 353 28 358 24 368 24 c 2
 421 24 l 1
 411 0 l 1
 196 0 l 2
 88 0 -2 24 42 158 c 0
 83 282 203 358 295 358 c 2
 414 358 l 1
 414 358 414 358 502 576 c 0
 510 595 512 610 500 620 c 0
 495 624 491 626 484 626 c 2
 362 626 l 2
 310 626 270 609 219 572 c 0
 171 539 143 515 111 470 c 1
 96 470 l 1
 225 661 l 1
 680 661 l 1
 670 637 l 1
 617 637 l 2
 607 637 597 632 587 625 c 0
 572 613 566 601 560 585 c 1
283 34 m 1
 404 333 l 1
 305 333 l 2
 223 333 144 260 104 160 c 0
 79 97 122 34 183 34 c 2
 283 34 l 1
EndSplineSet
EndChar

StartChar: uni018C
Encoding: 396 396 330
Width: 487
Flags: W
HStem: 454 18<323 358> 636 25<317 501>
DStem2: 318 121 356 76 0.374122 0.927379<0 190.709 335.18 517.722>
LayerCount: 2
Back
Fore
SplineSet
389 298 m 1
 441 425 432 454 334 454 c 0
 236 453 163 336 121 239 c 0
 77 135 50 -1 156 8 c 0
 235 14 277 45 318 121 c 1
 389 298 l 1
356 76 m 1
 375 66 l 1
 366 45 l 1
 265 -9 l 1
 277 21 l 1
 236 1 190 -8 147 -9 c 0
 25 -13 -8 89 44 228 c 0
 90 350 218 471 342 472 c 0
 389 473 423 459 443 432 c 1
 512 601 l 1
 517 615 519 625 510 632 c 0
 507 635 504 636 499 636 c 2
 414 636 l 2
 378 636 349 624 313 598 c 0
 280 575 260 559 238 527 c 1
 228 527 l 1
 317 661 l 1
 592 661 l 1
 356 76 l 1
EndSplineSet
EndChar

StartChar: uni018D
Encoding: 397 397 331
Width: 482
Flags: W
HStem: -135 16<36 53> 455 17<348 367>
DStem2: 137 -66 157 -67 0.368626 0.929578<6.44294 61.4643>
LayerCount: 2
Back
Fore
SplineSet
358 455 m 0
 182 455 1 6 177 6 c 0
 352 6 533 455 358 455 c 0
38 -135 m 0
 11 -135 -25 -124 -17 -77 c 0
 -11 -39 16 -8 51 0 c 0
 94 11 79 -60 26 -73 c 1
 17 -74 11 -74 5 -72 c 1
 2 -77 0 -80 -1 -86 c 0
 -3 -98 13 -119 47 -119 c 0
 74 -119 123 -102 137 -66 c 2
 160 -9 l 1
 -79 4 113 472 365 472 c 0
 617 472 430 3 180 -9 c 1
 157 -67 l 2
 143 -101 85 -135 38 -135 c 0
EndSplineSet
EndChar

StartChar: uni018E
Encoding: 398 398 332
Width: 584
Flags: W
HStem: 0 17<419 461> 0 22<129.094 318> 295 27<358 465> 643 18<318 760>
LayerCount: 2
Back
Fore
SplineSet
27 0 m 1
 97 165 l 1
 103 160 l 1
 97 125 l 2
 92 95 92 22 138 22 c 2
 307 22 l 2
 334 22 350 40 360 63 c 2
 465 295 l 1
 336 295 l 2
 292 295 273 277 248 245 c 2
 228 220 l 1
 215 215 l 1
 317 433 l 1
 328 438 l 1
 321 413 l 2
 309 369 310 322 368 322 c 2
 477 322 l 1
 618 598 l 2
 630 621 630 638 596 638 c 2
 421 638 l 2
 358 638 314 569 279 526 c 2
 242 481 l 1
 234 491 l 1
 318 661 l 1
 771 661 l 1
 760 643 l 1
 739 643 l 2
 706 643 683 618 670 591 c 2
 410 50 l 2
 401 31 401 17 426 17 c 2
 466 17 l 1
 461 0 l 1
 27 0 l 1
EndSplineSet
EndChar

StartChar: uni018F
Encoding: 399 399 333
Width: 579
Flags: W
HStem: -8 23<157 171> 224 28<31 461> 614 66<424 446>
LayerCount: 2
Back
Fore
SplineSet
31 252 m 1
 474 252 l 1
 485 272 505 294 514 315 c 0
 573 461 557 614 429 614 c 0
 349 614 284 593 204 538 c 0
 170 515 153 500 125 470 c 1
 150 533 l 1
 203 591 247 623 318 654 c 0
 368 676 400 680 446 680 c 0
 616 680 663 542 574 321 c 0
 505 151 340 -8 159 -8 c 0
 24 -8 -23 118 31 252 c 1
88 224 m 1
 55 142 71 15 169 15 c 0
 273 15 395 118 461 224 c 1
 88 224 l 1
EndSplineSet
EndChar

StartChar: uni0190
Encoding: 400 400 334
Width: 539
Flags: W
HStem: 2 42<116 161> 331 36<278 307> 460 169<478 507> 628 36<362 394>
LayerCount: 2
Back
Fore
SplineSet
321 367 m 1
 294 367 l 2
 198 367 161 415 193 497 c 0
 224 573 302 628 378 628 c 0
 461 628 492 576 478 460 c 1
 502 460 l 1
 512 493 l 2
 538 579 545 599 571 665 c 1
 547 665 l 1
 534 641 521 629 507 629 c 0
 501 629 492 632 484 636 c 2
 477 639 l 2
 434 659 413 664 364 664 c 0
 247 664 169 599 129 499 c 0
 98 423 110 370 187 356 c 2
 195 354 l 2
 198 354 200 353 200 352 c 0
 199 350 195 348 191 348 c 2
 182 346 l 2
 77 328 14 270 -19 189 c 0
 -62 81 -17 2 116 2 c 0
 188 2 255 22 319 64 c 0
 365 94 383 112 418 161 c 1
 392 170 l 1
 362 131 347 117 312 94 c 0
 263 62 208 44 161 44 c 0
 65 44 20 105 55 190 c 0
 75 242 121 291 166 311 c 0
 196 325 232 331 280 331 c 2
 307 331 l 1
 321 367 l 1
EndSplineSet
EndChar

StartChar: uni0191
Encoding: 401 401 335
Width: 556
Flags: W
HStem: -136 13<-95 -76> 348 25<212 311> 470 191<185 575> 627 34<185 496> 637 24<184 230>
DStem2: -29 -90 212 373 0.373707 0.927547<519.518 738.454 72.7304 492.592> 351 234 369 234 0.37579 0.926705<6.76422 19.687 254.778 274.089>
LayerCount: 2
Back
Fore
SplineSet
249 600 m 2
 253 610 253 617 248 625 c 0
 245 632 238 637 228 637 c 2
 175 637 l 1
 185 661 l 1
 631 661 l 1
 575 470 l 1
 560 470 l 1
 566 502 l 2
 575 550 561 590 541 609 c 0
 531 618 520 627 477 627 c 2
 352 627 l 2
 345 627 339 624 331 620 c 0
 311 610 301 595 294 576 c 1
 212 373 l 1
 309 373 l 2
 351 373 388 396 422 434 c 0
 433 446 441 456 447 470 c 2
 454 488 l 1
 472 488 l 1
 369 234 l 1
 351 234 l 1
 359 252 l 2
 365 267 365 276 364 289 c 0
 360 326 340 348 299 348 c 2
 202 348 l 1
 44 -41 l 1
 23 -95 -41 -136 -95 -136 c 0
 -134 -136 -153 -118 -141 -86 c 0
 -126 -46 -54 -49 -74 -99 c 0
 -77 -107 -82 -113 -89 -120 c 1
 -84 -122 -82 -123 -76 -123 c 0
 -59 -123 -36 -107 -29 -90 c 2
 249 600 l 2
EndSplineSet
EndChar

StartChar: florin
Encoding: 402 402 336
Width: 312
Flags: W
HStem: -211 21G<-186 -88.5> 409 22<185 227 295 344>
LayerCount: 2
Back
Fore
SplineSet
496 588 m 0
 490 566 482 549 462 552 c 0
 442 554 434 577 442 600 c 0
 447 614 457 622 471 624 c 1
 468 629 480 653 451 653 c 0
 419 653 372 573 337 512 c 0
 321 483 307 457 295 431 c 1
 356 431 l 1
 344 409 l 1
 344 409 285 409 284 409 c 0
 226 288 193 189 114 52 c 0
 39 -80 -15 -211 -162 -211 c 0
 -210 -211 -227 -169 -218 -131 c 0
 -213 -109 -204 -93 -185 -95 c 0
 -164 -97 -156 -116 -163 -144 c 0
 -166 -159 -178 -166 -193 -168 c 1
 -196 -189 -177 -201 -158 -199 c 0
 -45 -185 5 -61 66 68 c 2
 66 68 171 293 227 409 c 1
 174 409 l 1
 186 431 l 1
 238 431 l 1
 303 553 389 672 461 666 c 0
 494 663 506 619 496 588 c 0
EndSplineSet
EndChar

StartChar: uni0193
Encoding: 403 403 337
Width: 610
Flags: W
HStem: 339 18<392 593> 446 21G<558 572> 697 13<695 715>
DStem2: 356 91 401 68 0.37561 0.926778<0 219.863>
LayerCount: 2
Back
Fore
SplineSet
534 629 m 0
 502 655 472 663 422 664 c 0
 273 667 98 496 31 332 c 0
 -37 165 -11 -12 159 -6 c 0
 228 -3 279 13 349 58 c 0
 370 71 364 67 382 82 c 1
 401 68 l 1
 493 295 l 2
 498 307 502 316 512 325 c 0
 521 333 531 339 541 339 c 2
 586 339 l 1
 593 357 l 1
 399 357 l 1
 392 339 l 1
 423 339 l 2
 434 339 439 334 443 325 c 0
 447 316 443 307 438 295 c 2
 356 91 l 1
 340 76 330 68 311 56 c 0
 262 26 230 14 183 13 c 0
 28 9 28 180 85 324 c 0
 139 461 281 635 409 645 c 0
 516 653 552 578 560 484 c 0
 562 470 560 461 558 446 c 1
 572 446 l 1
 649 665 l 1
 654 675 678 697 695 697 c 0
 701 697 704 696 708 694 c 1
 701 687 697 681 694 673 c 0
 674 623 745 620 760 660 c 0
 773 692 754 710 715 710 c 0
 661 710 637 665 637 665 c 1
 625 653 617 645 603 636 c 0
 592 629 583 623 572 621 c 0
 540 617 544 620 534 629 c 0
EndSplineSet
EndChar

StartChar: uni0194
Encoding: 404 404 338
Width: 704
Flags: W
HStem: 636 25<203 218 204 381 609 639 610 819>
DStem2: 167 -71 187 -71 0.609711 0.792624<12.1942 59.2029 183.218 728.054> 217 -6 279 74 0.0436558 0.999047<82.6304 595.568 0 55.6125>
LayerCount: 2
Back
Fore
SplineSet
217 -6 m 1
 243 589 l 1
 244 615 237 636 207 636 c 2
 194 636 l 1
 204 661 l 1
 391 661 l 1
 381 636 l 1
 336 636 l 2
 330 636 324 633 317 629 c 0
 301 618 301 602 300 587 c 1
 279 74 l 1
 611 506 l 1
 639 544 674 590 671 614 c 0
 669 633 646 636 625 636 c 2
 600 636 l 1
 610 661 l 1
 829 661 l 1
 819 636 l 1
 807 636 l 2
 780 636 741 612 703 583 c 0
 672 560 657 543 635 514 c 2
 278 47 l 1
 274 -40 l 1
 272 -87 240 -147 170 -147 c 0
 131 -147 138 -110 167 -71 c 2
 217 -6 l 1
214 -71 m 1
 216 -34 l 1
 187 -71 l 2
 176 -86 160 -117 178 -119 c 0
 197 -121 213 -99 214 -71 c 1
EndSplineSet
EndChar

StartChar: uni0195
Encoding: 405 405 339
Width: 683
Flags: W
HStem: 0 18<-105 -51 -105 91>
DStem2: -17 45 184 402 0.374757 0.927123<406.309 563.032 20.9864 375.853> 294 161 350 161 0.376798 0.926295<21.1007 221.165>
LayerCount: 2
Back
Fore
SplineSet
350 161 m 1
 446 397 l 1
 472 463 410 476 354 472 c 0
 298 469 228 435 184 402 c 1
 290 665 l 1
 152 598 l 1
 146 583 l 1
 194 567 l 1
 -17 45 l 2
 -20 37 -24 33 -32 27 c 0
 -39 21 -45 18 -53 18 c 2
 -97 18 l 1
 -105 0 l 1
 91 0 l 1
 99 18 l 1
 54 18 l 2
 47 18 42 21 39 27 c 0
 37 33 36 37 39 45 c 2
 172 374 l 1
 211 404 279 443 329 445 c 0
 373 447 395 409 377 366 c 1
 294 161 l 2
 266 92 274 -8 354 -8 c 0
 511 -7 668 300 659 390 c 0
 657 420 661 432 637 440 c 0
 605 452 581 425 581 397 c 0
 582 370 608 354 628 355 c 1
 624 332 622 321 615 300 c 0
 583 208 473 30 381 19 c 0
 312 11 329 108 350 161 c 1
EndSplineSet
EndChar

StartChar: uni0196
Encoding: 406 406 340
Width: 262
Flags: W
HStem: -95 13<77 88>
LayerCount: 2
Back
Fore
SplineSet
272 474 m 1
 137 407 l 1
 132 394 l 1
 177 376 l 1
 38 30 34 21 25 0 c 0
 4 -54 34 -95 88 -95 c 0
 127 -95 160 -77 174 -45 c 0
 192 -5 117 -8 97 -58 c 0
 94 -66 93 -72 95 -79 c 1
 89 -81 85 -82 79 -82 c 0
 62 -82 54 -66 61 -49 c 2
 272 474 l 1
EndSplineSet
EndChar

StartChar: uni0197
Encoding: 407 407 341
Width: 297
Flags: W
HStem: 0 24<-80 141> 315 45<61 127 200 263> 637 24<178 224 179 399>
DStem2: 24 61 79 61 0.37579 0.926705<20.6684 274.089 343.165 581.416>
LayerCount: 2
Back
Fore
SplineSet
62 360 m 1
 145 360 l 1
 242 600 l 2
 246 610 245 617 241 625 c 256
 238 632 232 637 222 637 c 2
 169 637 l 1
 179 661 l 1
 409 661 l 1
 399 637 l 1
 347 637 l 2
 336 637 327 633 317 625 c 256
 307 617 301 610 297 600 c 2
 200 360 l 1
 281 360 l 1
 263 315 l 1
 182 315 l 1
 79 61 l 2
 75 51 75 44 79 36 c 0
 83 28 88 24 99 24 c 2
 151 24 l 1
 141 0 l 1
 -89 0 l 1
 -79 24 l 1
 -26 24 l 2
 -16 24 -6 29 3 36 c 0
 13 44 20 51 24 61 c 2
 127 315 l 1
 44 315 l 1
 62 360 l 1
EndSplineSet
EndChar

StartChar: uni0198
Encoding: 408 408 342
Width: 662
Flags: W
HStem: 0 24<-95 -31 -95 135 290 338 290 485> 619 19<685 715> 637 24<163 403>
DStem2: 18 61 173 308 0.374946 0.927046<287.097 581.416 20.6221 257.015> 173 308 162 280 0.810202 0.586151<0 112.31> 332 402 274 360 0.256598 -0.966518<25.7111 331.105>
LayerCount: 2
Back
Fore
SplineSet
531 567 m 2
 173 308 l 1
 291 600 l 2
 295 610 301 617 311 625 c 256
 321 633 330 637 340 637 c 2
 393 637 l 1
 403 661 l 1
 173 661 l 1
 163 637 l 1
 215 637 l 2
 226 637 231 632 235 625 c 256
 239 617 240 610 236 600 c 2
 18 61 l 2
 14 51 7 44 -3 36 c 0
 -13 29 -22 24 -33 24 c 2
 -85 24 l 1
 -95 0 l 1
 135 0 l 1
 145 24 l 1
 92 24 l 2
 82 24 77 28 73 36 c 0
 69 44 69 51 73 61 c 2
 162 280 l 1
 274 360 l 1
 353 65 l 2
 356 54 357 39 346 31 c 0
 340 27 337 25 331 25 c 2
 301 25 l 1
 290 0 l 1
 485 0 l 1
 496 25 l 1
 459 25 l 2
 450 25 446 31 441 35 c 0
 431 43 425 50 422 63 c 1
 332 402 l 1
 332 402 603 619 685 619 c 2
 713 619 l 1
 713 619 745 619 743 602 c 0
 742 596 740 593 737 588 c 1
 730 590 724 590 716 589 c 0
 662 576 648 505 691 516 c 0
 725 524 753 555 759 593 c 0
 766 640 715 638 715 638 c 1
 633 638 564 591 531 567 c 2
EndSplineSet
EndChar

StartChar: uni0199
Encoding: 409 409 343
Width: 526
Flags: W
HStem: 0 18<-100 90 163 362> 447 16<303 333> 652 13<314 333>
DStem2: -18 45 107 217 0.375951 0.92664<206.376 566.563 21.0533 192.45> 107 217 242 297 0.825645 0.564191<156.597 218.011 0 78.6702> 242 297 177 254 0.211333 -0.977414<28.2922 248.712>
LayerCount: 2
Back
Fore
SplineSet
107 217 m 1
 287 340 l 2
 316 360 334 374 344 403 c 0
 356 435 343 447 326 447 c 2
 297 447 l 1
 304 463 l 1
 529 463 l 1
 522 447 l 1
 495 444 479 439 451 428 c 0
 421 416 406 407 380 389 c 2
 242 297 l 1
 298 38 l 1
 298 31 301 29 307 25 c 0
 312 20 315 18 323 18 c 2
 369 18 l 1
 362 0 l 1
 157 0 l 1
 164 18 l 1
 209 18 l 2
 216 18 217 20 220 24 c 0
 225 30 222 33 221 38 c 2
 177 254 l 1
 102 204 l 1
 38 45 l 2
 35 37 35 33 38 27 c 0
 40 21 45 18 52 18 c 2
 97 18 l 1
 90 0 l 1
 -106 0 l 1
 -99 18 l 1
 -55 18 l 2
 -47 18 -41 21 -33 27 c 0
 -26 33 -21 37 -18 45 c 0
 169 506 129 407 195 570 c 0
 217 624 279 665 333 665 c 0
 372 665 391 647 379 615 c 0
 364 575 292 578 312 628 c 0
 316 636 320 642 327 649 c 1
 323 651 320 652 314 652 c 0
 297 652 277 636 270 619 c 2
 107 217 l 1
EndSplineSet
EndChar

StartChar: uni019A
Encoding: 410 410 344
Width: 262
Flags: W
HStem: 0 18<-98 92> 317 45<35 94 168 233>
DStem2: -16 45 40 45 0.374914 0.92706<20.9952 293.401 362.781 568.417>
LayerCount: 2
Back
Fore
SplineSet
36 362 m 1
 112 362 l 1
 197 572 l 1
 148 587 l 1
 154 603 l 1
 292 670 l 1
 168 362 l 1
 251 362 l 1
 233 317 l 1
 150 317 l 1
 40 45 l 2
 37 37 37 33 41 27 c 257
 42 21 47 18 54 18 c 2
 99 18 l 1
 92 0 l 1
 -104 0 l 1
 -97 18 l 1
 -52 18 l 2
 -45 18 -39 21 -31 27 c 256
 -24 33 -19 37 -16 45 c 2
 94 317 l 1
 18 317 l 1
 36 362 l 1
EndSplineSet
EndChar

StartChar: uni019B
Encoding: 411 411 345
Width: 388
Flags: W
HStem: 0 18<-109 81> 570 66<116 182>
DStem2: -27 45 29 45 0.555265 0.831674<31.0948 403.266> 95 426 107 406 0.813733 0.581238<0 165.188 207.851 340.858>
LayerCount: 2
Back
Fore
SplineSet
95 426 m 1
 242 531 l 1
 237 571 213 595 194 597 c 0
 171 600 149 571 116 570 c 0
 90 570 123 635 182 636 c 0
 223 637 249 599 264 547 c 1
 374 625 l 1
 386 605 l 1
 271 523 l 1
 285 461 288 385 285 323 c 0
 280 186 270 0 185 0 c 0
 162 0 181 48 216 77 c 0
 222 82 228 86 235 91 c 1
 252 141 250 169 256 216 c 0
 263 275 255 324 256 385 c 1
 29 45 l 2
 20 32 31 18 43 18 c 258
 88 18 l 1
 81 0 l 1
 -115 0 l 1
 -108 18 l 1
 -64 18 l 258
 -48 18 -36 32 -27 45 c 2
 196 381 l 1
 227 429 241 470 243 503 c 1
 107 406 l 1
 95 426 l 1
EndSplineSet
EndChar

StartChar: uni019C
Encoding: 412 412 346
Width: 785
Flags: W
HStem: 643 18<161 201 162 353 425 470 426 614 689 728 690 878>
DStem2: -4 77 66 108 0.373467 0.927644<54.8996 581.042> 268 97 328 108 0.373547 0.927611<32.6165 559.502> 532 98 588 98 0.374167 0.927361<20.9534 558.574>
LayerCount: 2
Back
Fore
SplineSet
162 661 m 1
 360 661 l 1
 352 643 l 1
 308 643 l 2
 300 643 294 640 287 634 c 0
 279 628 275 624 271 616 c 1
 66 108 l 2
 49 65 70 27 114 29 c 256
 162 31 228 68 268 97 c 1
 477 616 l 1
 481 624 480 628 477 634 c 0
 474 640 470 643 463 643 c 2
 418 643 l 1
 426 661 l 1
 622 661 l 1
 614 643 l 1
 569 643 l 2
 562 643 555 640 549 634 c 1
 540 628 537 624 533 616 c 1
 328 108 l 2
 311 65 332 27 376 29 c 256
 426 31 493 69 532 98 c 1
 741 616 l 1
 745 624 743 628 741 634 c 0
 738 640 734 643 726 643 c 2
 682 643 l 1
 690 661 l 1
 886 661 l 1
 878 643 l 1
 833 643 l 2
 826 643 819 640 812 634 c 0
 804 628 801 624 797 616 c 1
 588 98 l 1
 636 83 l 1
 630 67 l 1
 492 0 l 1
 521 71 l 1
 476 39 408 6 351 2 c 0
 297 -1 238 10 257 70 c 1
 212 38 145 5 89 2 c 0
 33 -2 -31 11 -4 77 c 2
 213 616 l 1
 217 624 216 628 213 634 c 0
 211 640 206 643 199 643 c 2
 154 643 l 1
 162 661 l 1
EndSplineSet
EndChar

StartChar: uni019D
Encoding: 413 413 347
Width: 730
Flags: W
HStem: 0 21G<449 485> 637 24<211 349 620 865>
DStem2: 29 -31 50 -26 0.374682 0.927154<12.5041 680.578> 349 661 302 598 0.238713 -0.97109<49.9592 599.533> 497 80 485 0 0.374914 0.92706<0 500.639>
LayerCount: 2
Back
Fore
SplineSet
302 598 m 1
 449 0 l 1
 485 0 l 1
 705 544 l 1
 719 580 740 609 777 627 c 256
 788 632 796 636 807 636 c 2
 855 636 l 1
 865 661 l 1
 630 661 l 1
 620 636 l 1
 658 636 l 2
 668 636 671 632 679 627 c 256
 704 613 699 580 685 544 c 1
 497 80 l 1
 349 661 l 1
 221 661 l 1
 211 637 l 1
 263 637 l 2
 273 637 279 632 283 625 c 0
 287 617 288 610 284 600 c 2
 29 -31 l 2
 22 -49 16 -64 -3 -68 c 0
 -9 -69 -12 -69 -17 -68 c 1
 -12 -61 -9 -54 -8 -47 c 0
 0 2 -78 -13 -82 -51 c 0
 -86 -82 -61 -97 -20 -88 c 0
 32 -76 50 -26 50 -26 c 1
 302 598 l 1
EndSplineSet
EndChar

StartChar: uni019F
Encoding: 415 415 349
Width: 671
Flags: W
HStem: -21 21<209 241> 309 43<223 442> 650 21<445 479>
DStem2: 179 262 231 371 0.338964 0.940799<120.173 144.558 4.06757 34.1386> 436 262 449 262 0.345066 0.938579<4.48585 30.0759 116.108 144.9>
LayerCount: 2
Back
Fore
SplineSet
225 0 m 0
 511 0 732 650 462 650 c 0
 180 650 -48 0 225 0 c 0
218 -21 m 0
 -143 -21 109 671 469 671 c 0
 831 671 579 -21 218 -21 c 0
439 309 m 2
 443 309 445 306 447 303 c 0
 448 299 449 295 447 290 c 2
 436 262 l 1
 449 262 l 1
 499 398 l 1
 486 398 l 1
 476 371 l 2
 474 365 471 361 467 357 c 0
 462 354 459 352 455 352 c 2
 239 352 l 2
 235 352 233 354 231 357 c 0
 229 361 229 365 231 371 c 2
 241 398 l 1
 228 398 l 1
 179 262 l 1
 191 262 l 1
 202 290 l 1
 203 295 207 299 211 303 c 0
 216 306 219 309 223 309 c 2
 439 309 l 2
EndSplineSet
EndChar

StartChar: uni01A2
Encoding: 418 418 352
Width: 984
Flags: W
HStem: -191 24<528 751> -21 21<246 264> 650 21<518 536> 665 17<850 858>
DStem2: 632 -130 687 -130 0.374391 0.927271<20.5915 642.86>
LayerCount: 2
Back
Fore
SplineSet
259 0 m 0
 579 0 840 650 522 650 c 0
 205 650 -56 0 259 0 c 0
687 -130 m 2
 683 -140 683 -147 687 -155 c 0
 692 -163 697 -167 707 -167 c 2
 760 -167 l 1
 751 -191 l 1
 520 -191 l 1
 529 -167 l 1
 582 -167 l 2
 592 -167 602 -162 611 -155 c 0
 621 -147 628 -140 632 -130 c 2
 890 509 l 1
 915 569 923 665 856 665 c 0
 814 665 733 623 705 581 c 1
 800 393 562 -21 251 -21 c 0
 -151 -21 128 671 530 671 c 0
 605 671 656 647 687 609 c 1
 731 649 811 682 852 682 c 0
 957 682 965 614 942 516 c 0
 936 489 931 474 920 447 c 2
 687 -130 l 2
EndSplineSet
EndChar

StartChar: uni01A3
Encoding: 419 419 353
Width: 664
Flags: W
HStem: -183 24<315 537> -9 15<166 176> 455 17<351 369> 517 17<586 594>
DStem2: 419 -122 474 -122 0.374368 0.92728<20.5902 474.618>
LayerCount: 2
Back
Fore
SplineSet
355 455 m 0
 179 455 -2 6 174 6 c 0
 349 6 530 455 355 455 c 0
474 -122 m 2
 470 -132 470 -139 474 -147 c 0
 478 -155 484 -159 494 -159 c 2
 547 -159 l 1
 537 -183 l 1
 306 -183 l 1
 316 -159 l 1
 369 -159 l 2
 379 -159 389 -154 398 -147 c 0
 408 -139 415 -132 419 -122 c 2
 614 361 l 2
 638 421 659 517 592 517 c 0
 549 517 482 474 457 432 c 1
 546 317 378 -9 168 -9 c 0
 -87 -9 107 472 362 472 c 0
 391 472 415 466 433 454 c 1
 472 498 544 534 588 534 c 0
 693 534 688 466 666 368 c 0
 660 341 655 326 644 299 c 2
 474 -122 l 2
EndSplineSet
EndChar

StartChar: uni01A4
Encoding: 420 420 354
Width: 491
Flags: W
HStem: 0 24<-104 -39 -104 127> 367 18<188 313> 638 23<296 430> 642 19<151.363 217>
DStem2: 9 61 195 385 0.374914 0.92706<370.101 586.801 20.6203 350.79>
LayerCount: 2
Back
Fore
SplineSet
9 61 m 2
 5 51 -2 44 -12 36 c 0
 -21 29 -31 24 -41 24 c 2
 -94 24 l 1
 -104 0 l 1
 126 0 l 1
 136 24 l 1
 84 24 l 2
 73 24 68 28 64 36 c 0
 60 44 60 51 64 61 c 2
 188 367 l 1
 296 367 l 2
 388 367 485 413 526 537 c 0
 559 636 505 661 430 661 c 2
 282 661 l 1
 164 661 l 1
 164 661 114 663 83 616 c 0
 59 578 61 547 89 539 c 0
 123 528 167 599 123 612 c 0
 116 613 109 613 101 611 c 1
 102 616 103 619 107 625 c 0
 118 642 151 642 151 642 c 1
 209 642 l 2
 221 642 225 637 228 630 c 0
 232 622 233 615 229 605 c 2
 9 61 l 2
297 638 m 1
 397 638 l 2
 458 638 501 598 476 535 c 0
 436 435 376 385 294 385 c 2
 195 385 l 1
 297 638 l 1
EndSplineSet
EndChar

StartChar: uni01A5
Encoding: 421 421 355
Width: 524
Flags: W
HStem: -147 18<-104 86>
DStem2: -22 -102 122 116 0.374463 0.927242<256.061 487.997 20.9699 160.983>
LayerCount: 2
Back
Fore
SplineSet
209 331 m 2
 122 116 l 1
 107 55 118 6 198 8 c 0
 278 10 371 123 418 239 c 0
 482 399 406 459 372 454 c 0
 281 442 233 391 209 331 c 2
454 465 m 1
 463 477 477 494 495 515 c 0
 515 540 553 573 599 566 c 0
 635 561 648 535 631 503 c 0
 611 464 544 477 571 526 c 0
 576 534 581 540 588 546 c 1
 585 549 582 550 577 551 c 0
 565 553 531 538 506 507 c 2
 468 460 l 1
 526 434 537 367 489 243 c 0
 438 109 292 -7 191 -9 c 0
 145 -10 108 2 86 28 c 1
 34 -102 l 2
 31 -110 31 -114 35 -120 c 257
 36 -126 41 -129 48 -129 c 2
 93 -129 l 1
 86 -147 l 1
 -110 -147 l 1
 -103 -129 l 1
 -58 -129 l 2
 -51 -129 -45 -126 -37 -120 c 256
 -29 -114 -25 -110 -22 -102 c 2
 167 366 l 1
 133 389 l 1
 140 405 l 1
 263 465 l 1
 246 424 l 1
 253 428 261 432 268 436 c 0
 314 461 343 470 386 472 c 0
 412 473 435 471 454 465 c 1
EndSplineSet
EndChar

StartChar: uni01A6
Encoding: 422 422 356
Width: 627
Flags: W
HStem: 0 16<433 447> 0 24<-120 102> 367 25<173 270> 631 30<282 403> 740 24<179 401>
DStem2: -16 61 173 392 0.37537 0.926875<377.741 635.675 20.6453 350.815> 329 369 270 367 0.162334 -0.986736<0 301.664>
LayerCount: 2
Back
Fore
SplineSet
467 535 m 0
 492 598 446 631 385 631 c 2
 270 631 l 1
 173 392 l 1
 287 392 l 2
 369 392 427 435 467 535 c 0
-16 61 m 2
 244 703 l 2
 248 713 247 720 243 728 c 0
 240 735 234 740 224 740 c 2
 171 740 l 1
 180 764 l 1
 410 764 l 1
 401 740 l 1
 349 740 l 2
 338 740 329 736 319 728 c 0
 309 720 303 713 299 703 c 2
 282 661 l 1
 432 661 l 2
 507 661 562 636 529 537 c 0
 492 427 410 378 329 369 c 1
 382 72 l 2
 386 50 406 32 411 28 c 0
 415 25 431 16 440 16 c 2
 453 16 l 1
 447 0 l 1
 383 0 l 2
 361 0 349 5 337 17 c 0
 325 29 324 39 321 57 c 2
 270 367 l 1
 163 367 l 1
 39 61 l 2
 35 51 35 44 39 36 c 0
 43 28 48 24 59 24 c 2
 111 24 l 1
 102 0 l 1
 -128 0 l 1
 -119 24 l 1
 -66 24 l 2
 -56 24 -46 29 -37 36 c 0
 -27 44 -20 51 -16 61 c 2
EndSplineSet
EndChar

StartChar: uni01A7
Encoding: 423 423 357
Width: 417
Flags: W
HStem: 654 15<549 568>
LayerCount: 2
Back
Fore
SplineSet
349 639 m 1
 241 441 l 1
 262 443 l 1
 273 462 285 474 301 493 c 0
 373 575 482 654 551 654 c 0
 618 654 641 617 589 551 c 0
 454 378 168 301 66 161 c 0
 -14 52 25 -3 124 -3 c 0
 227 -4 293 53 315 53 c 0
 329 53 336 48 335 35 c 1
 333 13 l 1
 348 15 l 1
 489 248 l 1
 474 248 l 1
 463 230 446 209 421 183 c 0
 345 104 244 11 142 19 c 0
 77 24 58 59 103 125 c 0
 209 283 517 376 616 508 c 0
 687 603 668 669 559 669 c 0
 465 669 386 602 371 603 c 0
 357 604 361 612 363 623 c 2
 366 641 l 1
 349 639 l 1
EndSplineSet
EndChar

StartChar: uni01A8
Encoding: 424 424 358
Width: 342
Flags: W
HStem: 3 16<99 124> 429 20G<312 396>
LayerCount: 2
Back
Fore
SplineSet
235 55 m 0
 278 99 233 109 186 73 c 0
 163 55 149 35 158 27 c 1
 144 22 134 19 124 19 c 0
 66 13 66 60 117 113 c 0
 169 167 302 231 374 307 c 0
 453 390 438 449 354 449 c 0
 270 449 206 387 193 373 c 0
 142 317 222 323 265 371 c 0
 288 397 281 412 254 407 c 1
 286 424 306 431 334 436 c 0
 400 445 408 401 339 330 c 0
 273 261 168 222 92 143 c 0
 17 65 23 3 99 3 c 0
 143 3 197 16 235 55 c 0
EndSplineSet
EndChar

StartChar: uni01A9
Encoding: 425 425 359
Width: 678
Flags: W
HStem: 0 20<-52 285> 638 20<194 687>
DStem2: 52 71 86 71 0.695835 0.718201<23.6584 321.076> 307 587 253 587 0.231621 -0.972806<0 224.95>
LayerCount: 2
Back
Fore
SplineSet
417 0 m 1
 543 197 l 1
 521 197 l 1
 496 165 l 2
 451 107 357 20 279 20 c 2
 106 20 l 258
 72 20 64 49 86 71 c 2
 366 360 l 1
 307 587 l 2
 300 615 339 638 362 638 c 258
 540 638 l 2
 616 638 638 570 629 502 c 2
 625 471 l 1
 640 471 l 1
 687 658 l 1
 201 658 l 1
 194 638 l 1
 217 638 l 258
 242 638 249 606 253 587 c 1
 308 356 l 1
 275 302 l 1
 52 71 l 2
 38 56 2 20 -18 20 c 258
 -44 20 l 1
 -52 0 l 1
 417 0 l 1
EndSplineSet
EndChar

StartChar: uni01AA
Encoding: 426 426 360
Width: 283
Flags: W
HStem: -175 13<100 111> 489 18<207 219> 655 18<274 286>
DStem2: 49 -80 85 -129 0.375274 0.926914<0 648.267 685.963 722.206>
LayerCount: 2
Back
Fore
SplineSet
155 581 m 0
 175 632 233 673 284 673 c 0
 344 673 395 637 368 570 c 2
 85 -129 l 2
 78 -146 85 -162 102 -162 c 0
 108 -162 111 -161 117 -159 c 1
 116 -152 116 -146 120 -138 c 0
 140 -88 214 -85 197 -125 c 0
 183 -157 150 -175 111 -175 c 0
 57 -175 27 -134 49 -80 c 2
 292 521 l 1
 267 501 237 489 209 489 c 0
 159 489 134 530 155 581 c 0
173 581 m 0
 157 540 176 507 217 507 c 0
 249 507 284 528 306 556 c 1
 328 609 l 1
 328 636 307 655 276 655 c 0
 236 655 189 622 173 581 c 0
EndSplineSet
EndChar

StartChar: uni01AB
Encoding: 427 427 361
Width: 265
Flags: W
HStem: -130 72<12 54> -9 21G<26 58.5> 413 43<237 285>
DStem2: 27 73 79 65 0.37552 0.926814<12.1125 366.563>
LayerCount: 2
Back
Fore
SplineSet
122 18 m 1
 116 4 104 -25 88 -64 c 0
 73 -103 44 -129 12 -130 c 0
 -29 -131 4 -58 54 -58 c 0
 62 -58 67 -60 72 -64 c 1
 76 -59 79 -56 81 -50 c 0
 86 -38 97 -10 103 6 c 1
 86 -3 68 -9 49 -9 c 0
 3 -9 11 35 27 73 c 1
 164 413 l 1
 108 413 l 1
 117 435 l 1
 261 560 l 1
 274 546 l 1
 237 456 l 1
 318 456 l 1
 285 413 l 1
 220 413 l 1
 79 65 l 1
 73 48 84 35 102 36 c 0
 122 38 162 66 168 83 c 1
 162 64 l 2
 159 53 144 34 122 18 c 1
EndSplineSet
EndChar

StartChar: uni01AC
Encoding: 428 428 362
Width: 741
Flags: W
HStem: 0 24<117 182 117 348> 630 31<221 426 548 787>
DStem2: 230 61 285 61 0.375083 0.926991<20.6296 559.876>
LayerCount: 2
Back
Fore
SplineSet
423 630 m 2
 430 630 434 628 439 624 c 256
 450 614 447 598 440 580 c 2
 230 61 l 2
 226 51 219 44 209 36 c 0
 200 29 190 24 180 24 c 2
 127 24 l 1
 117 0 l 1
 348 0 l 1
 358 24 l 1
 305 24 l 2
 295 24 289 28 285 36 c 0
 281 44 281 51 285 61 c 2
 495 580 l 2
 502 598 514 614 533 624 c 256
 540 628 545 630 552 630 c 2
 632 630 l 2
 669 630 698 632 713 606 c 0
 730 576 762 544 754 489 c 1
 774 490 l 1
 787 661 l 1
 239 661 l 2
 232 661 184 651 154 604 c 0
 129 566 131 535 159 527 c 0
 193 516 237 587 193 600 c 0
 186 601 180 601 171 599 c 1
 172 604 173 607 177 613 c 0
 188 630 212 630 221 630 c 2
 423 630 l 2
EndSplineSet
EndChar

StartChar: uni01AD
Encoding: 429 429 363
Width: 265
Flags: W
HStem: 413 43<187 235> 674 13<308 328>
DStem2: -23 73 29 65 0.37552 0.926814<12.1125 366.563 470.183 559.5>
LayerCount: 2
Back
Fore
SplineSet
153 509 m 1
 186 592 l 2
 208 646 274 687 328 687 c 0
 367 687 385 669 373 637 c 0
 358 597 286 600 307 650 c 0
 310 658 314 664 321 671 c 1
 317 673 314 674 308 674 c 0
 291 674 269 658 262 641 c 2
 187 456 l 1
 268 456 l 1
 235 413 l 1
 170 413 l 1
 29 65 l 2
 22 48 34 35 52 36 c 0
 72 38 112 66 117 83 c 1
 112 64 l 1
 105 42 55 -8 -2 -9 c 0
 -47 -9 -39 35 -23 73 c 1
 114 413 l 1
 58 413 l 1
 67 435 l 1
 153 509 l 1
EndSplineSet
EndChar

StartChar: uni01AE
Encoding: 430 430 364
Width: 741
Flags: W
HStem: -113 13<273 284> 630 31<373 809>
DStem2: 221 -18 255 -67 0.376569 0.926389<0 645.11>
LayerCount: 2
Back
Fore
SplineSet
518 580 m 0
 525 598 536 614 555 624 c 256
 563 628 568 630 575 630 c 2
 655 630 l 2
 692 630 721 632 736 606 c 0
 753 576 785 544 777 489 c 1
 797 490 l 1
 809 661 l 1
 261 661 l 1
 134 490 l 1
 156 489 l 1
 189 543 250 583 287 606 c 0
 318 625 362 630 405 630 c 2
 446 630 l 2
 453 630 456 628 461 624 c 256
 473 614 470 598 463 580 c 2
 221 -18 l 2
 199 -72 230 -113 284 -113 c 0
 323 -113 356 -95 370 -63 c 0
 387 -23 313 -26 293 -76 c 0
 289 -84 289 -90 290 -97 c 1
 284 -99 281 -100 275 -100 c 0
 258 -100 248 -84 255 -67 c 0
 318 85 269 -36 518 580 c 0
EndSplineSet
EndChar

StartChar: uni01B1
Encoding: 433 433 367
Width: 680
Flags: W
HStem: -1 22<277 299> 707 52<250 381 603 721>
LayerCount: 2
Back
Fore
SplineSet
731 655 m 1
 721 759 l 1
 592 759 l 1
 568 669 l 1
 531 527 655 436 618 297 c 0
 579 147 442 20 287 21 c 0
 170 21 85 185 108 300 c 0
 137 441 314 506 357 669 c 2
 381 759 l 1
 249 759 l 1
 194 651 l 1
 224 644 l 1
 251 707 l 1
 335 707 l 1
 330 688 l 2
 283 506 104 477 53 295 c 0
 5 118 134 -1 279 -1 c 0
 473 -1 635 117 681 295 c 0
 721 447 559 536 599 688 c 2
 604 707 l 1
 687 707 l 1
 696 650 l 1
 731 655 l 1
EndSplineSet
EndChar

StartChar: uni01B2
Encoding: 434 434 368
Width: 671
Flags: W
HStem: -7 14<211 238> 637 24<169 217 170 391>
DStem2: 64 181 99 132 0.374463 0.927242<0 451.799>
LayerCount: 2
Back
Fore
SplineSet
668 600 m 1
 648 599 623 615 625 642 c 0
 628 670 655 697 686 685 c 0
 708 676 703 665 703 635 c 0
 702 545 525 -7 222 -7 c 0
 76 -7 -1 20 64 181 c 2
 233 600 l 2
 237 610 236 617 232 625 c 256
 229 632 223 637 213 637 c 2
 160 637 l 1
 170 661 l 1
 401 661 l 1
 391 637 l 1
 338 637 l 2
 328 637 319 633 308 625 c 256
 298 617 292 610 288 600 c 2
 99 132 l 1
 67 54 141 7 224 7 c 0
 482 7 647 453 668 600 c 1
EndSplineSet
EndChar

StartChar: uni01B3
Encoding: 435 435 369
Width: 653
Flags: W
HStem: 0 24<49 119 49 280> 636 25<524 755>
DStem2: 163 61 218 61 0.373691 0.927553<20.553 294.328> 288 587 228 591 0.172473 -0.985014<0 233.28> 327 357 330 339 0.746437 0.665456<0 221.488>
LayerCount: 2
Back
Fore
SplineSet
212 625 m 0
 217 618 227 598 228 591 c 1
 273 334 l 1
 163 61 l 2
 159 51 152 44 142 36 c 0
 132 29 122 24 112 24 c 2
 59 24 l 1
 49 0 l 1
 280 0 l 1
 290 24 l 1
 237 24 l 2
 227 24 222 28 218 36 c 0
 214 44 214 51 218 61 c 2
 330 339 l 1
 542 528 l 2
 591 572 622 595 675 625 c 0
 688 633 697 636 709 636 c 2
 744 636 l 1
 755 661 l 1
 535 661 l 1
 524 636 l 1
 550 636 l 2
 568 636 580 624 574 606 c 0
 562 569 528 542 490 507 c 2
 327 357 l 1
 288 587 l 1
 276 654 236 661 199 661 c 0
 176 661 132 663 101 616 c 0
 77 578 79 547 107 539 c 0
 141 528 185 599 141 612 c 0
 134 613 127 613 119 611 c 1
 120 616 121 619 125 625 c 0
 136 642 163 638 181 639 c 0
 193 640 208 630 212 625 c 0
EndSplineSet
EndChar

StartChar: uni01B4
Encoding: 436 436 370
Width: 479
Flags: W
HStem: 445 18<125 157 374 551>
DStem2: 46 -36 51 -53 0.659825 0.75142<0 113.358> 118 51 183 122 0.107482 0.994207<77.575 371.995>
LayerCount: 2
Back
Fore
SplineSet
158 421 m 1
 118 51 l 1
 121 49 l 1
 46 -36 l 2
 35 -49 27 -59 12 -65 c 0
 6 -67 2 -68 -4 -68 c 1
 5 -65 8 -63 16 -57 c 0
 41 -37 46 3 6 3 c 0
 -49 3 -91 -100 -16 -91 c 0
 10 -88 30 -76 51 -53 c 2
 440 390 l 2
 455 408 465 417 485 429 c 0
 499 437 518 445 525 445 c 2
 544 445 l 1
 551 463 l 1
 381 463 l 1
 374 445 l 1
 397 445 l 2
 401 445 415 439 418 429 c 0
 425 409 410 384 389 360 c 2
 389 360 184 123 183 122 c 1
 212 415 l 2
 216 455 191 463 157 463 c 0
 117 463 85 461 57 418 c 0
 33 380 35 349 63 341 c 0
 97 330 140 401 97 414 c 0
 90 415 83 415 75 413 c 1
 76 418 77 421 81 427 c 0
 92 444 105 445 125 445 c 0
 142 445 161 444 158 421 c 1
EndSplineSet
EndChar

StartChar: uni01B5
Encoding: 437 437 371
Width: 582
Flags: W
HStem: 0 25<7 345> 345 45<231 265 387 429> 636 25<250 571>
DStem2: -76 21 7 25 0.724946 0.688805<62.9258 470.38 589.519 892.653> 127 469 150 469 0.539427 0.842032<12.4068 68.402>
LayerCount: 2
Back
Fore
SplineSet
232 390 m 1
 313 390 l 1
 571 636 l 1
 401 636 l 2
 356 636 313 618 277 595 c 0
 258 583 208 553 182 515 c 2
 150 469 l 1
 127 469 l 1
 250 661 l 1
 655 661 l 1
 646 639 l 1
 387 390 l 1
 447 390 l 1
 429 345 l 1
 340 345 l 1
 7 25 l 1
 191 25 l 2
 258 25 309 59 375 109 c 0
 391 122 410 137 427 157 c 2
 468 204 l 1
 488 206 l 1
 345 0 l 1
 -85 0 l 1
 -76 21 l 1
 265 345 l 1
 214 345 l 1
 232 390 l 1
EndSplineSet
EndChar

StartChar: uni01B6
Encoding: 438 438 372
Width: 413
Flags: W
HStem: 220 40<179 215 180 306>
DStem2: 255 260 281 260 0.704914 0.709293<18.3278 160.519>
LayerCount: 2
Back
Fore
SplineSet
442 422 m 1
 281 260 l 1
 331 260 l 1
 306 220 l 1
 240 220 l 2
 241 220 98 77 98 77 c 1
 119 85 133 88 156 87 c 0
 205 84 240 30 271 32 c 0
 282 33 290 35 298 43 c 0
 312 55 314 63 314 78 c 1
 306 62 293 52 275 56 c 0
 235 65 250 131 293 131 c 0
 355 131 346 -3 224 -8 c 0
 170 -10 142 48 89 35 c 0
 66 30 53 23 35 9 c 1
 20 21 l 1
 20 21 216 220 215 220 c 2
 151 220 l 1
 180 260 l 1
 255 260 l 1
 367 375 l 1
 346 370 331 367 311 371 c 0
 277 378 260 402 228 404 c 0
 212 405 204 390 195 376 c 0
 197 378 204 386 210 388 c 0
 242 399 255 362 245 344 c 0
 237 328 176 301 177 371 c 0
 178 408 227 439 282 440 c 0
 325 441 354 407 389 410 c 0
 405 411 412 420 424 431 c 1
 442 422 l 1
EndSplineSet
EndChar

StartChar: uni01B7
Encoding: 439 439 373
Width: 490
Flags: W
HStem: 0 28<67 79> 654 18<258 494>
DStem2: 186 400 294 425 0.771496 0.636234<99.2274 399.224>
LayerCount: 2
Back
Fore
SplineSet
67 0 m 0
 6 0 -37 43 -9 104 c 0
 27 181 123 178 94 113 c 0
 84 92 73 74 43 70 c 0
 36 69 33 69 28 70 c 1
 24 48 45 28 67 28 c 0
 119 28 284 70 334 196 c 0
 380 309 286 371 197 371 c 2
 174 371 l 1
 186 400 l 1
 494 654 l 1
 338 654 l 2
 299 654 270 623 236 589 c 0
 216 569 206 554 193 530 c 1
 181 540 l 1
 258 672 l 1
 584 672 l 1
 294 425 l 1
 578 357 329 0 67 0 c 0
EndSplineSet
EndChar

StartChar: uni01B8
Encoding: 440 440 374
Width: 465
Flags: W
HStem: 0 28<169 193> 654 18<271 522>
LayerCount: 2
Back
Fore
SplineSet
169 0 m 0
 230 0 309 43 329 104 c 0
 355 181 257 178 234 113 c 0
 227 92 223 74 251 70 c 0
 256 69 259 69 266 70 c 1
 252 48 215 28 193 28 c 0
 141 28 10 70 61 196 c 0
 106 309 250 371 339 371 c 2
 362 371 l 1
 374 400 l 1
 271 654 l 1
 427 654 l 2
 466 654 470 623 476 589 c 0
 480 569 478 554 472 530 c 1
 492 540 l 1
 522 672 l 1
 196 672 l 1
 286 425 l 1
 -53 357 -93 0 169 0 c 0
EndSplineSet
EndChar

StartChar: uni01B9
Encoding: 441 441 375
Width: 465
Flags: W
HStem: 446 18<308 524>
DStem2: 308 446 233 464 0.200565 -0.97968<0 219.132>
LayerCount: 2
Back
Fore
SplineSet
167 -220 m 0
 227 -222 306 -177 327 -116 c 0
 353 -39 255 -42 232 -107 c 0
 224 -128 221 -146 248 -150 c 0
 254 -151 257 -151 263 -150 c 1
 249 -172 212 -192 190 -192 c 0
 138 -192 58 -128 93 -24 c 0
 121 57 237 163 326 163 c 2
 349 163 l 1
 360 192 l 1
 308 446 l 1
 429 446 l 2
 468 446 472 415 479 381 c 0
 483 361 481 346 474 322 c 1
 494 332 l 1
 524 464 l 1
 233 464 l 1
 282 217 l 1
 10 144 -87 -212 167 -220 c 0
EndSplineSet
EndChar

StartChar: uni01BA
Encoding: 442 442 376
Width: 465
Flags: W
HStem: 446 18<330 553>
DStem2: 206 235 326 278 0.774091 0.633074<120.113 333.294>
LayerCount: 2
Back
Fore
SplineSet
326 278 m 1
 553 464 l 1
 262 464 l 1
 186 332 l 1
 198 322 l 1
 211 346 221 361 241 381 c 0
 275 415 304 446 343 446 c 2
 464 446 l 1
 206 235 l 1
 194 206 l 1
 217 206 l 2
 306 206 373 191 341 122 c 0
 318 71 225 42 141 19 c 0
 71 0 31 -28 5 -92 c 0
 -29 -176 33 -209 102 -211 c 0
 172 -214 244 -169 291 -101 c 0
 301 -87 306 -78 313 -64 c 1
 302 -64 l 1
 293 -79 288 -87 275 -101 c 0
 237 -143 193 -172 147 -169 c 0
 91 -166 72 -132 86 -96 c 0
 97 -70 133 -33 176 -16 c 0
 277 24 386 52 424 147 c 0
 458 230 404 260 326 278 c 1
EndSplineSet
EndChar

StartChar: uni01BB
Encoding: 443 443 377
Width: 409
Flags: W
HStem: 0 80<-2 222> 258 45<119 167 120 321>
DStem2: 249 80 222 0 0.510202 0.860055<0 45.4371>
LayerCount: 2
Back
Fore
SplineSet
120 303 m 1
 220 303 l 1
 265 344 304 389 327 439 c 0
 351 492 330 536 274 539 c 0
 228 542 184 513 146 471 c 0
 133 457 128 449 119 434 c 1
 108 434 l 1
 115 448 120 457 130 471 c 0
 177 539 249 584 319 581 c 0
 388 579 450 547 416 462 c 0
 393 402 339 350 279 303 c 1
 339 303 l 1
 321 258 l 1
 216 258 l 1
 141 206 67 163 35 124 c 0
 7 90 12 97 -2 80 c 1
 249 80 l 1
 274 118 l 1
 292 118 l 1
 222 0 l 1
 -63 0 l 1
 -47 40 l 2
 -16 118 79 185 167 258 c 1
 102 258 l 1
 120 303 l 1
EndSplineSet
EndChar

StartChar: uni01BC
Encoding: 444 444 378
Width: 441
Flags: W
HStem: 648 24<123 516>
DStem2: 105 382 166 449 0.372788 0.927917<84.9105 246.789>
LayerCount: 2
Back
Fore
SplineSet
105 382 m 1
 105 382 163 404 197 404 c 0
 288 404 355 325 317 232 c 0
 272 119 146 12 56 22 c 0
 38 24 27 27 15 36 c 0
 5 43 1 49 -3 60 c 1
 6 60 11 61 22 65 c 0
 42 72 56 84 65 102 c 0
 77 126 73 150 51 153 c 0
 20 157 -20 138 -39 93 c 0
 -62 37 -13 -4 46 -10 c 0
 165 -22 325 113 376 239 c 0
 424 358 382 468 243 472 c 0
 213 473 198 463 166 449 c 1
 230 608 l 1
 442 608 l 2
 457 608 465 608 474 601 c 1
 476 598 479 597 479 594 c 1
 481 585 l 1
 488 585 l 1
 516 672 l 1
 133 672 l 1
 123 648 l 1
 176 648 l 2
 186 648 193 643 196 636 c 0
 200 628 201 621 197 611 c 2
 105 382 l 1
EndSplineSet
EndChar

StartChar: uni01BD
Encoding: 445 445 379
Width: 355
Flags: W
HStem: 260 54<161 201> 446 17<111 387>
DStem2: 92 245 137 298 0.375951 0.92664<66.0297 184.878>
LayerCount: 2
Back
Fore
SplineSet
92 245 m 1
 92 245 129 260 161 260 c 0
 224 260 268 211 241 146 c 0
 209 67 128 1 65 9 c 0
 52 10 45 12 36 19 c 0
 29 23 26 28 23 35 c 1
 29 35 33 36 41 39 c 0
 55 44 64 52 71 65 c 0
 79 82 77 98 61 100 c 0
 39 103 11 90 -2 58 c 0
 -18 19 16 -9 58 -14 c 0
 141 -22 249 62 285 151 c 0
 318 234 288 314 201 314 c 0
 179 314 160 307 137 298 c 1
 182 408 l 1
 330 408 l 2
 341 408 347 408 353 403 c 1
 354 401 356 400 357 398 c 1
 358 392 l 1
 362 392 l 1
 387 463 l 1
 118 463 l 1
 111 446 l 1
 148 446 l 2
 155 446 160 443 163 438 c 0
 165 432 166 427 163 420 c 2
 92 245 l 1
EndSplineSet
EndChar

StartChar: uni01BE
Encoding: 446 446 380
Width: 441
Flags: W
HStem: 580 26<107 182 226 297> 667 20G<225 259>
DStem2: 102 382 163 449 0.374618 0.927179<84.9727 213.551 254.232 328.868>
LayerCount: 2
Back
Fore
SplineSet
108 606 m 1
 192 606 l 1
 225 687 l 1
 259 687 l 1
 226 606 l 1
 307 606 l 1
 297 580 l 1
 216 580 l 1
 163 449 l 1
 195 463 210 473 240 472 c 0
 379 468 421 358 373 239 c 0
 322 113 162 -22 43 -10 c 0
 -16 -4 -65 37 -42 93 c 0
 -23 138 17 157 48 153 c 0
 70 150 74 126 62 102 c 0
 53 84 38 72 19 65 c 0
 8 61 3 60 -6 60 c 1
 -2 49 2 43 12 36 c 0
 24 27 35 24 53 22 c 0
 143 12 268 119 314 232 c 0
 352 325 285 404 194 404 c 0
 160 404 102 382 102 382 c 1
 182 580 l 1
 98 580 l 1
 108 606 l 1
EndSplineSet
EndChar

StartChar: uni01BF
Encoding: 447 447 381
Width: 524
Flags: W
HStem: -147 18<-85 105>
DStem2: -3 -102 75 -47 0.374463 0.927242<80.2064 487.997>
LayerCount: 2
Back
Fore
SplineSet
228 331 m 2
 75 -47 l 1
 191 -2 370 73 437 239 c 0
 502 399 426 459 391 454 c 0
 300 442 252 391 228 331 c 2
186 366 m 1
 152 389 l 1
 159 405 l 1
 282 465 l 1
 266 424 l 1
 272 428 280 432 287 436 c 0
 334 461 362 470 405 472 c 0
 529 476 577 412 508 243 c 0
 456 113 259 0 64 -75 c 1
 53 -102 l 2
 50 -110 50 -114 54 -120 c 1
 55 -126 60 -129 67 -129 c 2
 112 -129 l 1
 105 -147 l 1
 -91 -147 l 1
 -84 -129 l 1
 -39 -129 l 2
 -32 -129 -26 -126 -18 -120 c 0
 -10 -114 -6 -110 -3 -102 c 2
 186 366 l 1
EndSplineSet
EndChar

StartChar: uni01C0
Encoding: 448 448 382
Width: 155
Flags: W
DStem2: -10 -19 36 -19 0.466629 0.884453<21.4649 839.601>
LayerCount: 2
Back
Fore
SplineSet
428 724 m 1
 36 -19 l 1
 -10 -19 l 1
 381 724 l 1
 428 724 l 1
EndSplineSet
EndChar

StartChar: uni01C1
Encoding: 449 449 383
Width: 269
Flags: W
DStem2: -10 -19 36 -19 0.466629 0.884453<21.4649 839.601> 110 -19 156 -19 0.466629 0.884453<21.4649 839.601>
LayerCount: 2
Back
Fore
SplineSet
428 724 m 1
 381 724 l 1
 -10 -19 l 1
 36 -19 l 1
 428 724 l 1
548 724 m 1
 501 724 l 1
 110 -19 l 1
 156 -19 l 1
 548 724 l 1
EndSplineSet
EndChar

StartChar: uni01C2
Encoding: 450 450 384
Width: 365
Flags: W
HStem: 283 33<18 124 184 284> 283 141<62 284> 391 33<61 167 227 328>
DStem2: 1 -19 48 -19 0.377199 0.926132<17.7284 326.087 379.009 442.331 495.426 800.351>
LayerCount: 2
Back
Fore
SplineSet
284 283 m 1
 171 283 l 1
 48 -19 l 1
 1 -19 l 1
 124 283 l 1
 5 283 l 1
 19 316 l 1
 137 316 l 1
 167 391 l 1
 49 391 l 1
 62 424 l 1
 180 424 l 1
 301 723 l 1
 348 723 l 1
 227 424 l 1
 341 424 l 1
 328 391 l 1
 214 391 l 1
 184 316 l 1
 298 316 l 1
 284 283 l 1
EndSplineSet
EndChar

StartChar: uni01C3
Encoding: 451 451 385
Width: 319
Flags: W
LayerCount: 2
Back
Fore
SplineSet
252 601 m 0
 259 622 284 637 300 637 c 0
 334 637 352 597 332 559 c 0
 248 397 196 286 127 150 c 0
 118 133 106 139 112 157 c 0
 159 309 201 446 252 601 c 0
75 -3 m 0
 14 -5 11 86 72 88 c 0
 133 90 136 -1 75 -3 c 0
EndSplineSet
EndChar

StartChar: uni01DD
Encoding: 477 477 411
Width: 457
Flags: W
HStem: 25 15<135 149> 421 20G<301.5 340.5>
VStem: 84 37<65 81>
LayerCount: 2
Back
Fore
SplineSet
84 81 m 0
 86 132 202 184 290 225 c 0
 300 230 312 233 319 237 c 1
 353 300 372 362 369 387 c 0
 367 402 366 441 315 441 c 0
 288 441 250 406 219 371 c 0
 202 353 196 341 186 319 c 1
 175 322 l 1
 186 349 195 363 214 386 c 0
 252 430 303 475 354 472 c 0
 400 470 424 420 421 375 c 0
 411 225 267 25 135 25 c 0
 95 25 83 36 84 81 c 0
121 67 m 0
 121 56 126 40 145 40 c 0
 196 40 261 131 310 220 c 1
 285 212 262 200 235 185 c 0
 171 151 121 104 121 67 c 0
EndSplineSet
EndChar

StartChar: uni01E1
Encoding: 481 481 415
Width: 380
Flags: W
HStem: -8 25<70 85> 416 20G<277.5 327.5> 514 85<384 406> 663 45<332 536>
DStem2: 270 62 267 37 0.550158 0.835061<0 79.262>
LayerCount: 2
Back
Fore
SplineSet
548 708 m 1
 536 663 l 1
 321 663 l 1
 333 708 l 1
 548 708 l 1
415 431 m 1
 230 77 l 2
 201 21 225 7 270 62 c 1
 315 129 l 1
 323 122 l 1
 267 37 l 2
 254 18 225 -8 199 -8 c 0
 165 -8 165 47 186 96 c 1
 162 61 112 -7 70 -8 c 0
 35 -8 19 31 20 65 c 0
 26 192 244 436 311 436 c 0
 344 436 349 410 349 410 c 1
 359 431 l 1
 415 431 l 1
333 380 m 1
 346 402 324 426 313 425 c 0
 259 422 64 107 64 54 c 0
 64 36 65 17 85 17 c 0
 114 17 187 115 209 146 c 0
 210 147 333 380 333 380 c 1
406 599 m 0
 464 599 442 514 384 514 c 0
 325 514 348 599 406 599 c 0
EndSplineSet
EndChar

StartChar: uni01E4
Encoding: 484 484 418
Width: 480
Flags: W
HStem: 189 45<341 404 478 546> 339 18<407 438 408 595> 440 21G<569 583>
DStem2: 365 91 411 68 0.36874 0.929533<0 105.475 174.447 219.862>
LayerCount: 2
Back
Fore
SplineSet
342 234 m 1
 423 234 l 1
 447 295 l 2
 452 307 456 316 452 325 c 0
 448 334 443 339 432 339 c 2
 401 339 l 1
 408 357 l 1
 602 357 l 1
 595 339 l 1
 550 339 l 2
 540 339 531 333 521 325 c 0
 511 316 507 307 502 295 c 2
 478 234 l 1
 564 234 l 1
 546 189 l 1
 459 189 l 1
 411 68 l 1
 391 82 l 1
 373 67 379 71 359 58 c 0
 288 13 238 -3 169 -6 c 0
 -2 -12 -28 165 40 332 c 0
 107 496 283 667 431 664 c 0
 481 663 511 656 543 629 c 0
 554 620 560 609 568 598 c 1
 635 658 l 1
 658 658 l 1
 583 440 l 1
 569 440 l 1
 571 458 571 469 569 486 c 0
 560 579 525 653 419 645 c 0
 291 635 148 461 94 324 c 0
 37 180 38 9 192 13 c 0
 239 14 272 26 321 56 c 0
 340 68 349 76 365 91 c 1
 404 189 l 1
 324 189 l 1
 342 234 l 1
EndSplineSet
EndChar

StartChar: uni01E5
Encoding: 485 485 419
Width: 472
Flags: W
HStem: -212 19<77 112> -95 45<222 290 364 428> 158 18<221 238> 453 13<335 352>
DStem2: 437 419 440 407 0.371391 0.928477<0 16.8983>
LayerCount: 2
Back
Fore
SplineSet
233 176 m 0
 346 176 458 453 345 453 c 0
 232 453 120 176 233 176 c 0
428 -95 m 1
 337 -95 l 1
 280 -168 180 -212 89 -212 c 0
 -5 -212 -98 -172 -57 -76 c 0
 -37 -28 4 -1 54 29 c 0
 68 37 78 43 89 47 c 1
 56 60 36 77 47 106 c 0
 66 151 119 167 168 172 c 1
 69 231 186 466 350 466 c 0
 397 466 424 447 437 419 c 1
 445 440 l 2
 447 445 450 450 453 456 c 0
 478 503 543 502 531 458 c 0
 524 432 494 407 467 413 c 1
 457 417 453 421 450 432 c 1
 440 407 l 1
 464 317 361 158 225 158 c 0
 219 158 213 158 208 159 c 1
 168 156 119 158 109 131 c 0
 82 66 419 88 369 -39 c 0
 367 -43 366 -46 364 -50 c 1
 446 -50 l 1
 428 -95 l 1
306 -50 m 1
 304 8 183 18 106 42 c 1
 97 37 87 31 76 24 c 0
 33 -5 6 -33 -11 -76 c 0
 -41 -152 22 -193 97 -193 c 0
 166 -193 250 -158 290 -95 c 1
 205 -95 l 1
 223 -50 l 1
 306 -50 l 1
EndSplineSet
EndChar

StartChar: uni0250
Encoding: 592 592 488
Width: 400
Flags: W
HStem: -28 20G<93.5 143.5> -3 21G<6 62> 411 25<336 351>
DStem2: 98 306 106 299 0.550158 0.835061<0 79.262>
LayerCount: 2
Back
Fore
SplineSet
6 -3 m 1
 191 351 l 2
 220 407 197 420 151 366 c 1
 106 299 l 1
 98 306 l 1
 154 391 l 2
 167 410 196 436 222 436 c 0
 256 436 256 381 235 332 c 1
 259 367 309 435 351 436 c 0
 386 436 403 397 401 363 c 0
 396 236 177 -8 110 -8 c 0
 77 -8 72 18 72 18 c 1
 62 -3 l 1
 6 -3 l 1
88 48 m 1
 75 26 97 2 108 3 c 0
 162 6 357 321 357 374 c 0
 357 392 356 411 336 411 c 0
 307 411 234 313 212 282 c 0
 211 281 88 48 88 48 c 1
EndSplineSet
EndChar

StartChar: uni0254
Encoding: 596 596 489
Width: 424
Flags: W
HStem: 408 31<246 281>
LayerCount: 2
Back
Fore
SplineSet
39 48 m 0
 48 83 84 105 95 105 c 0
 116 105 124 95 109 53 c 0
 104 39 88 13 63 9 c 1
 68 7 71 3 77 4 c 0
 157 15 299 259 294 363 c 0
 292 407 267 408 246 408 c 0
 214 408 174 363 155 334 c 0
 142 313 133 302 123 279 c 1
 113 284 l 1
 123 312 133 327 150 351 c 0
 184 399 234 439 281 439 c 0
 331 439 349 389 351 343 c 0
 356 252 222 -4 85 -7 c 0
 47 -8 28 7 39 48 c 0
EndSplineSet
EndChar

StartChar: uni0258
Encoding: 600 600 490
Width: 362
Flags: W
HStem: 423 15<243 261>
LayerCount: 2
Back
Fore
SplineSet
156 382 m 0
 115 331 187 279 241 238 c 0
 247 233 256 230 259 226 c 1
 240 163 207 101 183 76 c 0
 168 61 135 22 84 22 c 0
 57 22 49 57 47 92 c 0
 45 110 49 122 57 144 c 1
 44 141 l 1
 32 114 29 100 29 77 c 0
 29 33 43 -12 96 -9 c 0
 144 -7 210 43 245 88 c 0
 362 238 386 438 254 438 c 0
 214 438 192 427 156 382 c 0
205 396 m 0
 214 407 233 423 252 423 c 0
 303 423 291 332 265 243 c 1
 247 251 234 263 219 278 c 0
 184 312 174 359 205 396 c 0
EndSplineSet
EndChar

StartChar: uni0259
Encoding: 601 601 491
Width: 457
Flags: W
HStem: 25 15<135 149> 421 20G<301.5 340.5>
VStem: 84 37<65 81>
LayerCount: 2
Back
Fore
SplineSet
84 81 m 0
 86 132 202 184 290 225 c 0
 300 230 312 233 319 237 c 1
 353 300 372 362 369 387 c 0
 367 402 366 441 315 441 c 0
 288 441 250 406 219 371 c 0
 202 353 196 341 186 319 c 1
 175 322 l 1
 186 349 195 363 214 386 c 0
 252 430 303 475 354 472 c 0
 400 470 424 420 421 375 c 0
 411 225 267 25 135 25 c 0
 95 25 83 36 84 81 c 0
121 67 m 0
 121 56 126 40 145 40 c 0
 196 40 261 131 310 220 c 1
 285 212 262 200 235 185 c 0
 171 151 121 104 121 67 c 0
EndSplineSet
EndChar

StartChar: uni025B
Encoding: 603 603 492
Width: 464
Flags: W
HStem: -3 29<135 167> 228 25<248 269> 318 118<389 409> 435 26<307 331>
LayerCount: 2
Back
Fore
SplineSet
279 253 m 1
 260 253 l 2
 193 253 167 287 189 343 c 0
 211 397 265 435 319 435 c 0
 377 435 399 399 389 318 c 1
 405 318 l 1
 412 341 l 2
 431 401 435 415 454 461 c 1
 437 461 l 1
 428 444 419 436 409 436 c 0
 405 436 399 438 393 441 c 2
 388 443 l 2
 358 457 343 461 309 461 c 0
 218 461 140 415 111 345 c 0
 90 292 110 255 164 245 c 2
 169 244 l 2
 172 244 173 243 173 242 c 0
 172 241 170 240 166 239 c 2
 160 238 l 2
 87 225 31 185 8 128 c 0
 -22 52 31 -3 135 -3 c 0
 186 -3 233 12 277 41 c 0
 309 62 322 74 347 108 c 1
 329 115 l 1
 307 88 297 78 273 62 c 0
 238 39 200 26 167 26 c 0
 99 26 68 69 92 129 c 0
 107 165 138 199 170 214 c 0
 192 223 217 228 250 228 c 2
 269 228 l 1
 279 253 l 1
EndSplineSet
EndChar

StartChar: uni025C
Encoding: 604 604 493
Width: 464
Flags: W
HStem: 419 20G<204 222>
LayerCount: 2
Back
Fore
SplineSet
167 205 m 1
 181 240 l 1
 246 251 305 287 320 344 c 0
 332 389 302 412 268 407 c 0
 227 402 189 363 151 287 c 1
 135 288 l 1
 204 439 l 1
 222 439 l 1
 221 436 220 433 219 432 c 0
 216 420 219 415 226 416 c 0
 230 417 233 418 240 422 c 2
 245 426 l 2
 263 436 289 445 309 448 c 0
 361 455 401 419 386 363 c 0
 370 306 310 257 256 242 c 2
 252 241 l 1
 246 240 l 2
 244 240 243 238 242 236 c 0
 242 234 242 233 243 233 c 2
 250 234 l 1
 254 235 l 2
 292 238 323 200 309 147 c 0
 289 71 202 1 133 -9 c 0
 66 -18 31 17 37 87 c 1
 58 97 l 1
 58 49 81 26 122 31 c 0
 168 38 231 85 245 139 c 0
 258 187 224 214 182 208 c 0
 178 207 175 207 167 205 c 1
EndSplineSet
EndChar

StartChar: uni0262
Encoding: 610 610 494
Width: 482
Flags: W
HStem: 234 16<307 467> 437 20G<474 494>
DStem2: 281 60 331 44 0.373402 0.92767<3.82737 154.314>
LayerCount: 2
Back
Fore
SplineSet
494 457 m 1
 474 457 l 1
 427 415 l 1
 422 423 418 430 410 437 c 0
 387 456 362 461 328 461 c 0
 224 463 87 344 40 229 c 0
 -8 112 24 -12 144 -8 c 0
 192 -6 237 6 286 37 c 0
 300 46 296 44 309 54 c 1
 331 44 l 1
 395 203 l 1
 399 211 401 218 409 224 c 0
 415 230 422 234 429 234 c 2
 460 234 l 1
 467 250 l 1
 313 250 l 1
 307 234 l 1
 328 234 l 2
 336 234 340 231 342 224 c 0
 345 218 342 211 339 203 c 2
 281 60 l 1
 270 50 264 44 250 36 c 0
 216 15 195 11 162 10 c 0
 54 7 52 123 92 223 c 0
 129 319 228 437 317 444 c 0
 392 450 422 402 428 337 c 0
 430 325 430 317 428 305 c 1
 442 305 l 1
 494 457 l 1
EndSplineSet
EndChar

StartChar: uni0263
Encoding: 611 611 495
Width: 593
Flags: W
HStem: -20 20G<104.5 159.5> 636 25<156 169 157 333 454 481 455 663>
DStem2: 122 76 142 76 0.609711 0.792624<12.1942 59.2029 182.608 543.865> 172 141 233 221 0.0512718 0.998685<83.0224 448.59 0 56.0066>
LayerCount: 2
Back
Fore
SplineSet
172 141 m 1
 195 589 l 1
 197 615 189 636 159 636 c 2
 146 636 l 1
 157 661 l 1
 344 661 l 1
 333 636 l 1
 288 636 l 2
 282 636 276 633 270 629 c 0
 253 618 253 602 253 587 c 1
 233 221 l 1
 455 506 l 2
 484 543 518 590 516 614 c 0
 514 633 490 636 469 636 c 2
 444 636 l 1
 455 661 l 1
 674 661 l 1
 663 636 l 1
 651 636 l 2
 624 636 585 612 547 583 c 0
 517 560 502 543 479 514 c 2
 232 194 l 1
 229 107 l 1
 227 60 195 0 124 0 c 0
 85 0 93 37 122 76 c 2
 172 141 l 1
169 76 m 1
 171 113 l 1
 142 76 l 2
 131 61 115 30 133 28 c 0
 152 26 168 48 169 76 c 1
EndSplineSet
EndChar

StartChar: uni0264
Encoding: 612 612 496
Width: 428
Flags: W
HStem: -20 20G<83.5 122> 445 17<119 131 120 263 327 351 328 474>
DStem2: 96 53 111 51 0.602833 0.797867<7.44676 38.2444 160.602 380.028> 130 98 193 181 0.054061 0.998538<86.2845 314.46 0 67.3663>
LayerCount: 2
Back
Fore
SplineSet
130 98 m 1
 147 412 l 2
 148 431 142 445 122 445 c 2
 113 445 l 1
 120 462 l 1
 270 462 l 1
 263 445 l 1
 232 445 l 2
 228 445 223 443 219 440 c 0
 207 433 207 421 207 411 c 1
 193 181 l 1
 328 354 l 2
 349 380 372 413 371 430 c 0
 370 443 353 445 339 445 c 2
 321 445 l 1
 328 462 l 1
 481 462 l 1
 474 445 l 1
 466 445 l 2
 447 445 419 428 393 408 c 0
 372 392 361 380 345 360 c 2
 194 162 l 1
 190 93 l 1
 189 60 147 0 97 0 c 0
 70 0 75 26 96 53 c 2
 130 98 l 1
128 53 m 1
 129 76 l 1
 111 51 l 2
 103 40 90 21 103 19 c 0
 116 18 128 33 128 53 c 1
EndSplineSet
EndChar

StartChar: uni0265
Encoding: 613 613 497
Width: 510
Flags: W
HStem: 4 17<95 216> 645 20G<435 492>
DStem2: 95 4 161 21 0.45713 0.8894<45.2904 371.214 454.401 743.318> 115 351 150 309 0.457865 0.889022<0 240.772> 146 566 148 549 0.635707 0.77193<0 44.8628>
LayerCount: 2
Back
Fore
SplineSet
117 219 m 0
 187 219 238 302 265 334 c 1
 95 4 l 1
 207 4 l 1
 216 21 l 1
 161 21 l 1
 492 665 l 1
 435 665 l 1
 303 408 l 1
 279 380 183 236 141 242 c 0
 115 246 146 300 150 309 c 1
 270 542 l 2
 358 713 254 696 188 617 c 2
 146 566 l 1
 148 549 l 1
 185 592 l 2
 247 664 270 654 234 584 c 2
 115 351 l 2
 92 305 40 219 117 219 c 0
EndSplineSet
EndChar

StartChar: uni0266
Encoding: 614 614 498
Width: 510
Flags: W
HStem: 0 18<-111 -58 -111 85 153 210 153 350> 674 13<320 339>
DStem2: -23 45 178 402 0.376059 0.926596<406.383 590.333 21.0593 375.925> 241 45 297 45 0.376377 0.926467<21.0771 346.325>
LayerCount: 2
Back
Fore
SplineSet
-23 45 m 2
 -26 37 -30 33 -38 27 c 0
 -45 21 -52 18 -60 18 c 2
 -104 18 l 1
 -111 0 l 1
 85 0 l 1
 92 18 l 1
 47 18 l 2
 40 18 36 21 33 27 c 0
 31 33 30 37 33 45 c 2
 166 374 l 1
 204 404 273 443 323 445 c 0
 367 447 388 409 371 366 c 2
 241 45 l 2
 238 37 235 33 226 27 c 257
 220 21 212 18 205 18 c 2
 160 18 l 1
 153 0 l 1
 349 0 l 1
 356 18 l 1
 311 18 l 2
 304 18 301 21 298 27 c 256
 295 33 294 37 297 45 c 2
 440 397 l 1
 466 463 404 476 348 472 c 0
 292 469 222 435 178 402 c 1
 272 636 l 2
 279 653 303 674 320 674 c 0
 326 674 328 673 332 671 c 1
 325 664 321 658 318 650 c 0
 298 600 370 597 385 637 c 0
 397 669 378 687 339 687 c 0
 285 687 221 646 199 592 c 2
 -23 45 l 2
EndSplineSet
EndChar

StartChar: uni0267
Encoding: 615 615 499
Width: 510
Flags: W
HStem: -95 13<159 178> 0 18<-92 -38 -92 104> 674 13<339 358>
DStem2: -3 45 197 402 0.376059 0.926596<406.006 590.333 21.0593 375.925> 223 -47 298 0 0.374871 0.927077<71.688 445.486>
LayerCount: 2
Back
Fore
SplineSet
178 -82 m 0
 172 -82 170 -81 165 -79 c 1
 172 -72 177 -66 180 -58 c 0
 200 -8 128 -5 113 -45 c 0
 101 -77 120 -95 159 -95 c 0
 213 -95 277 -54 298 0 c 1
 459 397 l 1
 485 463 424 476 367 472 c 0
 311 469 241 435 197 402 c 1
 291 636 l 2
 298 653 322 674 339 674 c 0
 345 674 347 673 352 671 c 1
 345 664 340 658 337 650 c 0
 317 600 389 597 404 637 c 0
 416 669 397 687 358 687 c 0
 304 687 241 646 219 592 c 2
 -3 45 l 1
 -7 37 -11 33 -19 27 c 0
 -26 21 -32 18 -40 18 c 2
 -84 18 l 1
 -92 0 l 1
 104 0 l 1
 112 18 l 1
 67 18 l 2
 60 18 55 21 52 27 c 0
 50 33 49 37 53 45 c 1
 186 374 l 1
 224 404 292 443 342 445 c 0
 386 447 408 409 390 366 c 1
 223 -47 l 1
 217 -64 195 -82 178 -82 c 0
EndSplineSet
EndChar

StartChar: uni026D
Encoding: 621 621 500
Width: 262
Flags: W
HStem: -95 13<38 48>
DStem2: -15 0 21 -49 0.375166 0.926957<0 616.883>
LayerCount: 2
Back
Fore
SplineSet
312 670 m 1
 173 603 l 1
 167 587 l 1
 216 572 l 1
 -15 0 l 2
 -37 -54 -6 -95 48 -95 c 0
 87 -95 121 -77 135 -45 c 0
 152 -5 78 -8 57 -58 c 0
 54 -66 54 -72 55 -79 c 1
 49 -81 46 -82 40 -82 c 0
 23 -82 14 -66 21 -49 c 2
 312 670 l 1
EndSplineSet
EndChar

StartChar: uni026F
Encoding: 623 623 501
Width: 566
Flags: W
DStem2: 257 160 294 118 0.436368 0.899768<0 237.311> 286 375 288 358 0.61714 0.786853<0 43.2924> 437 221 444 118 0.435032 0.900415<0 280.879> 585 221 586 118 0.44922 0.893421<0 280.84> 632 110 630 85 0.60745 0.794358<0 43.129>
LayerCount: 2
Back
Fore
SplineSet
559 474 m 1
 616 474 l 1
 444 118 l 1
 439 109 411 55 435 51 c 0
 474 45 565 192 585 221 c 1
 707 474 l 1
 765 474 l 1
 586 118 l 1
 552 49 574 38 632 110 c 2
 667 153 l 1
 669 136 l 1
 630 85 l 2
 568 6 471 -4 548 143 c 1
 521 111 478 28 412 28 c 0
 345 28 381 103 399 143 c 1
 373 111 329 28 263 28 c 0
 191 28 235 114 257 160 c 2
 369 393 l 2
 403 463 381 473 323 401 c 2
 288 358 l 1
 286 375 l 1
 326 426 l 2
 387 505 490 522 407 351 c 2
 294 118 l 2
 290 109 261 55 286 51 c 0
 324 45 416 192 437 221 c 1
 559 474 l 1
EndSplineSet
EndChar

StartChar: uni0270
Encoding: 624 624 502
Width: 692
Flags: W
HStem: 456 18<164 205 165 356 428 469 429 618 692 732 693 882>
DStem2: 75 77 145 108 0.374115 0.927383<54.9369 379.563> 347 97 407 108 0.374278 0.927316<32.6572 358.022> 489 -206 584 -108 0.374663 0.927161<126.455 298.786 327.566 684.661>
LayerCount: 2
Back
Fore
SplineSet
165 474 m 1
 363 474 l 1
 356 456 l 1
 312 456 l 2
 304 456 298 453 290 447 c 256
 283 441 278 437 275 429 c 2
 145 108 l 2
 128 65 150 27 194 29 c 256
 241 31 307 68 347 97 c 1
 481 429 l 2
 484 437 484 441 480 447 c 257
 478 453 474 456 467 456 c 2
 422 456 l 1
 429 474 l 1
 625 474 l 1
 618 456 l 1
 573 456 l 2
 566 456 559 453 552 447 c 256
 544 441 540 437 537 429 c 2
 407 108 l 2
 390 65 412 27 456 29 c 256
 505 31 573 69 611 98 c 1
 745 429 l 2
 748 437 747 441 744 447 c 256
 742 453 738 456 730 456 c 2
 686 456 l 1
 693 474 l 1
 889 474 l 1
 882 456 l 1
 837 456 l 2
 830 456 823 453 815 447 c 256
 808 441 804 437 801 429 c 2
 584 -108 l 1
 632 -123 l 1
 626 -139 l 1
 489 -206 l 1
 601 71 l 1
 556 39 487 6 431 2 c 0
 376 -1 317 10 336 70 c 1
 291 38 224 5 169 2 c 0
 112 -2 48 11 75 77 c 2
 217 429 l 2
 220 437 220 441 216 447 c 257
 215 453 210 456 203 456 c 2
 158 456 l 1
 165 474 l 1
EndSplineSet
EndChar

StartChar: uni0271
Encoding: 625 625 503
Width: 674
Flags: W
HStem: -146 14<447 454> -146 89<453 469> 0 18<-38 16 -38 158 226 282 226 422>
DStem2: 50 45 106 45 0.37525 0.926924<21.014 357.095> 314 45 370 45 0.374278 0.927316<20.9596 346.325> 530 -69 602 -35 0.375062 0.927<58.5225 469.256>
LayerCount: 2
Back
Fore
SplineSet
776 397 m 2
 803 463 739 476 682 472 c 0
 627 469 560 436 515 404 c 1
 534 464 475 475 420 472 c 0
 364 468 295 435 251 403 c 1
 279 474 l 1
 142 407 l 1
 136 391 l 1
 184 376 l 1
 50 45 l 2
 47 37 43 33 36 27 c 256
 28 21 21 18 14 18 c 2
 -31 18 l 1
 -38 0 l 1
 158 0 l 1
 165 18 l 1
 121 18 l 2
 113 18 109 21 107 27 c 256
 104 33 103 37 106 45 c 2
 240 376 l 1
 278 405 346 443 396 445 c 256
 439 447 461 409 444 366 c 2
 314 45 l 2
 311 37 307 33 299 27 c 256
 292 21 285 18 278 18 c 2
 233 18 l 1
 226 0 l 1
 422 0 l 1
 429 18 l 1
 384 18 l 2
 377 18 373 21 371 27 c 257
 367 33 367 37 370 45 c 2
 504 377 l 1
 544 406 610 443 658 445 c 256
 701 447 723 409 706 366 c 2
 530 -69 l 2
 520 -94 504 -113 477 -125 c 0
 465 -130 458 -132 447 -132 c 1
 457 -128 461 -124 469 -117 c 0
 502 -92 503 -56 469 -57 c 0
 417 -58 372 -148 453 -146 c 0
 508 -144 578 -94 602 -35 c 2
 776 397 l 2
EndSplineSet
EndChar

StartChar: uni0272
Encoding: 626 626 504
Width: 452
Flags: W
HStem: -146 14<-79 -72> -146 89<-73 -57> 0 18<226 282 226 422>
DStem2: 4 -69 74 -35 0.37498 0.927033<57.7677 480.026> 314 45 370 45 0.374115 0.927383<20.9504 346.325>
LayerCount: 2
Back
Fore
SplineSet
4 -69 m 2
 -6 -94 -22 -113 -49 -125 c 0
 -61 -130 -68 -132 -79 -132 c 1
 -69 -128 -65 -124 -57 -117 c 0
 -24 -92 -23 -56 -57 -57 c 0
 -109 -58 -154 -148 -73 -146 c 0
 -18 -144 50 -94 74 -35 c 2
 240 376 l 1
 278 405 346 443 396 445 c 0
 439 447 461 409 444 366 c 2
 314 45 l 2
 311 37 307 33 300 27 c 256
 292 21 285 18 278 18 c 2
 233 18 l 1
 226 0 l 1
 422 0 l 1
 429 18 l 1
 385 18 l 2
 377 18 373 21 371 27 c 256
 368 33 367 37 370 45 c 2
 512 397 l 2
 539 463 477 476 420 472 c 0
 364 469 295 435 251 403 c 1
 279 474 l 1
 142 407 l 1
 136 391 l 1
 184 376 l 1
 4 -69 l 2
EndSplineSet
EndChar

StartChar: uni0273
Encoding: 627 627 505
Width: 452
Flags: W
HStem: 0 18<-32 158>
DStem2: 50 45 106 45 0.37525 0.926924<21.014 357.095> 282 -35 324 -69 0.374134 0.927375<0 432.487>
LayerCount: 2
Back
Fore
SplineSet
324 -69 m 2
 314 -94 314 -113 331 -125 c 0
 339 -130 344 -132 355 -132 c 1
 349 -128 349 -124 345 -117 c 0
 334 -92 361 -56 395 -57 c 0
 445 -58 418 -148 339 -146 c 0
 284 -144 258 -94 282 -35 c 2
 444 366 l 2
 461 409 439 447 396 445 c 0
 346 443 278 405 240 376 c 1
 106 45 l 2
 103 37 104 33 107 27 c 256
 109 21 113 18 121 18 c 2
 165 18 l 1
 158 0 l 1
 -38 0 l 1
 -31 18 l 1
 14 18 l 2
 21 18 28 21 36 27 c 256
 43 33 47 37 50 45 c 2
 184 376 l 1
 136 391 l 1
 142 407 l 1
 279 474 l 1
 251 403 l 1
 296 435 364 469 420 472 c 0
 477 476 539 463 512 397 c 2
 324 -69 l 2
EndSplineSet
EndChar

StartChar: uni0274
Encoding: 628 628 506
Width: 584
Flags: W
HStem: 0 31<-65 114> 432 31<140 167 424 455 425 603>
DStem2: 54 95 67 95 0.372933 0.927858<4.84813 335.181> 241 463 192 405 0.247573 -0.968869<44.0633 420.077> 345 56 337 0 0.372258 0.928129<0 337.409>
LayerCount: 2
Back
Fore
SplineSet
603 433 m 1
 557 433 l 2
 549 433 544 430 536 427 c 256
 510 414 495 394 485 369 c 2
 337 0 l 1
 293 0 l 1
 192 405 l 1
 67 95 l 2
 57 71 55 51 72 38 c 256
 76 35 79 31 86 31 c 2
 126 31 l 1
 114 0 l 1
 -76 0 l 1
 -64 31 l 1
 -18 31 l 2
 -11 31 -5 35 2 38 c 256
 28 50 44 71 54 95 c 2
 179 406 l 2
 182 413 182 418 179 424 c 0
 176 429 172 432 165 432 c 2
 128 432 l 1
 141 463 l 1
 241 463 l 1
 345 56 l 1
 471 369 l 2
 481 394 485 417 467 427 c 256
 462 430 460 433 453 433 c 2
 413 433 l 1
 425 463 l 1
 615 463 l 1
 603 433 l 1
EndSplineSet
EndChar

StartChar: uni0276
Encoding: 630 630 507
Width: 854
Flags: W
HStem: 0 10<165 173> 0 17<208 212> 0 21<345 531> 246 17<420 491> 323 140<388 698> 426 20G<381 383> 442 21<388 625> 452 11<329 363>
DStem2: 287 61 420 263 0.377037 0.926198<237.238 365.553 10.6882 218.853>
LayerCount: 2
Back
Fore
SplineSet
207 15 m 1
 208 17 l 1
 212 17 l 1
 239 25 264 41 287 61 c 1
 425 400 l 1
 417 421 404 437 383 446 c 2
 381 446 l 1
 382 447 l 1
 372 450 362 452 350 452 c 0
 108 452 -90 10 170 10 c 0
 182 10 195 12 207 15 c 1
420 263 m 1
 489 263 l 2
 517 263 542 278 566 303 c 0
 574 312 580 318 584 329 c 2
 589 342 l 1
 608 342 l 1
 537 164 l 1
 517 164 l 1
 522 176 l 2
 529 192 528 218 514 234 c 0
 506 243 497 246 482 246 c 2
 413 246 l 1
 335 53 l 1
 334 52 334 51 333 50 c 0
 329 40 329 31 337 25 c 0
 340 23 343 21 348 21 c 2
 437 21 l 2
 467 21 484 25 511 43 c 0
 548 67 564 84 591 115 c 2
 609 137 l 1
 623 137 l 1
 531 0 l 1
 214 0 l 2
 202 0 185 -1 165 -1 c 0
 -166 -13 33 467 352 463 c 0
 366 463 378 463 388 461 c 1
 388 463 l 1
 724 463 l 1
 698 323 l 1
 684 323 l 1
 683 344 l 1
 681 376 681 395 663 419 c 0
 650 437 643 442 607 442 c 2
 518 442 l 2
 513 442 509 440 503 437 c 0
 489 430 482 420 477 407 c 2
 469 388 l 1
 469 386 468 384 468 382 c 1
 420 263 l 1
EndSplineSet
EndChar

StartChar: uni0278
Encoding: 632 632 508
Width: 446
Flags: W
HStem: 0 18<40 240> 538 28<338 366> 644 17<340 377 341 532>
DStem2: 161 131 216 129 0.433018 0.901385<22.0132 451.302>
LayerCount: 2
Back
Fore
SplineSet
424 563 m 1
 473 557 474 555 501 537 c 0
 546 509 559 447 536 367 c 0
 491 213 364 103 221 103 c 0
 217 103 211 103 203 104 c 1
 182 58 l 2
 169 31 172 18 204 18 c 2
 246 18 l 1
 240 0 l 1
 30 0 l 1
 41 18 l 1
 68 18 l 2
 97 18 119 47 131 70 c 2
 148 104 l 1
 99 114 90 117 66 132 c 0
 49 142 36 159 28 181 c 0
 16 215 17 257 31 307 c 0
 77 467 205 566 366 566 c 2
 369 566 l 1
 391 611 l 2
 401 631 402 644 375 644 c 2
 335 644 l 1
 341 661 l 1
 538 661 l 1
 532 644 l 1
 501 644 l 2
 479 644 453 623 444 604 c 2
 424 563 l 1
356 538 m 1
 241 536 130 440 90 300 c 0
 64 210 94 145 161 131 c 1
 356 538 l 1
412 537 m 1
 216 129 l 1
 299 136 362 177 416 251 c 0
 441 286 462 328 473 368 c 0
 500 463 482 523 412 537 c 1
EndSplineSet
EndChar

StartChar: uni0279
Encoding: 633 633 509
Width: 345
Flags: W
DStem2: 141 243 131 119 0.469155 0.883116<0 257.649> 168 100 151 60 0.62852 0.777793<0 85.4866>
LayerCount: 2
Back
Fore
SplineSet
-60 48 m 0
 -77 86 -23 121 -3 102 c 0
 7 93 7 82 4 69 c 1
 10 75 16 79 22 85 c 0
 65 133 105 191 141 243 c 1
 261 471 l 1
 318 471 l 1
 131 119 l 1
 99 60 127 53 168 100 c 2
 224 165 l 1
 231 159 l 1
 151 60 l 2
 138 44 120 32 95 32 c 0
 21 32 82 130 95 158 c 1
 66 120 35 76 -1 44 c 0
 -22 26 -50 27 -60 48 c 0
EndSplineSet
EndChar

StartChar: uni027A
Encoding: 634 634 510
Width: 345
Flags: W
HStem: 667 18<253 295 254 442>
DStem2: 85 94 136 81 0.373393 0.927673<6.98327 588.656>
LayerCount: 2
Back
Fore
SplineSet
-104 30 m 0
 -96 54 -66 75 -41 76 c 0
 -19 77 -6 74 0 55 c 1
 3 51 -3 47 -6 43 c 1
 4 45 11 48 22 53 c 0
 37 60 45 66 59 74 c 0
 70 82 78 88 85 94 c 1
 305 640 l 1
 309 648 308 652 305 658 c 0
 302 664 298 667 291 667 c 2
 246 667 l 1
 254 685 l 1
 450 685 l 1
 442 667 l 1
 397 667 l 2
 390 667 383 664 377 658 c 1
 368 652 365 648 361 640 c 1
 136 81 l 1
 169 65 l 1
 167 59 l 1
 48 2 l 1
 75 69 l 1
 60 58 45 48 27 38 c 0
 -13 16 -44 -3 -78 0 c 0
 -96 3 -110 11 -104 30 c 0
EndSplineSet
EndChar

StartChar: uni027C
Encoding: 636 636 511
Width: 345
Flags: W
HStem: 0 18<-110 80>
DStem2: -28 45 28 45 0.37482 0.927098<20.9899 602.957>
LayerCount: 2
Back
Fore
SplineSet
437 655 m 0
 430 631 399 610 375 609 c 0
 352 608 339 611 333 630 c 0
 331 634 336 638 339 642 c 1
 329 640 322 637 311 632 c 0
 296 625 288 620 274 611 c 0
 264 604 256 597 248 591 c 1
 28 45 l 2
 25 37 25 33 29 27 c 257
 31 21 35 18 42 18 c 2
 87 18 l 1
 80 0 l 1
 -116 0 l 1
 -109 18 l 1
 -64 18 l 2
 -57 18 -50 21 -43 27 c 256
 -35 33 -31 37 -28 45 c 2
 198 604 l 1
 164 620 l 1
 166 626 l 1
 286 683 l 1
 258 616 l 1
 273 627 288 637 306 647 c 0
 346 669 377 689 411 685 c 0
 429 683 443 674 437 655 c 0
EndSplineSet
EndChar

StartChar: uni027D
Encoding: 637 637 512
Width: 345
Flags: W
HStem: -95 13<68 79>
DStem2: 16 0 52 -49 0.374391 0.927271<0 420.789>
LayerCount: 2
Back
Fore
SplineSet
224 377 m 1
 232 383 240 390 250 397 c 0
 264 406 272 411 287 418 c 0
 298 423 305 426 315 428 c 1
 312 424 307 420 309 416 c 0
 315 397 328 394 351 395 c 0
 375 396 406 417 413 441 c 0
 419 460 405 469 387 471 c 0
 353 475 322 455 282 433 c 0
 264 423 249 413 234 402 c 1
 261 469 l 1
 142 412 l 1
 140 406 l 1
 174 390 l 1
 16 0 l 2
 -6 -54 25 -95 79 -95 c 0
 118 -95 151 -77 165 -45 c 0
 182 -5 108 -8 88 -58 c 0
 84 -66 84 -72 85 -79 c 1
 79 -81 76 -82 70 -82 c 0
 53 -82 45 -66 52 -49 c 2
 224 377 l 1
EndSplineSet
EndChar

StartChar: uni0280
Encoding: 640 640 513
Width: 515
Flags: W
HStem: 0 11<351 362> 0 17<-54 120> 257 17<170 226> 442 21<229 318> 446 17<126 163>
DStem2: 19 43 170 274 0.374789 0.92711<270.756 405.561 21.7378 252.371> 279 258 226 257 0.159232 -0.987241<0 211.238>
LayerCount: 2
Back
Fore
SplineSet
365 374 m 0
 383 418 351 442 308 442 c 2
 238 442 l 1
 170 274 l 1
 240 274 l 2
 297 274 338 304 365 374 c 0
279 258 m 1
 316 50 l 1
 319 35 334 22 337 19 c 0
 339 17 351 11 357 11 c 2
 366 11 l 1
 362 0 l 1
 304 0 l 2
 289 0 281 3 272 12 c 0
 264 20 263 27 261 40 c 2
 226 257 l 1
 163 257 l 1
 77 43 l 2
 74 36 74 31 77 25 c 0
 79 19 83 17 91 17 c 2
 127 17 l 1
 120 0 l 1
 -60 0 l 1
 -53 17 l 1
 -16 17 l 2
 -9 17 -2 20 5 25 c 0
 12 31 16 36 19 43 c 2
 171 419 l 1
 175 427 174 432 171 437 c 0
 169 442 165 446 158 446 c 2
 121 446 l 1
 127 463 l 1
 229 463 l 1
 351 463 l 2
 404 463 442 445 419 376 c 0
 394 299 336 264 279 258 c 1
EndSplineSet
EndChar

StartChar: uni0281
Encoding: 641 641 514
Width: 515
Flags: W
HStem: 0 17<-23 194> 0 21<99 196> 188 17<189 261> 444 18<169 213 170 369>
DStem2: 66 57 189 205 0.423028 0.906116<186.138 382.953 0 167.35> 245 205 304 204 0.70085 0.713309<40.6368 316.398>
LayerCount: 2
Back
Fore
SplineSet
-28 0 m 1
 -22 17 l 1
 9 17 l 2
 30 17 57 39 66 57 c 1
 228 404 l 2
 241 431 238 444 206 444 c 258
 164 444 l 1
 170 462 l 1
 380 462 l 1
 369 444 l 1
 342 444 l 258
 313 444 291 416 279 392 c 2
 189 205 l 1
 245 205 l 1
 470 434 l 2
 493 457 530 473 560 473 c 0
 594 473 619 452 619 424 c 0
 619 399 599 378 576 378 c 0
 563 378 550 384 544 393 c 2
 540 400 l 2
 535 408 528 411 520 411 c 0
 514 411 515 415 499 399 c 2
 304 204 l 1
 356 198 382 163 339 86 c 0
 300 17 246 1 194 1 c 2
 -28 0 l 1
99 21 m 1
 180 21 l 2
 222 21 275 44 297 88 c 0
 332 158 318 188 261 188 c 2
 181 188 l 1
 99 21 l 1
EndSplineSet
EndChar

StartChar: uni0287
Encoding: 647 647 515
Width: 265
Flags: W
HStem: 120 19<-65 -23 44 89>
DStem2: -115 -53 -50 -37 0.469528 0.882917<44.646 195.941 244.22 575.279>
LayerCount: 2
Back
Fore
SplineSet
-115 -53 m 1
 -23 120 l 1
 -74 120 l 1
 -64 139 l 1
 -13 139 l 1
 165 473 l 2
 197 534 153 524 122 493 c 2
 75 447 l 1
 68 452 l 1
 141 533 l 2
 145 538 162 558 196 559 c 0
 260 560 222 473 200 431 c 2
 44 139 l 1
 99 139 l 1
 89 120 l 1
 34 120 l 1
 -50 -37 l 1
 -115 -53 l 1
EndSplineSet
EndChar

StartChar: uni0288
Encoding: 648 648 516
Width: 265
Flags: W
HStem: 413 43<223 322>
DStem2: -13 -35 29 -69 0.373381 0.927678<0 482.808>
LayerCount: 2
Back
Fore
SplineSet
223 413 m 1
 288 413 l 1
 322 456 l 1
 241 456 l 1
 277 546 l 1
 265 560 l 1
 120 435 l 1
 111 413 l 1
 167 413 l 1
 4 9 38 93 -13 -35 c 0
 -36 -94 -10 -144 44 -146 c 0
 123 -148 151 -58 100 -57 c 0
 67 -56 39 -92 51 -117 c 0
 54 -124 55 -128 61 -132 c 1
 50 -132 45 -130 37 -125 c 0
 19 -113 19 -94 29 -69 c 0
 94 90 57 0 223 413 c 1
EndSplineSet
EndChar

StartChar: uni028C
Encoding: 652 652 517
Width: 465
Flags: W
LayerCount: 2
Back
Fore
SplineSet
50 73 m 0
 43 163 206 470 363 471 c 0
 407 471 435 428 436 384 c 0
 439 256 324 198 253 112 c 0
 243 100 242 91 236 77 c 1
 253 84 263 86 282 88 c 0
 324 91 352 46 389 69 c 0
 399 76 402 86 404 99 c 1
 398 87 392 76 373 82 c 0
 336 95 352 155 401 137 c 0
 424 128 429 97 413 75 c 0
 349 -9 292 42 249 43 c 0
 234 43 226 36 212 30 c 1
 213 43 214 51 217 65 c 0
 237 173 375 273 381 395 c 0
 382 420 363 447 335 444 c 0
 243 433 129 255 96 163 c 0
 88 142 86 131 82 108 c 1
 102 109 128 93 128 66 c 0
 128 38 103 11 71 23 c 0
 48 31 52 43 50 73 c 0
EndSplineSet
EndChar

StartChar: uni028D
Encoding: 653 653 518
Width: 629
Flags: W
HStem: 76 58<542 552> 430 41<305 318>
VStem: 547 53<377 402>
LayerCount: 2
Back
Fore
SplineSet
70 64 m 0
 67 113 185 472 318 471 c 0
 368 470 392 429 402 379 c 1
 451 434 495 470 521 471 c 0
 573 473 601 430 600 385 c 0
 597 238 472 185 422 108 c 0
 413 95 408 86 401 72 c 1
 466 99 479 65 531 61 c 0
 561 59 568 79 570 94 c 1
 565 82 559 76 543 76 c 0
 510 77 508 134 552 134 c 0
 574 134 584 116 585 100 c 0
 587 47 513 19 470 32 c 0
 430 44 421 41 377 25 c 1
 378 38 377 47 382 60 c 0
 422 162 546 258 547 393 c 0
 547 413 539 445 509 444 c 0
 488 443 448 405 406 354 c 1
 408 344 408 334 408 323 c 0
 411 223 312 23 249 25 c 0
 228 26 222 49 224 73 c 0
 230 132 290 237 357 323 c 1
 362 351 347 430 305 430 c 0
 241 429 192 327 151 241 c 0
 127 191 118 159 110 105 c 1
 123 104 147 77 146 61 c 0
 140 1 73 5 70 64 c 0
252 76 m 0
 252 66 252 51 262 51 c 0
 296 48 338 201 354 286 c 1
 298 205 250 113 252 76 c 0
EndSplineSet
EndChar

StartChar: uni028E
Encoding: 654 654 519
Width: 440
Flags: W
HStem: 533 66<506 521>
DStem2: 226 131 281 120 0.215358 0.976535<1.10278 262.053> 323 136 329 86 0.170917 0.985285<0 51.2248>
LayerCount: 2
Back
Fore
SplineSet
95 8 m 0
 10 8 136 192 227 331 c 0
 309 457 415 601 506 599 c 0
 564 599 547 533 521 533 c 0
 489 534 489 563 464 560 c 0
 423 556 369 517 339 383 c 1
 281 120 l 2
 279 111 276 76 295 77 c 0
 313 78 322 129 323 136 c 2
 332 197 l 1
 346 184 l 1
 329 86 l 2
 325 64 305 29 273 27 c 0
 226 25 217 90 226 131 c 2
 282 387 l 1
 236 326 212 292 175 224 c 0
 149 177 135 149 114 99 c 1
 117 94 120 90 122 85 c 0
 135 56 118 8 95 8 c 0
EndSplineSet
EndChar

StartChar: uni0292
Encoding: 658 658 520
Width: 490
Flags: W
HStem: 0 28<67 79> 654 18<258 494>
DStem2: 186 400 294 425 0.771496 0.636234<99.2274 399.224>
LayerCount: 2
Back
Fore
SplineSet
67 0 m 0
 6 0 -37 43 -9 104 c 0
 27 181 123 178 94 113 c 0
 84 92 73 74 43 70 c 0
 36 69 33 69 28 70 c 1
 24 48 45 28 67 28 c 0
 119 28 284 70 334 196 c 0
 380 309 286 371 197 371 c 2
 174 371 l 1
 186 400 l 1
 494 654 l 1
 338 654 l 2
 299 654 270 623 236 589 c 0
 216 569 206 554 193 530 c 1
 181 540 l 1
 258 672 l 1
 584 672 l 1
 294 425 l 1
 578 357 329 0 67 0 c 0
EndSplineSet
EndChar

StartChar: uni0299
Encoding: 665 665 521
Width: 452
Flags: W
HStem: 0 17<-57 -8> 0 21<-57 145> 253 19<164 255> 422 20G<266 333> 446 17<123 354>
DStem2: 22 43 172 272 0.373934 0.927455<268.477 406.489 35.6148 247.864>
LayerCount: 2
Back
Fore
SplineSet
318 268 m 1
 362 289 401 329 420 375 c 0
 447 441 415 463 354 463 c 2
 130 463 l 1
 123 446 l 1
 160 446 l 2
 167 446 171 443 174 438 c 0
 176 432 177 427 174 420 c 2
 22 43 l 2
 19 36 14 31 7 25 c 0
 1 20 -6 17 -13 17 c 2
 -50 17 l 1
 -57 0 l 1
 143 0 l 2
 225 0 317 72 348 154 c 0
 369 210 372 254 318 268 c 1
164 253 m 1
 255 253 l 2
 309 253 317 195 297 144 c 0
 279 95 202 21 137 21 c 2
 96 21 l 2
 88 21 84 25 81 30 c 0
 78 38 80 46 85 56 c 1
 164 253 l 1
172 272 m 1
 226 407 l 1
 232 420 239 431 253 438 c 0
 258 440 262 442 266 442 c 2
 333 442 l 2
 372 442 392 415 377 375 c 0
 358 324 296 272 241 272 c 2
 172 272 l 1
EndSplineSet
EndChar

StartChar: uni029C
Encoding: 668 668 522
Width: 562
Flags: W
HStem: 0 17<12 205 262 455> 239 16<253 438> 409 18<196 396 446 488 447 646>
DStem2: 101 57 253 255 0.442609 0.896715<244.826 347.937 17.6239 226.938> 351 57 405 50 0.441358 0.897331<17.552 201.712 219.601 347.936>
LayerCount: 2
Back
Fore
SplineSet
407 427 m 1
 396 409 l 1
 369 409 l 258
 340 409 318 380 306 357 c 2
 253 255 l 1
 446 255 l 1
 505 369 l 2
 518 395 515 409 483 409 c 258
 441 409 l 1
 447 427 l 1
 657 427 l 1
 646 409 l 1
 619 409 l 258
 590 409 568 380 556 357 c 1
 405 50 l 2
 395 30 394 17 421 17 c 258
 461 17 l 1
 455 0 l 1
 257 0 l 1
 263 17 l 1
 294 17 l 258
 316 17 342 38 351 57 c 2
 438 239 l 1
 245 239 l 1
 155 50 l 2
 146 30 144 17 171 17 c 258
 211 17 l 1
 205 0 l 1
 7 0 l 1
 13 17 l 1
 44 17 l 258
 66 17 92 38 101 57 c 2
 255 369 l 2
 268 395 265 409 233 409 c 258
 191 409 l 1
 197 427 l 1
 407 427 l 1
EndSplineSet
EndChar

StartChar: uni029E
Encoding: 670 670 523
Width: 526
Flags: W
HStem: 9 17<184 229> 650 20G<457 514>
VStem: 142 117<269 467>
DStem2: 195 551 204 544 0.571793 0.820398<0 81.2443> 329 420 184 26 0.456036 0.889961<0 60.8269 76.9347 280.863>
LayerCount: 2
Back
Fore
SplineSet
101 282 m 0
 103 318 181 384 264 436 c 1
 261 448 259 455 259 467 c 0
 256 531 320 640 287 640 c 0
 271 640 255 617 251 611 c 2
 204 544 l 1
 195 551 l 1
 264 650 l 2
 268 656 290 679 315 678 c 0
 338 678 350 657 348 629 c 0
 346 602 320 556 320 506 c 0
 320 493 323 485 325 471 c 1
 338 479 353 484 365 488 c 1
 457 670 l 1
 514 670 l 1
 184 26 l 1
 237 26 l 1
 229 9 l 1
 118 9 l 1
 118 9 300 362 300 363 c 1
 297 359 295 356 292 353 c 0
 251 294 202 236 148 234 c 0
 107 232 99 257 101 282 c 0
142 269 m 0
 142 268 139 253 149 253 c 0
 218 253 259 329 310 395 c 0
 317 405 323 412 329 420 c 1
 357 474 l 1
 350 471 344 468 335 464 c 0
 239 417 142 326 142 269 c 0
EndSplineSet
EndChar

StartChar: uni029F
Encoding: 671 671 524
Width: 489
Flags: W
HStem: 0 16<-56 -7> 0 24<-56 201> 445 17<124 311>
DStem2: 28 53 87 59 0.374003 0.927427<27.6308 395.718>
LayerCount: 2
Back
Fore
SplineSet
-56 0 m 1
 281 0 l 1
 371 133 l 1
 361 133 l 1
 339 102 319 86 285 62 c 0
 250 37 221 24 185 24 c 2
 99 24 l 2
 95 24 92 26 89 28 c 0
 80 35 82 46 87 59 c 2
 233 420 l 1
 235 427 240 431 247 437 c 256
 255 443 261 445 268 445 c 2
 305 445 l 1
 311 462 l 1
 131 462 l 1
 124 445 l 1
 161 445 l 2
 168 445 173 442 175 437 c 256
 178 432 179 427 176 420 c 2
 28 53 l 1
 23 42 19 33 9 25 c 0
 2 20 -5 16 -12 16 c 2
 -49 16 l 1
 -56 0 l 1
EndSplineSet
EndChar

StartChar: afii57929
Encoding: 700 700 525
Width: 188
Flags: W
LayerCount: 2
Back
Fore
SplineSet
90 553 m 4
 62 523 24 491 -15 484 c 5
 -22 497 l 5
 -4 502 32 528 26 547 c 5
 -7 568 22 633 75 630 c 4
 121 627 110 576 90 553 c 4
EndSplineSet
EndChar

StartChar: afii64937
Encoding: 701 701 526
Width: 220
Flags: W
LayerCount: 2
Back
Fore
SplineSet
47.0908 543 m 5
 31.4668 573 54.1582 628 104.796 631 c 4
 166.646 635 164.066 557 117.752 532 c 5
 111.265 525 111.989 519 111.076 510 c 4
 110.525 498 115.037 491 123.337 483 c 4
 129.85 476 135.999 472 146.361 469 c 5
 130.173 454 l 5
 115.811 457 108.448 460 96.9365 467 c 4
 77.2744 478 69.3994 488 58.6514 508 c 4
 51.2021 520 49.3271 530 47.0908 543 c 5
EndSplineSet
EndChar

StartChar: circumflex
Encoding: 710 710 527
Width: 263
Flags: W
LayerCount: 2
Back
Fore
SplineSet
250.5 490.125 m 5
 229.5 490.125 l 5
 184.5 576.375 l 5
 184.5 577.125 81.75 490.125 81.75 490.125 c 5
 61.5 490.125 l 5
 168.75 604.875 l 5
 218.25 604.875 l 5
 219 604.875 l 5
 250.5 490.125 l 5
EndSplineSet
EndChar

StartChar: caron
Encoding: 711 711 528
Width: 263
Flags: W
HStem: 658 20G<495 496> 678 21G<496 549>
LayerCount: 2
Back
Fore
SplineSet
462 800 m 1
 484 800 l 1
 532 708 l 1
 642 800 l 1
 663 800 l 1
 549 678 l 1
 496 678 l 1
 495 678 l 1
 462 800 l 1
EndSplineSet
EndChar

StartChar: uni02C8
Encoding: 712 712 529
Width: 156
Flags: W
HStem: 641 20G<57 109>
LayerCount: 2
Back
Fore
SplineSet
57 661 m 1
 109 661 l 1
 85 539 l 1
 61 539 l 1
 57 661 l 1
EndSplineSet
EndChar

StartChar: uni02C9
Encoding: 713 713 530
Width: 248
Flags: W
HStem: 586 45<50 254>
LayerCount: 2
Back
Fore
SplineSet
266 631 m 1
 254 586 l 1
 39 586 l 1
 51 631 l 1
 266 631 l 1
EndSplineSet
EndChar

StartChar: breve
Encoding: 728 728 531
Width: 260
Flags: W
LayerCount: 2
Back
Fore
SplineSet
890 776 m 1
 873 727 828 710 776 709 c 0
 736 709 711 737 698 776 c 1
 723 796 l 1
 735 768 755 746 786 746 c 0
 825 746 860 760 875 796 c 1
 890 776 l 1
EndSplineSet
EndChar

StartChar: dotaccent
Encoding: 729 729 532
Width: 120
Flags: W
LayerCount: 2
Back
Fore
SplineSet
95 591 m 0
 153 591 131 506 73 506 c 0
 14 506 37 591 95 591 c 0
EndSplineSet
EndChar

StartChar: ring
Encoding: 730 730 533
Width: 191
Flags: W
LayerCount: 2
Back
Fore
SplineSet
133 715 m 0
 244 719 220 554 109 551 c 0
 -2 548 22 712 133 715 c 0
127 684 m 0
 63 689 57 581 121 588 c 0
 184 594 190 680 127 684 c 0
EndSplineSet
EndChar

StartChar: ogonek
Encoding: 731 731 534
Width: 238
Flags: W
HStem: 0 0<148 165>
LayerCount: 2
Back
Fore
SplineSet
165 0 m 1
 148 0 l 1
 154 1 159 1 165 0 c 1
255 -115 m 1
 231 -159 189 -171 139 -170 c 0
 91 -169 41 -127 53 -80 c 0
 64 -40 82 -8 123 0 c 1
 148 0 l 1
 118 -6 98 -44 93 -80 c 0
 89 -109 119 -121 146 -125 c 0
 185 -131 220 -124 241 -90 c 1
 255 -115 l 1
EndSplineSet
EndChar

StartChar: tilde
Encoding: 732 732 535
Width: 337
Flags: W
LayerCount: 2
Back
Fore
SplineSet
303.775 596.15 m 5
 301.825 556.5 269.325 524.65 229.675 525.95 c 4
 190.675 527.25 193.275 559.75 167.925 559.75 c 4
 142.575 559.75 117.225 550 99.6748 525.95 c 5
 91.2246 525.95 l 5
 95.125 571.45 146.475 599.4 181.575 600.05 c 4
 208.225 600.7 221.225 566.25 239.425 567.55 c 4
 264.775 569.5 282.975 576 298.575 596.15 c 5
 303.775 596.15 l 5
EndSplineSet
EndChar

StartChar: hungarumlaut
Encoding: 733 733 536
Width: 153
Flags: W
HStem: 672 21G<97 120> 673 21G<-41 -19>
LayerCount: 2
Back
Fore
SplineSet
100 799 m 1
 46 799 l 1
 -41 673 l 1
 -19 673 l 1
 100 799 l 1
239 799 m 1
 184 799 l 1
 97 672 l 1
 120 672 l 1
 239 799 l 1
EndSplineSet
EndChar

StartChar: gravecomb
Encoding: 768 768 537
Width: 0
Flags: W
LayerCount: 2
Back
Fore
SplineSet
-139 580 m 1
 -163 580 l 1
 -242 719 l 1
 -184 719 l 1
 -139 580 l 1
EndSplineSet
EndChar

StartChar: acutecomb
Encoding: 769 769 538
Width: 0
Flags: W
LayerCount: 2
Back
Fore
SplineSet
-83 718 m 1
 -216 576 l 1
 -242 576 l 1
 -144 718 l 1
 -83 718 l 1
EndSplineSet
EndChar

StartChar: uni0302
Encoding: 770 770 539
Width: 0
Flags: W
LayerCount: 2
Back
Fore
SplineSet
-81 734 m 1
 -99 734 l 1
 -140 795 l 1
 -233 734 l 1
 -252 734 l 1
 -154 815 l 1
 -110 815 l 1
 -109 815 l 1
 -81 734 l 1
EndSplineSet
EndChar

StartChar: tildecomb
Encoding: 771 771 540
Width: 0
Flags: W
LayerCount: 2
Back
Fore
SplineSet
94 802 m 1
 92 752 51 712 1 713 c 0
 -49 715 -46 756 -77 756 c 0
 -109 756 -142 744 -164 713 c 1
 -175 713 l 1
 -169 771 -105 806 -60 807 c 0
 -26 808 -10 764 13 766 c 0
 45 768 68 777 87 802 c 1
 94 802 l 1
EndSplineSet
EndChar

StartChar: uni0304
Encoding: 772 772 541
Width: 0
Flags: W
HStem: 708 45<-253 -49>
LayerCount: 2
Back
Fore
SplineSet
-37 753 m 1
 -49 708 l 1
 -264 708 l 1
 -252 753 l 1
 -37 753 l 1
EndSplineSet
EndChar

StartChar: uni0305
Encoding: 773 773 542
Width: 0
Flags: W
HStem: 715 43<-354 -13>
LayerCount: 2
Back
Fore
SplineSet
7 758 m 1
 -13 715 l 1
 -374 715 l 1
 -353 758 l 1
 7 758 l 1
EndSplineSet
EndChar

StartChar: uni0306
Encoding: 774 774 543
Width: 0
Flags: W
LayerCount: 2
Back
Fore
SplineSet
411 776 m 1
 394 727 349 710 297 709 c 0
 257 709 232 737 218 776 c 1
 244 796 l 1
 256 768 276 746 306 746 c 0
 346 746 381 760 395 796 c 1
 411 776 l 1
EndSplineSet
EndChar

StartChar: uni0307
Encoding: 775 775 544
Width: 0
Flags: W
LayerCount: 2
Back
Fore
SplineSet
-220 744 m 0
 -162 744 -184 659 -242 659 c 0
 -301 659 -278 744 -220 744 c 0
EndSplineSet
EndChar

StartChar: uni0308
Encoding: 776 776 545
Width: 0
Flags: W
LayerCount: 2
Back
Fore
SplineSet
-70 846 m 0
 -15 846 -38 766 -92 766 c 0
 -147 766 -124 846 -70 846 c 0
-240 846 m 0
 -186 846 -207 766 -262 766 c 0
 -316 766 -294 846 -240 846 c 0
EndSplineSet
EndChar

StartChar: hookabovecomb
Encoding: 777 777 546
Width: 0
Flags: W
HStem: 687 21G<-138 -126> 780 7<-135 -131>
VStem: -138 12<687 696>
LayerCount: 2
Back
Fore
SplineSet
-114 758 m 0
 -114 775 -120 780 -131 780 c 0
 -141 780 -142 774 -145 770 c 1
 -160 762 l 1
 -161 775 -145 787 -133 787 c 0
 -104 788 -91 777 -90 757 c 0
 -89 724 -121 725 -125 695 c 0
 -126 691 -126 692 -126 687 c 1
 -138 687 l 1
 -138 692 -138 691 -138 696 c 0
 -136 724 -113 730 -114 758 c 0
EndSplineSet
EndChar

StartChar: uni030A
Encoding: 778 778 547
Width: 0
Flags: W
LayerCount: 2
Back
Fore
SplineSet
-80 859 m 0
 31 863 7 698 -104 695 c 0
 -215 692 -191 856 -80 859 c 0
-86 828 m 0
 -150 833 -156 726 -92 732 c 0
 -29 739 -23 824 -86 828 c 0
EndSplineSet
EndChar

StartChar: uni030B
Encoding: 779 779 548
Width: 0
Flags: W
LayerCount: 2
Back
Fore
SplineSet
-83 718 m 1
 -144 718 l 1
 -242 576 l 1
 -216 576 l 1
 -83 718 l 1
-213 718 m 1
 -274 718 l 1
 -372 576 l 1
 -347 576 l 1
 -213 718 l 1
EndSplineSet
EndChar

StartChar: uni030C
Encoding: 780 780 549
Width: 0
Flags: W
LayerCount: 2
Back
Fore
SplineSet
193 946 m 1
 216 946 l 1
 264 854 l 1
 264 853 373 946 373 946 c 1
 395 946 l 1
 280 823 l 1
 228 823 l 1
 227 823 l 1
 193 946 l 1
EndSplineSet
EndChar

StartChar: uni030D
Encoding: 781 781 550
Width: 0
Flags: W
HStem: 664 21G<-115 -91>
LayerCount: 2
Back
Fore
SplineSet
-119 786 m 1
 -67 786 l 1
 -91 664 l 1
 -115 664 l 1
 -119 786 l 1
EndSplineSet
EndChar

StartChar: uni030E
Encoding: 782 782 551
Width: 0
Flags: W
HStem: 663 21G<-180 -156 -91 -67>
LayerCount: 2
Back
Fore
SplineSet
-94 785 m 1
 -91 663 l 1
 -67 663 l 1
 -42 785 l 1
 -94 785 l 1
-184 785 m 1
 -180 663 l 1
 -156 663 l 1
 -132 785 l 1
 -184 785 l 1
EndSplineSet
EndChar

StartChar: uni030F
Encoding: 783 783 552
Width: 0
Flags: W
LayerCount: 2
Back
Fore
SplineSet
-347 692 m 1
 -382 800 l 1
 -428 800 l 1
 -366 692 l 1
 -347 692 l 1
-262 692 m 1
 -297 800 l 1
 -342 800 l 1
 -281 692 l 1
 -262 692 l 1
EndSplineSet
EndChar

StartChar: uni0310
Encoding: 784 784 553
Width: 0
Flags: W
HStem: 653 38<289 307> 655 20G<-312.5 -254>
LayerCount: 2
Back
Fore
SplineSet
405 720 m 1
 388 672 343 654 291 653 c 0
 250 653 225 682 212 720 c 1
 238 741 l 1
 250 712 270 691 300 691 c 0
 339 691 375 704 389 741 c 1
 405 720 l 1
-261 760 m 0
 -203 760 -225 675 -283 675 c 0
 -342 675 -319 760 -261 760 c 0
EndSplineSet
EndChar

StartChar: uni0311
Encoding: 785 785 554
Width: 0
Flags: W
LayerCount: 2
Back
Fore
SplineSet
411 702 m 1
 394 751 349 768 297 769 c 0
 257 769 232 741 218 702 c 1
 244 682 l 1
 256 710 276 732 306 732 c 0
 346 732 381 718 395 682 c 1
 411 702 l 1
EndSplineSet
EndChar

StartChar: uni0312
Encoding: 786 786 555
Width: 0
Flags: W
LayerCount: 2
Back
Fore
SplineSet
-132 712 m 0
 -105 742 -66 774 -27 781 c 1
 -20 768 l 1
 -38 764 -74 738 -68 718 c 1
 -35 697 -65 632 -117 635 c 0
 -163 638 -153 690 -132 712 c 0
EndSplineSet
EndChar

StartChar: uni0313
Encoding: 787 787 556
Width: 0
Flags: W
LayerCount: 2
Back
Fore
SplineSet
-162 680 m 0
 -189 650 -228 618 -267 611 c 1
 -274 624 l 1
 -256 628 -220 654 -226 674 c 1
 -259 695 -229 760 -177 757 c 0
 -131 754 -141 702 -162 680 c 0
EndSplineSet
EndChar

StartChar: uni0314
Encoding: 788 788 557
Width: 0
Flags: W
LayerCount: 2
Back
Fore
SplineSet
-138 680 m 0
 -111 650 -72 618 -33 611 c 1
 -26 624 l 1
 -44 628 -80 654 -74 674 c 1
 -41 695 -71 760 -123 757 c 0
 -169 754 -159 702 -138 680 c 0
EndSplineSet
EndChar

StartChar: uni0315
Encoding: 789 789 558
Width: 0
Flags: W
LayerCount: 2
Back
Fore
SplineSet
-162 680 m 0
 -189 650 -228 618 -267 611 c 1
 -274 624 l 1
 -256 628 -220 654 -226 674 c 1
 -259 695 -229 760 -177 757 c 0
 -131 754 -141 702 -162 680 c 0
EndSplineSet
EndChar

StartChar: dotbelowcomb
Encoding: 803 803 559
Width: 0
Flags: W
LayerCount: 2
Back
Fore
SplineSet
-220 -137 m 0
 -162 -137 -184 -222 -242 -222 c 0
 -301 -222 -278 -137 -220 -137 c 0
EndSplineSet
EndChar

StartChar: uni0324
Encoding: 804 804 560
Width: 0
Flags: W
HStem: -28 20G<-267 -213 -97 -42.5>
LayerCount: 2
Back
Fore
SplineSet
-70 -8 m 0
 -15 -8 -38 -88 -92 -88 c 0
 -147 -88 -124 -8 -70 -8 c 0
-240 -8 m 0
 -186 -8 -207 -88 -262 -88 c 0
 -316 -88 -294 -8 -240 -8 c 0
EndSplineSet
EndChar

StartChar: uni0325
Encoding: 805 805 561
Width: 0
Flags: W
LayerCount: 2
Back
Fore
SplineSet
-80 20 m 0
 31 23 7 -141 -104 -144 c 0
 -215 -147 -191 16 -80 20 c 0
-86 -11 m 0
 -150 -7 -156 -114 -92 -107 c 0
 -29 -101 -23 -16 -86 -11 c 0
EndSplineSet
EndChar

StartChar: uni0326
Encoding: 806 806 562
Width: 0
Flags: W
LayerCount: 2
Back
Fore
SplineSet
-162 -131 m 0
 -189 -161 -228 -193 -267 -200 c 1
 -274 -187 l 1
 -256 -183 -220 -156 -226 -137 c 1
 -259 -116 -229 -51 -177 -54 c 0
 -131 -57 -141 -108 -162 -131 c 0
EndSplineSet
EndChar

StartChar: uni0327
Encoding: 807 807 563
Width: 0
Flags: W
DStem2: -363 -68 -314 -38 0.52145 0.853282<51.1495 84.3801>
LayerCount: 2
Back
Fore
SplineSet
-243 -112 m 0
 -256 -201 -328 -194 -378 -194 c 2
 -406 -194 l 1
 -397 -165 l 1
 -363 -164 l 2
 -334 -163 -294 -164 -279 -120 c 0
 -270 -94 -299 -68 -326 -68 c 2
 -363 -68 l 1
 -319 4 l 1
 -284 13 l 1
 -314 -38 l 1
 -298 -41 l 2
 -270 -46 -238 -73 -243 -112 c 0
EndSplineSet
EndChar

StartChar: uni0328
Encoding: 808 808 564
Width: 0
Flags: W
HStem: 0 0<-203 -186>
LayerCount: 2
Back
Fore
SplineSet
-186 0 m 1
 -203 0 l 1
 -197 1 -192 1 -186 0 c 1
-96 -115 m 1
 -120 -159 -162 -171 -212 -170 c 0
 -260 -169 -311 -127 -298 -80 c 0
 -288 -40 -269 -8 -228 0 c 1
 -203 0 l 1
 -233 -6 -253 -44 -258 -80 c 0
 -262 -109 -232 -121 -205 -125 c 0
 -166 -131 -131 -124 -110 -90 c 1
 -96 -115 l 1
EndSplineSet
EndChar

StartChar: uni0329
Encoding: 809 809 565
Width: 0
Flags: W
LayerCount: 2
Back
Fore
SplineSet
-119 -68 m 1
 -67 -68 l 1
 -91 -190 l 1
 -115 -190 l 1
 -119 -68 l 1
EndSplineSet
EndChar

StartChar: uni032C
Encoding: 812 812 566
Width: 0
Flags: W
LayerCount: 2
Back
Fore
SplineSet
193 95 m 1
 216 95 l 1
 264 3 l 1
 264 2 373 95 373 95 c 1
 395 95 l 1
 280 -27 l 1
 228 -27 l 1
 227 -27 l 1
 193 95 l 1
EndSplineSet
EndChar

StartChar: uni032D
Encoding: 813 813 567
Width: 0
Flags: W
LayerCount: 2
Back
Fore
SplineSet
-81 -105 m 1
 -99 -105 l 1
 -140 -45 l 1
 -140 -44 -233 -105 -233 -105 c 1
 -252 -105 l 1
 -154 -24 l 1
 -110 -24 l 1
 -109 -24 l 1
 -81 -105 l 1
EndSplineSet
EndChar

StartChar: uni032E
Encoding: 814 814 568
Width: 0
Flags: W
LayerCount: 2
Back
Fore
SplineSet
411 -75 m 1
 394 -123 349 -141 297 -141 c 0
 257 -142 232 -113 218 -75 c 1
 244 -54 l 1
 256 -82 276 -104 306 -104 c 0
 346 -104 381 -91 395 -54 c 1
 411 -75 l 1
EndSplineSet
EndChar

StartChar: uni032F
Encoding: 815 815 569
Width: 0
Flags: W
LayerCount: 2
Back
Fore
SplineSet
411 -151 m 1
 394 -103 349 -85 297 -84 c 0
 257 -84 232 -113 218 -151 c 1
 244 -172 l 1
 256 -143 276 -122 306 -122 c 0
 346 -122 381 -135 395 -172 c 1
 411 -151 l 1
EndSplineSet
EndChar

StartChar: uni0330
Encoding: 816 816 570
Width: 0
Flags: W
LayerCount: 2
Back
Fore
SplineSet
94 -45 m 1
 92 -95 51 -135 1 -133 c 0
 -49 -132 -46 -90 -77 -91 c 0
 -109 -91 -142 -103 -164 -133 c 1
 -175 -133 l 1
 -169 -76 -105 -41 -60 -40 c 0
 -26 -39 -10 -82 13 -81 c 0
 45 -78 68 -70 87 -45 c 1
 94 -45 l 1
EndSplineSet
EndChar

StartChar: uni0331
Encoding: 817 817 571
Width: 0
Flags: W
HStem: -124 45<-253 -49>
LayerCount: 2
Back
Fore
SplineSet
-37 -79 m 1
 -49 -124 l 1
 -264 -124 l 1
 -252 -79 l 1
 -37 -79 l 1
EndSplineSet
EndChar

StartChar: uni0332
Encoding: 818 818 572
Width: 0
Flags: W
HStem: -110 44<-354 -13>
LayerCount: 2
Back
Fore
SplineSet
7 -66 m 1
 -13 -110 l 1
 -374 -110 l 1
 -353 -66 l 1
 7 -66 l 1
EndSplineSet
EndChar

StartChar: uni0333
Encoding: 819 819 573
Width: 0
Flags: W
HStem: -185 44<-374 7> -97 44<-374 7>
LayerCount: 2
Back
Fore
SplineSet
7 -53 m 1
 -353 -53 l 1
 -374 -97 l 1
 -13 -97 l 1
 7 -53 l 1
7 -141 m 1
 -353 -141 l 1
 -374 -185 l 1
 -13 -185 l 1
 7 -141 l 1
EndSplineSet
EndChar

StartChar: uni0334
Encoding: 820 820 574
Width: 0
Flags: W
LayerCount: 2
Back
Fore
SplineSet
94 402 m 1
 92 352 51 312 1 313 c 0
 -49 315 -46 356 -77 356 c 0
 -109 356 -142 344 -164 313 c 1
 -175 313 l 1
 -169 371 -105 406 -60 407 c 0
 -26 408 -10 364 13 366 c 0
 45 368 68 377 87 402 c 1
 94 402 l 1
EndSplineSet
EndChar

StartChar: uni0335
Encoding: 821 821 575
Width: 0
Flags: W
HStem: 308 45<-253 -49>
LayerCount: 2
Back
Fore
SplineSet
-37 353 m 1
 -49 308 l 1
 -264 308 l 1
 -252 353 l 1
 -37 353 l 1
EndSplineSet
EndChar

StartChar: uni0336
Encoding: 822 822 576
Width: 0
Flags: W
HStem: 315 43<-354 -13>
LayerCount: 2
Back
Fore
SplineSet
7 358 m 1
 -13 315 l 1
 -374 315 l 1
 -353 358 l 1
 7 358 l 1
EndSplineSet
EndChar

StartChar: uni033F
Encoding: 831 831 577
Width: 0
Flags: W
HStem: 724 43<-374 7> 812 43<-374 7>
LayerCount: 2
Back
Fore
SplineSet
7 855 m 1
 -353 855 l 1
 -374 812 l 1
 -13 812 l 1
 7 855 l 1
7 767 m 1
 -353 767 l 1
 -374 724 l 1
 -13 724 l 1
 7 767 l 1
EndSplineSet
EndChar

StartChar: uni0343
Encoding: 835 835 578
Width: 0
Flags: W
LayerCount: 2
Back
Fore
SplineSet
-162 680 m 0
 -189 650 -228 618 -267 611 c 1
 -274 624 l 1
 -256 628 -220 654 -226 674 c 1
 -259 695 -229 760 -177 757 c 0
 -131 754 -141 702 -162 680 c 0
EndSplineSet
EndChar

StartChar: uni0344
Encoding: 836 836 579
Width: 0
Flags: W
HStem: 660 21G<-172 -148>
LayerCount: 2
Back
Fore
SplineSet
-267 712 m 0
 -317 712 -317 636 -267 636 c 0
 -216 636 -216 712 -267 712 c 0
-63 712 m 0
 -113 712 -113 636 -63 636 c 0
 -12 636 -12 712 -63 712 c 0
-186 782 m 1
 -134 782 l 1
 -148 660 l 1
 -172 660 l 1
 -186 782 l 1
EndSplineSet
EndChar

StartChar: uni0345
Encoding: 837 837 580
Width: 0
Flags: W
VStem: -412 55<-84 -81>
LayerCount: 2
Back
Fore
SplineSet
-412 -35 m 1
 -356 -35 l 1
 -355 -46 -357 -81 -357 -81 c 1
 -358 -121 -319 -159 -270 -127 c 0
 -252 -115 -245 -140 -258 -150 c 0
 -319 -198 -413 -174 -412 -84 c 1
 -412 -84 -412 -53 -412 -35 c 1
EndSplineSet
EndChar

StartChar: uni037A
Encoding: 890 890 581
Width: 373
Flags: W
LayerCount: 2
Back
Fore
SplineSet
122.797 -35 m 5
 178.797 -35 l 5
 177.459 -46 168.02 -81 168.02 -81 c 5
 158.517 -121 189.439 -159 245.241 -127 c 4
 265.792 -115 267.479 -140 252.353 -150 c 4
 181.15 -198 92.251 -174 111.382 -84 c 5
 111.382 -84 118.971 -53 122.797 -35 c 5
EndSplineSet
EndChar

StartChar: tonos
Encoding: 900 900 582
Width: 156
Flags: W
HStem: 641 20G<57 109>
LayerCount: 2
Back
Fore
SplineSet
57 661 m 1
 109 661 l 1
 85 539 l 1
 61 539 l 1
 57 661 l 1
EndSplineSet
EndChar

StartChar: dieresistonos
Encoding: 901 901 583
Width: 0
Flags: W
HStem: 529 76<44 78 200 234>
LayerCount: 2
Back
Fore
SplineSet
78 605 m 0
 28 605 -6 529 44 529 c 0
 95 529 129 605 78 605 c 0
234 605 m 0
 184 605 150 529 200 529 c 0
 251 529 285 605 234 605 c 0
197 751 m 1
 249 751 l 1
 180 629 l 1
 156 629 l 1
 197 751 l 1
EndSplineSet
EndChar

StartChar: Gamma
Encoding: 915 915 594
Width: 710
Flags: W
HStem: 0 18<7 218> 644 17<312 761>
DStem2: 108 70 159 58 0.433164 0.901315<11.2756 600.234>
LayerCount: 2
Back
Fore
SplineSet
318 661 m 1
 312 644 l 1
 352 644 l 2
 380 644 378 631 368 611 c 2
 108 70 l 1
 97 46 74 18 45 18 c 258
 18 18 l 1
 7 0 l 1
 217 0 l 1
 223 18 l 1
 181 18 l 258
 149 18 147 32 159 58 c 2
 414 589 l 2
 423 608 435 623 455 633 c 0
 463 637 469 639 476 639 c 2
 596 639 l 2
 648 639 673 621 692 585 c 0
 710 551 717 528 708 483 c 1
 723 483 l 1
 761 661 l 1
 318 661 l 1
EndSplineSet
EndChar

StartChar: uni0394
Encoding: 916 916 595
Width: 677
Flags: W
HStem: 0 45<23 570>
DStem2: 34 45 63 45 0.580147 0.814512<16.8243 683.029> 487 681 456 583 0.217905 -0.97597<88.89 638.803>
LayerCount: 2
Back
Fore
SplineSet
487 681 m 1
 34 45 l 1
 23 0 l 1
 617 0 l 1
 629 45 l 1
 487 681 l 1
570 45 m 1
 63 45 l 1
 456 583 l 1
 570 45 l 1
EndSplineSet
EndChar

StartChar: Theta
Encoding: 920 920 599
Width: 671
Flags: W
HStem: -21 21<209 241> 309 43<223 442> 650 21<445 479>
DStem2: 179 262 231 371 0.338964 0.940799<120.173 144.558 4.06757 34.1386> 436 262 449 262 0.345066 0.938579<4.48585 30.0759 116.108 144.9>
LayerCount: 2
Back
Fore
SplineSet
225 0 m 0
 511 0 732 650 462 650 c 0
 180 650 -48 0 225 0 c 0
218 -21 m 0
 -143 -21 109 671 469 671 c 0
 831 671 579 -21 218 -21 c 0
439 309 m 2
 443 309 445 306 447 303 c 0
 448 299 449 295 447 290 c 2
 436 262 l 1
 449 262 l 1
 499 398 l 1
 486 398 l 1
 476 371 l 2
 474 365 471 361 467 357 c 0
 462 354 459 352 455 352 c 2
 239 352 l 2
 235 352 233 354 231 357 c 0
 229 361 229 365 231 371 c 2
 241 398 l 1
 228 398 l 1
 179 262 l 1
 191 262 l 1
 202 290 l 1
 203 295 207 299 211 303 c 0
 216 306 219 309 223 309 c 2
 439 309 l 2
EndSplineSet
EndChar

StartChar: Lambda
Encoding: 923 923 602
Width: 704
Flags: W
HStem: 0 25<-93 -60 -93 126 345 403 345 532> 641 20G<496 520>
DStem2: 102 147 126 155 0.608367 0.793656<20.95 567.189> 436 74 494 72 0.0440997 0.999027<0.559727 514.514>
LayerCount: 2
Back
Fore
SplineSet
-93 0 m 1
 126 0 l 1
 137 25 l 1
 112 25 l 2
 91 25 67 28 65 47 c 0
 63 71 97 117 126 155 c 2
 459 588 l 1
 436 74 l 1
 436 59 436 43 419 32 c 0
 413 28 407 25 401 25 c 2
 356 25 l 1
 345 0 l 1
 532 0 l 1
 543 25 l 1
 530 25 l 2
 519 25 506 29 504 33 c 0
 499 42 493 59 494 72 c 1
 520 661 l 1
 496 661 l 1
 102 147 l 2
 79 117 64 101 34 78 c 0
 -4 49 -43 25 -70 25 c 2
 -82 25 l 1
 -93 0 l 1
EndSplineSet
EndChar

StartChar: Xi
Encoding: 926 926 605
Width: 516
Flags: W
HStem: -16 21G<-4 16 339 359> 23 57<59 349> 306 43<197 417> 590 57<265 551> 665 20G<285 305 628 648>
DStem2: -4 -16 85 96 0.523745 0.851875<142.023 158.474 10.4749 38.2523> 145 272 217 362 0.520193 0.854049<114.318 128.798 8.32309 33.0206> 202 551 291 662 0.526573 0.85013<141.229 157.623 10.5315 37.4565> 339 -16 359 -16 0.523745 0.851875<10.4749 27.7774 131.548 158.474> 409 272 425 272 0.525822 0.850595<8.41315 24.1724 105.474 128.795> 545 551 565 551 0.526573 0.85013<10.5315 26.925 130.698 157.623>
LayerCount: 2
Back
Fore
SplineSet
415 306 m 2
 419 306 420 305 422 302 c 0
 423 300 424 296 421 293 c 1
 409 272 l 1
 425 272 l 1
 493 382 l 1
 476 382 l 1
 464 362 l 2
 462 358 458 355 453 352 c 0
 448 350 445 349 441 349 c 2
 223 349 l 2
 219 349 217 350 216 352 c 0
 214 355 214 358 217 362 c 2
 229 382 l 1
 212 382 l 1
 145 272 l 1
 161 272 l 1
 174 293 l 2
 176 296 180 300 184 302 c 0
 189 305 193 306 197 306 c 2
 415 306 l 2
549 590 m 2
 555 590 557 588 559 585 c 0
 561 582 562 579 559 574 c 2
 545 551 l 1
 565 551 l 1
 648 685 l 1
 628 685 l 1
 614 662 l 2
 611 658 607 654 601 651 c 0
 595 648 590 647 585 647 c 2
 301 647 l 2
 296 647 293 648 290 651 c 0
 288 654 288 658 291 662 c 2
 305 685 l 1
 285 685 l 1
 202 551 l 1
 222 551 l 1
 236 574 l 2
 239 579 244 582 249 585 c 0
 255 588 260 590 265 590 c 2
 549 590 l 2
343 23 m 2
 349 23 351 21 354 18 c 0
 356 15 356 12 353 8 c 2
 339 -16 l 1
 359 -16 l 1
 442 119 l 1
 422 119 l 1
 408 96 l 2
 405 91 401 88 395 85 c 0
 389 82 384 80 379 80 c 2
 95 80 l 2
 90 80 87 82 85 85 c 0
 82 88 82 91 85 96 c 2
 99 119 l 1
 79 119 l 1
 -4 -16 l 1
 16 -16 l 1
 30 8 l 2
 33 12 38 15 43 18 c 0
 49 21 54 23 59 23 c 2
 343 23 l 2
EndSplineSet
EndChar

StartChar: Pi
Encoding: 928 928 607
Width: 781
Flags: W
HStem: 0 18<17 217 339 539> 644 17<317 360 318 680 318 831>
DStem2: 108 70 159 58 0.432624 0.901575<11.2449 600.234> 430 70 481 58 0.432624 0.901575<11.2449 600.234>
LayerCount: 2
Back
Fore
SplineSet
421 604 m 2
 159 58 l 2
 147 32 149 18 181 18 c 258
 223 18 l 1
 217 0 l 1
 7 0 l 1
 18 18 l 1
 45 18 l 258
 74 18 97 46 108 70 c 1
 368 611 l 2
 378 631 380 644 352 644 c 258
 312 644 l 1
 318 661 l 1
 837 661 l 1
 831 644 l 1
 800 644 l 258
 778 644 752 623 743 604 c 2
 481 58 l 1
 468 32 471 18 503 18 c 258
 545 18 l 1
 539 0 l 1
 329 0 l 1
 340 18 l 1
 367 18 l 258
 396 18 419 46 430 70 c 1
 690 611 l 2
 700 631 701 644 674 644 c 258
 478 644 l 258
 457 644 430 623 421 604 c 2
EndSplineSet
EndChar

StartChar: Sigma
Encoding: 931 931 609
Width: 678
Flags: W
HStem: 0 20<-52 285> 638 20<194 687>
DStem2: 52 71 86 71 0.695835 0.718201<23.6584 321.076> 307 587 253 587 0.231621 -0.972806<0 224.95>
LayerCount: 2
Back
Fore
SplineSet
417 0 m 1
 543 197 l 1
 521 197 l 1
 496 165 l 2
 451 107 357 20 279 20 c 2
 106 20 l 258
 72 20 64 49 86 71 c 2
 366 360 l 1
 307 587 l 2
 300 615 339 638 362 638 c 258
 540 638 l 2
 616 638 638 570 629 502 c 2
 625 471 l 1
 640 471 l 1
 687 658 l 1
 201 658 l 1
 194 638 l 1
 217 638 l 258
 242 638 249 606 253 587 c 1
 308 356 l 1
 275 302 l 1
 52 71 l 2
 38 56 2 20 -18 20 c 258
 -44 20 l 1
 -52 0 l 1
 417 0 l 1
EndSplineSet
EndChar

